<svg width="79" height="54" viewBox="0 0 79 54" fill="none" xmlns="http://www.w3.org/2000/svg">
<path d="M65.3145 0H13.3045H13.3053C9.77607 0 6.39196 1.38181 3.89708 3.8426C1.40133 6.3026 0 9.6394 0 13.1193V40.5497V40.5489C0 44.0288 1.4014 47.3656 3.89708 49.8256C6.39196 52.2864 9.77607 53.6682 13.3053 53.6682H65.3153H65.3145C68.8437 53.6682 72.2279 52.2864 74.7227 49.8256C77.2185 47.3656 78.6198 44.0288 78.6198 40.5489V13.1185V13.1193C78.6198 9.6394 77.2184 6.3026 74.7227 3.8426C72.2279 1.38174 68.8437 0 65.3145 0ZM42.6357 32.7972L30.8432 38.7603V14.9078L54.4291 26.8341L42.6357 32.7972Z" fill="#FF0000"/>
<path d="M54.2988 26.8335L30.5432 38.9371V14.7299L54.2988 26.8335Z" fill="white"/>
</svg>
