<svg width="29" height="26" viewBox="0 0 29 26" fill="none" xmlns="http://www.w3.org/2000/svg">
<path d="M2.86226 15.6268C0.330419 17.9956 0.330419 21.8546 2.86226 24.2234C5.3941 26.5922 9.51849 26.5922 12.0503 24.2234L17.1547 19.4474C19.6866 17.0786 19.6866 13.2197 17.1547 10.8508V10.8506C16.9528 10.6563 16.6759 10.5458 16.3861 10.5439C16.0963 10.542 15.8178 10.649 15.6129 10.8407C15.4079 11.0325 15.2936 11.293 15.2956 11.5642C15.2976 11.8353 15.4157 12.0944 15.6234 12.2834C17.3335 13.8833 17.3335 16.4146 15.6234 18.0145L10.519 22.7904C8.80891 24.3904 6.10355 24.3904 4.39351 22.7904C2.68346 21.1905 2.68346 18.6593 4.39351 17.0593L9.24269 12.522L9.24294 12.5222C9.45091 12.3333 9.56899 12.0742 9.57126 11.8028C9.57327 11.5316 9.45896 11.2709 9.25402 11.0791C9.04907 10.8871 8.77036 10.7804 8.4803 10.7823C8.19051 10.7842 7.91355 10.8949 7.71136 11.0895L2.86218 15.6265L2.86226 15.6268ZM12.5607 6.55255C10.0289 8.92142 10.0289 12.7803 12.5607 15.1491C12.7627 15.3435 13.0396 15.4537 13.3294 15.4556C13.6192 15.4575 13.8977 15.3506 14.1026 15.1588C14.3073 14.9673 14.4216 14.7067 14.4196 14.4356C14.4176 14.1645 14.2998 13.9053 14.0921 13.7164C12.382 12.1164 12.382 9.58522 14.0921 7.98524L19.1965 3.20932C20.9066 1.60934 23.6119 1.60934 25.322 3.20932C27.032 4.80929 27.032 7.34051 25.322 8.94049L20.4725 13.4775C20.2648 13.6665 20.147 13.9256 20.145 14.1967C20.143 14.4679 20.257 14.7284 20.462 14.9202C20.6669 15.1119 20.9454 15.2186 21.2352 15.217C21.525 15.2151 21.8019 15.1046 22.0041 14.9103L26.8533 10.3732C29.3851 8.00436 29.3851 4.14545 26.8533 1.77663C24.3215 -0.592181 20.1971 -0.592241 17.6653 1.77663L12.5607 6.55255Z" fill="#4CBBEC"/>
</svg>
