<svg width="135" height="135" viewBox="0 0 135 135" fill="none" xmlns="http://www.w3.org/2000/svg">
<circle cx="67.5" cy="67.5" r="67.5" fill="#4CBBEC"/>
<path d="M34 65.381V96.8095C34 99.1236 35.8746 101 38.1875 101H96.8125C99.1254 101 101 99.1236 101 96.8095V57H34V65.381ZM89.6507 59.0952H98.9066V65.381H87.2929L89.6507 59.0952ZM68.6175 59.0952H78.0165L75.6587 65.381H66.2593L68.6175 59.0952ZM47.5831 59.0952H56.9821L54.6243 65.381H45.2253L47.5831 59.0952ZM36.0946 67.4762H98.9071V96.8095C98.9071 97.9652 97.9677 98.9048 96.8133 98.9048H38.1883C37.034 98.9048 36.0946 97.9652 36.0946 96.8095V67.4762Z" fill="white"/>
<path d="M95.8091 34C95.5712 34 95.3305 34.0202 95.0885 34.0619L37.4615 44.0547C35.1878 44.4484 33.6661 46.601 34.0629 48.8603L35.1392 55L101 43.5808L99.9228 37.4426C99.5685 35.4227 97.8033 34 95.8096 34L95.8091 34ZM55.0075 49.4236L45.7739 51.0249L46.9745 44.5356L56.2076 42.9348L55.0075 49.4236ZM75.6745 45.8406L66.4414 47.4414L67.6411 40.953L76.8746 39.3517L75.6745 45.8406ZM87.1087 43.8582L88.3088 37.3688L95.444 36.1317C95.5655 36.1106 95.6884 36.0999 95.8099 36.0999C96.825 36.0999 97.6872 36.8175 97.8612 37.8061L98.5743 41.8702L87.1087 43.8582Z" fill="white"/>
<path d="M69 89C69 90.1045 68.1045 91 67 91C65.8955 91 65 90.1045 65 89C65 87.8955 65.8955 87 67 87C68.1045 87 69 87.8955 69 89Z" fill="white"/>
<path d="M69 77C69 78.1045 68.1045 79 67 79C65.8955 79 65 78.1045 65 77C65 75.8955 65.8955 75 67 75C68.1045 75 69 75.8955 69 77Z" fill="white"/>
<path d="M64 83C64 84.1045 63.1045 85 62 85C60.8955 85 60 84.1045 60 83C60 81.8955 60.8955 81 62 81C63.1045 81 64 81.8955 64 83Z" fill="white"/>
<path d="M66.9066 96.9847C66.9316 96.9889 66.9543 97 66.9808 97H80.4808C80.7673 97 81 96.7677 81 96.4808C81 96.1938 80.7673 95.9615 80.4808 95.9615H72.6979C77.5731 93.9259 81 89.1137 81 83.5C81 76.0435 74.9556 70 67.5 70C60.0444 70 54 76.044 54 83.5C54 90.7563 59.7264 96.6736 66.9066 96.9846V96.9847ZM67.5 92.3269C65.7791 92.3269 64.3846 90.932 64.3846 89.2115C64.3846 87.4911 65.7791 86.0962 67.5 86.0962C69.2209 86.0962 70.6154 87.4911 70.6154 89.2115C70.6154 90.932 69.2209 92.3269 67.5 92.3269ZM73.2115 80.3852C74.9319 80.3852 76.3269 81.7797 76.3269 83.5006C76.3269 85.2215 74.9319 86.616 73.2115 86.616C71.4911 86.616 70.0962 85.2215 70.0962 83.5006C70.0962 81.7797 71.4911 80.3852 73.2115 80.3852ZM67.5 74.6737C69.2209 74.6737 70.6154 76.0687 70.6154 77.7891C70.6154 79.5095 69.2209 80.9045 67.5 80.9045C65.7791 80.9045 64.3846 79.5095 64.3846 77.7891C64.3846 76.0687 65.7791 74.6737 67.5 74.6737ZM61.7885 80.3852C63.5089 80.3852 64.9038 81.7797 64.9038 83.5006C64.9038 85.2215 63.5089 86.616 61.7885 86.616C60.0681 86.616 58.6731 85.221 58.6731 83.5006C58.6731 81.7797 60.0681 80.3852 61.7885 80.3852Z" fill="white"/>
<path d="M75 83C75 84.1045 74.1045 85 73 85C71.8955 85 71 84.1045 71 83C71 81.8955 71.8955 81 73 81C74.1045 81 75 81.8955 75 83Z" fill="white"/>
</svg>
