<svg width="26" height="26" viewBox="0 0 26 26" fill="none" xmlns="http://www.w3.org/2000/svg">
<path d="M26 13C26 20.1786 20.1786 26 13 26C5.8214 26 0 20.1786 0 13C0 5.8214 5.8214 0 13 0C20.1786 0 26 5.8214 26 13Z" fill="#FFC107"/>
<path d="M15.4111 14.7109H18.2588C18.2119 15.5898 17.9717 16.3662 17.5381 17.04C17.1104 17.708 16.5156 18.2324 15.7539 18.6133C14.9922 18.9883 14.0869 19.1758 13.0381 19.1758C12.2002 19.1758 11.4502 19.0322 10.7881 18.7451C10.126 18.458 9.56348 18.0479 9.10059 17.5146C8.64355 16.9756 8.29199 16.3281 8.0459 15.5723C7.80566 14.8105 7.68555 13.9521 7.68555 12.9971V12.2148C7.68555 11.2598 7.81152 10.4014 8.06348 9.63965C8.31543 8.87793 8.67578 8.22754 9.14453 7.68848C9.61328 7.14941 10.1758 6.73633 10.832 6.44922C11.4883 6.16211 12.2207 6.01855 13.0293 6.01855C14.1191 6.01855 15.0391 6.21484 15.7891 6.60742C16.5391 7 17.1191 7.53906 17.5293 8.22461C17.9453 8.91016 18.1943 9.69238 18.2764 10.5713H15.4199C15.3965 10.0732 15.3027 9.6543 15.1387 9.31445C14.9746 8.96875 14.7227 8.70801 14.3828 8.53223C14.043 8.35645 13.5918 8.26855 13.0293 8.26855C12.6191 8.26855 12.2588 8.34473 11.9482 8.49707C11.6436 8.64941 11.3887 8.88672 11.1836 9.20898C10.9844 9.53125 10.835 9.94141 10.7354 10.4395C10.6357 10.9316 10.5859 11.5176 10.5859 12.1973V12.9971C10.5859 13.6709 10.6299 14.2539 10.7178 14.7461C10.8057 15.2383 10.9463 15.6455 11.1396 15.9678C11.3389 16.29 11.5938 16.5303 11.9043 16.6885C12.2148 16.8467 12.5928 16.9258 13.0381 16.9258C13.5479 16.9258 13.9727 16.8467 14.3125 16.6885C14.6523 16.5244 14.9131 16.2783 15.0947 15.9502C15.2764 15.6221 15.3818 15.209 15.4111 14.7109Z" fill="#FFF8E1"/>
</svg>
