<svg width="26" height="26" viewBox="0 0 26 26" fill="none" xmlns="http://www.w3.org/2000/svg">
<path d="M9.72108 5.62457L9.72463 5.62602C9.79844 5.30522 10.0667 5.06914 10.4024 5.06914H19.9638C19.9759 5.06914 19.9879 5.06407 20 5.0648C19.7963 1.60402 16.951 0 14.4407 0H4.87935C4.54294 0 4.27466 0.242595 4.20156 0.562675L4.19801 0.561226L0.0184528 20.1411L0.0276792 20.1419C0.0177431 20.1882 0 20.2324 0 20.2824C0 20.6828 0.317246 21 0.709723 21H6.4379L9.72108 5.62457Z" fill="#1565C0"/>
<path d="M20.4595 5C20.497 5.63421 20.4559 6.32417 20.2971 7.08653C19.389 11.4268 16.1061 13.6857 12.0491 13.6857C12.0491 13.6857 9.58917 13.6857 8.99157 13.6857C8.62223 13.6857 8.44784 13.9072 8.36773 14.0766L7.13424 19.904L6.91803 20.9386H6.91377L6.01843 25.1348L6.02765 25.1356C6.01772 25.1819 6 25.2261 6 25.276C6 25.6764 6.31688 26 6.7089 26H11.9073L11.9165 25.9928C12.2511 25.9877 12.5169 25.7437 12.5864 25.4223L12.5992 25.4114L13.8837 19.3183C13.8837 19.3183 13.973 18.7369 14.5713 18.7369C15.1696 18.7369 17.5331 18.7369 17.5331 18.7369C21.5902 18.7369 24.9064 16.4882 25.8152 12.1472C26.8375 7.25305 23.4191 5.0181 20.4595 5Z" fill="#039BE5"/>
<path d="M10.4843 5.00385C10.1512 5.00385 9.88552 5.23787 9.81313 5.55588L9.80962 5.55444L8 14C8.07941 13.832 8.25229 13.6124 8.61843 13.6124C9.21157 13.6124 11.5946 13.6124 11.5946 13.6124C15.6166 13.6124 18.9259 11.3727 19.8261 7.06911C19.9843 6.31321 20.0243 5.6291 19.9871 5.00026C19.9758 4.99882 19.9632 5.00385 19.9519 5.00385H10.4843Z" fill="#283593"/>
</svg>
