<svg width="40" height="40" viewBox="0 0 40 40" fill="none" xmlns="http://www.w3.org/2000/svg">
<path d="M20 0C31.0452 0 40 8.9548 40 20C40 31.0452 31.0448 40 20 40C8.9552 40 0 31.0476 0 20C0 8.9524 8.9536 0 20 0Z" fill="#53AE94"/>
<path d="M22.4697 17.3365V14.3613H29.2733V9.82812H10.7469V14.3613H17.5513V17.3341C12.0213 17.5881 7.86328 18.6833 7.86328 19.9953C7.86328 21.3073 12.0233 22.4025 17.5513 22.6581V32.1881H22.4713V22.6573C27.9913 22.4025 32.1409 21.3081 32.1409 19.9973C32.1409 18.6865 27.9913 17.5921 22.4713 17.3373L22.4697 17.3365ZM22.4713 21.8501V21.8477C22.3325 21.8565 21.6193 21.8993 20.0313 21.8993C18.7617 21.8993 17.8685 21.8633 17.5537 21.8469V21.8509C12.6681 21.6345 9.02128 20.7837 9.02128 19.7657C9.02128 18.7477 12.6685 17.8981 17.5537 17.6813V21.0033C17.8737 21.0253 18.7889 21.0793 20.0521 21.0793C21.5693 21.0793 22.3321 21.0161 22.4721 21.0033V17.6813C27.3481 17.8985 30.9865 18.7501 30.9865 19.7645C30.9865 20.7789 27.3465 21.6309 22.4721 21.8481" fill="white"/>
</svg>
