<svg width="26" height="26" viewBox="0 0 26 26" fill="none" xmlns="http://www.w3.org/2000/svg">
<path d="M13 11H14V18H13V11Z" fill="#4CBBEC"/>
<path d="M10 11H12V18H10V11Z" fill="#4CBBEC"/>
<path d="M14 11H16V18H14V11Z" fill="#4CBBEC"/>
<path d="M17 11H18V18H17V11Z" fill="#4CBBEC"/>
<path d="M13 0C5.82008 0 0 5.82008 0 13C0 20.1799 5.82008 26 13 26C20.1799 26 26 20.1799 26 13C26 5.82008 20.1799 0 13 0ZM20.5823 20.6556H5.41821C5.17902 20.6556 4.98496 20.4617 4.98496 20.2223C4.98496 19.9829 5.17902 19.7891 5.41821 19.7891H20.5828C20.822 19.7891 21.0161 19.9829 21.0161 20.2223C21.0161 20.4617 20.8218 20.6556 20.5826 20.6556H20.5823ZM6.16623 10.9618V10.0951H19.8338V10.9618H18.7859L18.7863 18.0587H19.8342V18.9254H6.16663V18.0587H7.21447L7.21387 10.9618H6.16623ZM21.0125 8.82819C21.0113 8.84471 21.0105 8.86103 21.0077 8.87756C21.0051 8.89166 21.0005 8.90496 20.9964 8.91887C20.9926 8.93217 20.9892 8.94567 20.9839 8.95877C20.9775 8.97469 20.9692 8.9894 20.9612 9.00411C20.9565 9.01277 20.9533 9.02204 20.9479 9.0303C20.947 9.03171 20.9458 9.03252 20.945 9.03373C20.9269 9.06174 20.9051 9.08713 20.881 9.11031C20.8743 9.11675 20.8668 9.12179 20.8598 9.12764C20.8413 9.14315 20.8217 9.15746 20.801 9.16955C20.7917 9.17499 20.7828 9.18003 20.7731 9.18466C20.7514 9.19534 20.7292 9.20381 20.7058 9.21066C20.6974 9.21328 20.6893 9.2165 20.6806 9.21852C20.6488 9.22597 20.6162 9.23061 20.5825 9.23061H5.41791C5.4159 9.23061 5.41408 9.23 5.41207 9.23C5.39655 9.2298 5.38083 9.22718 5.36532 9.22537C5.35222 9.22396 5.33912 9.22335 5.32622 9.22053C5.31433 9.21791 5.30345 9.21328 5.29176 9.20985C5.27645 9.20522 5.26093 9.20139 5.24642 9.19514C5.23554 9.19051 5.22526 9.18366 5.21458 9.17781C5.20108 9.17056 5.18657 9.16391 5.17388 9.15524C5.163 9.14779 5.15332 9.13811 5.14305 9.12985C5.13176 9.12058 5.11987 9.11192 5.10959 9.10164C5.10153 9.09358 5.09509 9.08371 5.08763 9.07504C5.07675 9.06174 5.06506 9.04905 5.05559 9.03434C5.05438 9.03292 5.05337 9.03151 5.05216 9.0299C5.04672 9.02124 5.0435 9.01197 5.03886 9.0033C5.0308 8.98859 5.02234 8.97388 5.01609 8.95816C5.01085 8.94507 5.00763 8.93156 5.0036 8.91826C4.99957 8.90476 4.99493 8.89146 4.99231 8.87695C4.98909 8.86043 4.98849 8.84411 4.98748 8.82758C4.98667 8.81751 4.98425 8.80763 4.98425 8.79716C4.98425 8.79514 4.98486 8.79333 4.98486 8.79171C4.98506 8.77499 4.98768 8.75846 4.98969 8.74194C4.99111 8.73005 4.99171 8.71776 4.99413 8.70607C4.99695 8.69277 5.00199 8.68028 5.00602 8.66738C5.01045 8.65348 5.01388 8.63917 5.01952 8.62607C5.02476 8.61358 5.03262 8.60209 5.03886 8.5902C5.04551 8.57771 5.05136 8.56501 5.05902 8.55353C5.06708 8.54164 5.07755 8.53096 5.08682 8.51967C5.09549 8.50919 5.10335 8.49851 5.11282 8.48904C5.12148 8.48038 5.13216 8.47312 5.14164 8.46506C5.15413 8.45458 5.16622 8.4439 5.17972 8.43504C5.18154 8.43383 5.18254 8.43242 5.18436 8.43121L12.7667 3.6062C12.9087 3.51572 13.0899 3.51572 13.2322 3.6062L20.8145 8.43121C20.8163 8.43242 20.8173 8.43383 20.8191 8.43463C20.8326 8.4435 20.8449 8.45418 20.8572 8.46466C20.8666 8.47272 20.8771 8.47977 20.886 8.48844C20.8955 8.49791 20.9033 8.50859 20.912 8.51907C20.9215 8.53035 20.9315 8.54083 20.9398 8.55292C20.9477 8.56441 20.9533 8.57751 20.9603 8.5896C20.967 8.60149 20.9745 8.61297 20.9797 8.62547C20.9855 8.63877 20.989 8.65348 20.9932 8.66738C20.9972 8.68008 21.0021 8.69217 21.0051 8.70527C21.0077 8.71716 21.0079 8.72945 21.0097 8.74174C21.0117 8.75826 21.0144 8.77439 21.0146 8.79111C21.0146 8.79313 21.0152 8.79494 21.0152 8.79655C21.016 8.80824 21.0135 8.81791 21.0129 8.82819L21.0125 8.82819Z" fill="#4CBBEC"/>
<path d="M8 11H9V18H8V11Z" fill="#4CBBEC"/>
<path d="M7 8H19L13.0003 4L7 8Z" fill="#4CBBEC"/>
</svg>
