<svg data-v-423bf9ae="" xmlns="http://www.w3.org/2000/svg" viewBox="0 0 628.6285400390625 193" class="fontAboveSlogan"><!----><!----><!----><g data-v-423bf9ae="" id="f3d709be-1683-4fd4-b16a-eea1eaf43b71" fill="#ffffff" transform="matrix(11.869435485209843,0,0,11.869435485209843,112.4700456335016,-51.934208831231174)"><path d="M6.76 14.35L6.76 12.95L2.79 12.95L2.79 4.58L1.20 4.58L1.20 14.35ZM11.55 14.35L14.80 4.58L13.20 4.58L11.65 9.41L10.70 12.81L10.64 12.81L9.70 9.41L8.15 4.58L6.51 4.58L9.72 14.35ZM17.84 10.40L19.78 10.40L21.74 14.35L23.51 14.35L21.39 10.23C22.64 9.87 23.30 8.90 23.30 7.52C23.30 5.71 22.22 4.58 20.47 4.58L16.25 4.58L16.25 14.35L17.84 14.35ZM17.84 9.07L17.84 5.96L20.36 5.96C21.15 5.96 21.63 6.40 21.63 7.18L21.63 7.85C21.63 8.64 21.15 9.07 20.36 9.07ZM31.57 14.35L32.96 14.35L32.96 9.14L29.41 9.14L29.41 10.50L31.43 10.50L31.43 11.26C31.43 12.47 30.35 13.10 29.12 13.10C27.58 13.10 26.54 12.05 26.54 10.26L26.54 8.67C26.54 6.87 27.58 5.82 29.12 5.82C30.31 5.82 31.09 6.45 31.47 7.36L32.76 6.61C32.09 5.24 30.87 4.41 29.12 4.41C26.56 4.41 24.85 6.20 24.85 9.46C24.85 12.74 26.56 14.52 28.88 14.52C30.37 14.52 31.32 13.80 31.51 12.87L31.57 12.87Z"></path></g><!----><!----><g data-v-423bf9ae="" id="a1ccb811-e8b2-4123-95b2-ef7d7f51a176" fill="#ffffff" transform="matrix(5.714285714285714,0,0,5.714285714285714,-7.199986832482466,119.00000282696315)"><path d="M1.26 2.80L1.26 12.60L5.74 12.60L5.74 12.19L1.68 12.19L1.68 2.80ZM14.70 7.48L19.04 7.48L19.04 7.08L14.70 7.08L14.70 3.21L19.32 3.21L19.32 2.80L14.28 2.80L14.28 12.60L19.32 12.60L19.32 12.19L14.70 12.19ZM31.92 12.03L28.14 2.80L27.65 2.80L31.92 12.95L36.19 2.80L35.70 2.80ZM45.08 7.48L49.42 7.48L49.42 7.08L45.08 7.08L45.08 3.21L49.70 3.21L49.70 2.80L44.66 2.80L44.66 12.60L49.70 12.60L49.70 12.19L45.08 12.19ZM59.50 2.80ZM59.08 2.80L59.08 12.60L59.50 12.60L59.50 8.48L61.05 8.48L64.18 12.60L64.72 12.60L61.53 8.47C62.43 8.41 63.14 8.15 63.68 7.67C64.22 7.20 64.48 6.52 64.48 5.64C64.48 4.71 64.18 4.00 63.57 3.52C62.97 3.04 62.17 2.80 61.18 2.80ZM59.50 3.21L61.18 3.21C62.05 3.21 62.74 3.41 63.27 3.83C63.79 4.24 64.05 4.85 64.05 5.64C64.05 6.44 63.79 7.04 63.27 7.45C62.74 7.87 62.05 8.08 61.18 8.08L59.50 8.08ZM76.34 2.45L72.07 12.60L72.56 12.60L73.84 9.52L78.85 9.52L80.12 12.60L80.61 12.60ZM76.34 3.50L78.65 9.07L74.03 9.07ZM97.20 7.63L93.14 7.63L93.14 8.11L96.73 8.11C96.64 9.32 96.25 10.32 95.54 11.09C94.83 11.87 93.89 12.26 92.72 12.26C91.43 12.26 90.39 11.82 89.60 10.94C88.81 10.06 88.41 8.98 88.41 7.70C88.41 6.40 88.81 5.32 89.62 4.45C90.43 3.57 91.46 3.14 92.72 3.14C93.47 3.14 94.16 3.31 94.80 3.65C95.44 4.00 95.95 4.47 96.33 5.05L96.73 4.75C96.29 4.11 95.73 3.61 95.05 3.24C94.36 2.87 93.59 2.69 92.72 2.69C91.37 2.69 90.24 3.17 89.33 4.13C88.42 5.09 87.96 6.28 87.96 7.70C87.96 9.12 88.42 10.31 89.33 11.27C90.24 12.23 91.37 12.71 92.72 12.71C94.09 12.71 95.18 12.22 95.99 11.23C96.80 10.25 97.20 9.05 97.20 7.63ZM106.65 7.48L110.99 7.48L110.99 7.08L106.65 7.08L106.65 3.21L111.27 3.21L111.27 2.80L106.23 2.80L106.23 12.60L111.27 12.60L111.27 12.19L106.65 12.19Z"></path></g></svg>