<?xml version="1.0" encoding="utf-8"?>
<!-- Generator: Adobe Illustrator 16.0.0, SVG Export Plug-In . SVG Version: 6.00 Build 0)  -->
<!DOCTYPE svg PUBLIC "-//W3C//DTD SVG 1.1//EN" "http://www.w3.org/Graphics/SVG/1.1/DTD/svg11.dtd">
<svg version="1.1" id="Layer_1" xmlns="http://www.w3.org/2000/svg" xmlns:xlink="http://www.w3.org/1999/xlink" x="0px" y="0px"
	 width="51px" height="48px" viewBox="0 0 51 48" enable-background="new 0 0 51 48" xml:space="preserve">
<g>
	<path fill="#F9F9FA" d="M15,0h21c8.284,0,15,6.716,15,15v18c0,8.284-6.716,15-15,15H15C6.716,48,0,41.284,0,33V15
		C0,6.716,6.716,0,15,0z"/>
</g>
<path fill="#4FBBEB" d="M15.707,12.293c-0.391-0.391-1.023-0.391-1.414,0s-0.391,1.023,0,1.414L15.707,12.293z M36.293,35.707
	c0.391,0.391,1.023,0.391,1.414,0s0.391-1.023,0-1.414L36.293,35.707z M14.293,13.707l22,22l1.414-1.414l-22-22L14.293,13.707z"/>
<path fill="#4FBBEB" d="M37.707,13.707c0.391-0.391,0.391-1.023,0-1.414s-1.023-0.391-1.414,0L37.707,13.707z M14.293,34.293
	c-0.391,0.391-0.391,1.023,0,1.414s1.023,0.391,1.414,0L14.293,34.293z M36.293,12.293l-22,22l1.414,1.414l22-22L36.293,12.293z"/>
</svg>
