<svg width="121" height="118" viewBox="0 0 121 118" fill="none" xmlns="http://www.w3.org/2000/svg">
<g filter="url(#filter0_d_414_504)">
<rect x="35" y="32" width="51" height="48" rx="15" fill="#4CBBEC"/>
</g>
<path d="M61.0001 43C60.49 43 60.0762 43.4116 60.0762 43.919V64.8615L53.5762 58.3959C53.2151 58.038 52.6309 58.0388 52.2707 58.3971C51.9104 58.7555 51.9096 59.3366 52.2694 59.6958L60.3469 67.7307C60.52 67.9033 60.7551 68 61.0001 68C61.2456 68 61.4803 67.9033 61.6538 67.7307L69.7305 59.6958C70.0903 59.3366 70.0898 58.7554 69.7292 58.3971C69.369 58.0388 68.7847 58.0379 68.4236 58.3959L61.9244 64.8615V43.919C61.9244 43.4116 61.5107 43 61.0001 43H61.0001Z" fill="white"/>
<path d="M46.9976 68H54.0655C54.5817 68 55 67.5884 55 67.0805C55 66.5731 54.5817 66.1615 54.0655 66.1615H46.9976C46.1679 66.1602 45.3729 65.8356 44.7861 65.2587C44.1998 64.6814 43.8698 63.8991 43.8685 63.0828V43.919C43.8685 43.4116 43.4502 43 42.9345 43C42.4183 43 42 43.4116 42 43.919V63.0828C42.0017 64.3866 42.5287 65.6362 43.4654 66.5582C44.4025 67.4797 45.6725 67.9983 46.9976 68L46.9976 68Z" fill="white"/>
<path d="M66 67.0806C66 67.5884 66.4183 68 66.9341 68H74.0027C75.3273 67.9983 76.5979 67.4798 77.5345 66.5582C78.4717 65.6362 78.9987 64.3866 79 63.0828V43.919C79 43.4116 78.5817 43 78.0659 43C77.5497 43 77.1314 43.4116 77.1314 43.919V63.0828C77.1305 63.8992 76.8006 64.6814 76.2138 65.2587C75.6274 65.8356 74.8319 66.1603 74.0027 66.1615H66.9341C66.4183 66.1615 66 66.5731 66 67.0805L66 67.0806Z" fill="white"/>
<defs>
<filter id="filter0_d_414_504" x="0" y="0" width="121" height="118" filterUnits="userSpaceOnUse" color-interpolation-filters="sRGB">
<feFlood flood-opacity="0" result="BackgroundImageFix"/>
<feColorMatrix in="SourceAlpha" type="matrix" values="0 0 0 0 0 0 0 0 0 0 0 0 0 0 0 0 0 0 127 0" result="hardAlpha"/>
<feOffset dy="3"/>
<feGaussianBlur stdDeviation="17.5"/>
<feComposite in2="hardAlpha" operator="out"/>
<feColorMatrix type="matrix" values="0 0 0 0 0 0 0 0 0 0 0 0 0 0 0 0 0 0 0.08 0"/>
<feBlend mode="normal" in2="BackgroundImageFix" result="effect1_dropShadow_414_504"/>
<feBlend mode="normal" in="SourceGraphic" in2="effect1_dropShadow_414_504" result="shape"/>
</filter>
</defs>
</svg>
