<svg width="31" height="30" viewBox="0 0 31 30" fill="none" xmlns="http://www.w3.org/2000/svg">
<path fill-rule="evenodd" clip-rule="evenodd" d="M29.2737 0.00214635C29.208 -0.000992617 29.1418 -0.000783367 29.0752 0.00340196C28.8977 0.0140745 28.7177 0.0506954 28.5417 0.117032L1.31865 10.362C0.467971 10.6822 -0.00472512 11.4799 3.56143e-05 12.2406C0.00479291 13.001 0.487656 13.7925 1.34245 14.1026L11.6516 17.8441C12.0722 17.9968 12.4033 18.317 12.5612 18.7242L16.4271 28.7009C16.7476 29.5279 17.5654 29.9954 18.3512 30C19.137 30.0046 19.9616 29.5471 20.2924 28.7239L30.8789 2.3785C31.1527 1.69734 30.9388 0.960944 30.4726 0.509979C30.1668 0.213874 29.7341 0.0232341 29.2738 0.00188589L29.2737 0.00214635ZM23.7695 6.24751C23.9749 6.24772 24.1719 6.32662 24.3175 6.46724C24.62 6.76021 24.62 7.23503 24.3175 7.5278L17.0806 14.5301V14.5303C16.7779 14.8231 16.2874 14.8231 15.9847 14.5303C15.6822 14.2374 15.6822 13.7625 15.9847 13.4696L23.2204 6.46724C23.3658 6.32661 23.5632 6.24751 23.7691 6.24751L23.7695 6.24751Z" fill="#4CBBEC"/>
</svg>
