<svg width="99" height="67" viewBox="0 0 99 67" fill="none" xmlns="http://www.w3.org/2000/svg">
<rect x="24" y="14" width="53" height="40" fill="white"/>
<path d="M82.2456 0H16.7533H16.7544C12.3103 0 8.04891 1.72506 4.9073 4.79714C1.76459 7.86824 0 12.0339 0 16.3783V50.6227V50.6217C0 54.9661 1.76467 59.1318 4.9073 62.2029C8.04891 65.275 12.3103 67 16.7544 67H82.2467H82.2456C86.6897 67 90.9511 65.2749 94.0927 62.2029C97.2354 59.1318 99 54.9661 99 50.6217V16.3773V16.3783C99 12.0339 97.2353 7.86824 94.0927 4.79714C90.9511 1.72498 86.6897 0 82.2456 0ZM53.6879 40.9444L38.8385 48.3889V18.6111L68.5385 33.5L53.6879 40.9444Z" fill="#FF0000"/>
</svg>
