<svg width="28" height="30" viewBox="0 0 28 30" fill="none" xmlns="http://www.w3.org/2000/svg">
<path d="M13.0496 24.9292H21.1298C20.7841 25.4404 20.568 26.0798 20.568 26.7614C20.568 28.5512 22.037 30 23.8518 30C25.6666 30 27.1357 28.5512 27.1357 26.7614C27.1357 24.9716 25.6666 23.5228 23.8518 23.5228H7.82114C6.78404 23.5228 5.91985 22.6706 5.91985 21.6477V19.1336C6.48167 19.5171 7.12972 19.7302 7.82114 19.7302H24.6728C26.5306 19.7302 28 18.2385 28 16.4488V9.46014H26.5741V16.4488C26.5741 17.4716 25.71 18.3239 24.6728 18.3239H7.82114C6.78404 18.3239 5.91985 17.4717 5.91985 16.4488V2.301L0.561815 0L0 1.32096L4.49362 3.23851V21.6477C4.49362 23.395 5.87647 24.8012 7.6047 24.9291C7.21588 25.4404 6.99978 26.0797 6.99978 26.7613C6.99978 28.5511 8.46882 29.9999 10.2836 29.9999C12.0984 29.9999 13.5675 28.5511 13.5675 26.7613C13.6549 26.0797 13.4387 25.4404 13.0499 24.9291L13.0496 24.9292ZM25.7532 26.7614C25.7532 27.7842 24.9321 28.5937 23.8954 28.5937C22.8583 28.5937 22.0375 27.7839 22.0375 26.7614C22.0375 25.7386 22.8586 24.9292 23.8954 24.9292C24.9321 24.9292 25.7532 25.7389 25.7532 26.7614ZM10.3275 28.594C9.29035 28.594 8.46961 27.7842 8.46961 26.7617C8.46961 25.7389 9.29066 24.9295 10.3275 24.9295C11.3646 24.9295 12.1853 25.7392 12.1853 26.7617C12.2287 27.7843 11.3646 28.594 10.3275 28.594ZM17.025 0.0852432V9.67338L19.0558 7.71299L20.0929 8.7358L16.3338 12.4431L12.6178 8.77833L13.6549 7.75552L15.6427 9.71592L15.6421 0.0851671L17.025 0.0852432ZM22.21 15.2132H10.3707V13.8069H22.21V15.2132Z" fill="#4CBBEC"/>
</svg>
