<svg width="30" height="31" viewBox="0 0 30 31" fill="none" xmlns="http://www.w3.org/2000/svg">
<path d="M8.75383 8.12131L8.39613 8.67094L8.75765 9.21807L8.75786 9.21839L8.88401 9.4093L9.08062 9.52635L10.8187 10.5612L11.6483 11.055L12.171 10.2434C12.6959 9.42851 13.5387 8.9557 14.5492 8.9557C16.117 8.9557 17.3475 10.1853 17.3475 11.7717C17.3475 12.9991 16.5571 14.0948 15.3784 14.4927C13.6446 14.8926 12.5192 16.6448 12.5192 18.304V19.8562V20.8562H13.389C12.706 21.2665 12.2614 22.0304 12.2614 22.8956C12.2614 24.155 13.2842 25.1892 14.549 25.1892C15.8138 25.1892 16.8366 24.155 16.8366 22.8956C16.8366 22.0306 16.392 21.2665 15.7089 20.8562H16.5149V19.8562V18.3551L16.5255 18.3517C19.3847 17.4446 21.3433 14.7971 21.3433 11.7715C21.3433 7.98953 18.3245 4.95028 14.549 4.95028C12.2063 4.95028 10.0281 6.16341 8.75383 8.12131ZM1 15.0699C1 7.27444 7.25202 1 15 1C22.6865 1 29 7.27723 29 15.0699C29 22.8007 22.6837 29.1397 15 29.1397C7.2548 29.1397 1 22.8035 1 15.0699Z" stroke="#4CBBEC" stroke-width="2"/>
</svg>
