<svg width="14" height="16" viewBox="0 0 14 16" fill="none" xmlns="http://www.w3.org/2000/svg">
<path d="M7.5 12C8.69345 12 9.8381 11.5259 10.682 10.682C11.5259 9.83801 12 8.69336 12 7.5C12 6.30664 11.5259 5.1619 10.682 4.318C9.83801 3.47409 8.69336 3 7.5 3C6.30664 3 5.1619 3.47412 4.318 4.318C3.47409 5.16199 3 6.30664 3 7.5C3 8.69336 3.47412 9.8381 4.318 10.682C5.16199 11.5259 6.30664 12 7.5 12ZM8.99516 7.90406C8.933 7.96527 8.90499 8.05308 8.92024 8.13887L9.22972 9.89769L7.64332 9.07305H7.6432C7.56615 9.03264 7.47409 9.03264 7.39704 9.07305L5.81941 9.90948L6.11485 8.14892H6.11473C6.12927 8.063 6.10043 7.97532 6.03768 7.91469L4.75254 6.67266L6.52034 6.40794C6.60637 6.39506 6.68058 6.34058 6.71887 6.26235L7.5026 4.65683L8.30077 6.25727C8.33965 6.33538 8.41457 6.38927 8.50084 6.40133L10.2701 6.64985L8.99516 7.90406Z" fill="#4CBBEC"/>
<path d="M1.89875 9.05519V11.464C1.89875 11.5975 1.95234 11.7256 2.0477 11.82C2.14306 11.9144 2.27249 11.9674 2.40736 11.9674L3.58103 11.9694L2.42087 15.4179C2.3892 15.5119 2.41622 15.6157 2.49001 15.6827C2.5637 15.7498 2.6703 15.7678 2.76237 15.7288L4.38403 15.0409L5.27965 15.9271H5.27976C5.32744 15.9738 5.39193 16 5.45903 15.9998C5.56506 16 5.65997 15.935 5.69732 15.8367L6.52993 13.6403L6.62428 13.7337C6.71987 13.8282 6.84952 13.8813 6.98472 13.8813C7.11982 13.8813 7.24947 13.8282 7.34517 13.7337L7.43974 13.6401L8.27235 15.8367C8.30278 15.9169 8.37225 15.9762 8.45672 15.9943C8.5413 16.0124 8.62929 15.9867 8.69048 15.9261L9.5861 15.0399L11.2078 15.7278C11.2998 15.7668 11.4064 15.7488 11.4802 15.6817C11.5539 15.6146 11.581 15.5109 11.5494 15.4168L10.3892 11.9701L11.5623 11.9675C11.6972 11.9675 11.8266 11.9145 11.922 11.8201C12.0173 11.7257 12.0709 11.5976 12.0709 11.4641V9.0571L13.851 7.29519C13.9464 7.20046 14 7.07203 14 6.93832C14 6.80449 13.9464 6.67617 13.851 6.58133L12.0709 4.83179V2.40791C12.0709 2.27442 12.0173 2.14632 11.922 2.05193C11.8266 1.95755 11.6972 1.90451 11.5623 1.90451H9.12527L7.34513 0.142593C7.24794 0.0511257 7.11886 0 6.98468 0C6.85049 0 6.72141 0.0511257 6.62424 0.142593L4.84613 1.90451H2.4073C2.27242 1.90451 2.143 1.95755 2.04764 2.05193C1.95227 2.14632 1.89869 2.27442 1.89869 2.40791V4.8328L0.151591 6.56707C0.0559982 6.66011 0.00150423 6.78685 3.07114e-05 6.91968C-0.00144516 7.05238 0.0503252 7.18026 0.143985 7.27531L1.89875 9.05519ZM2.26419 5.18329C2.3557 5.08868 2.4069 4.96272 2.40735 4.83169V2.40781H4.84619C4.98061 2.4077 5.10946 2.355 5.20472 2.26106L6.98634 0.499145L8.76648 2.26106C8.86139 2.35455 8.98968 2.40736 9.12352 2.40781H11.5624V4.83169C11.5633 4.9654 11.6167 5.0935 11.7114 5.1889L13.4916 6.93925L11.7114 8.70117C11.6164 8.79511 11.5628 8.92242 11.5624 9.05525V11.4641L10.0574 11.4671L9.12352 11.4691C8.9891 11.4692 8.86025 11.5219 8.76499 11.6159L6.98337 13.3778L6.60953 13.0078L5.20472 11.6161C5.10969 11.5223 4.98106 11.4695 4.84689 11.4691L3.91311 11.4671L2.40735 11.4641V9.05525C2.40758 8.9239 2.35615 8.79749 2.26397 8.70287L0.509258 6.92433L2.26419 5.18329Z" fill="#4CBBEC"/>
</svg>
