<svg width="17" height="17" viewBox="0 0 17 17" fill="none" xmlns="http://www.w3.org/2000/svg">
<path d="M10.957 7.59856L10.957 7.59864L9.98134 8.74963C10.7604 8.96332 11.1777 9.75346 11.1777 10.4274C11.1777 11.2148 10.6082 12.161 9.55745 12.161C8.77145 12.161 8.25474 11.6313 8.04433 11.0349L7.99962 11.0876L7.99956 11.0877C7.64498 11.5058 7.01815 11.5578 6.59985 11.2023C6.18177 10.8472 6.13099 10.2206 6.48519 9.80258L6.48526 9.8025L7.46086 8.65152C6.6818 8.43789 6.26434 7.64772 6.26434 6.97367C6.26434 6.18627 6.83409 5.24008 7.88458 5.24008C8.6707 5.24008 9.18747 5.76977 9.39788 6.36629L9.44259 6.31354L9.44265 6.31347C9.79719 5.89536 10.4239 5.84338 10.8422 6.1987L10.957 7.59856ZM10.957 7.59856C11.3112 7.18051 11.2604 6.55394 10.8424 6.19882L10.957 7.59856ZM2.81348 2.78613H14.6287V5.57502C13.4623 6.13139 12.6571 7.3221 12.6571 8.70056C12.6571 10.079 13.4623 11.2698 14.6287 11.8261V14.615H2.81348V11.8261C3.97984 11.2697 4.78509 10.079 4.78509 8.70056C4.78509 7.32212 3.97986 6.13135 2.81348 5.57502V2.78613ZM14.6358 2.78613C14.6358 2.78613 14.6358 2.78613 14.6357 2.78613L14.6358 2.78613Z" stroke="#4CBBEC"/>
<path d="M1.33496 6.72035V6.69426L1.49929 6.72766C1.44511 6.72301 1.39031 6.72055 1.33496 6.72035ZM1.33496 10.6808C1.3903 10.6806 1.4451 10.6781 1.49928 10.6735L1.33496 10.7069V10.6808ZM16.1077 10.6808V10.7069L15.9433 10.6735C15.9975 10.6781 16.0523 10.6806 16.1077 10.6808ZM15.9433 6.72766L16.1077 6.69426V6.72035C16.0523 6.72055 15.9975 6.72301 15.9433 6.72766ZM16.1148 10.6808C16.1148 10.6808 16.1147 10.6808 16.1147 10.6808H16.1148ZM1.32789 6.72034C1.32789 6.72034 1.32789 6.72034 1.32791 6.72034H1.32789Z" stroke="#4CBBEC"/>
</svg>
