<svg width="145" height="145" viewBox="0 0 145 145" fill="none" xmlns="http://www.w3.org/2000/svg">
<path d="M132.779 32.5914H113.84L110.48 11.3019C109.869 7.72463 108.189 4.48985 105.439 2.44514C102.691 0.401715 99.4827 -0.450078 96.2746 0.230669L10.1302 17.0923C3.4094 18.4549 -1.01947 25.438 0.202712 32.931L13.4907 116.556C14.1012 120.133 15.9347 123.199 18.531 125.413C20.6693 127.117 22.9599 127.967 25.5576 127.967C26.3215 127.967 27.0854 127.967 27.6958 127.797L33.0422 126.776V131.374C33.0422 138.869 38.5408 145 45.2616 145H132.781C139.501 145 145 138.869 145 131.374L144.999 46.3867C144.999 38.7228 139.5 32.5914 132.78 32.5914L132.779 32.5914ZM125.754 61.8857C125.754 66.6546 122.393 70.4015 118.117 70.4015C113.84 70.4015 110.48 66.6546 110.48 61.8857C110.48 57.1169 113.84 53.3699 118.117 53.3699C122.24 53.3699 125.754 57.2869 125.754 61.8857ZM25.71 116.557C24.9461 116.727 24.3356 116.387 24.1822 116.216C23.8764 116.046 23.4183 115.535 23.2659 114.684L10.1304 31.0585C9.97808 29.6958 10.7409 28.5042 11.8106 28.3331L97.9551 11.3015H98.2608C98.8713 11.3015 99.3305 11.6425 99.4829 11.8124C99.7887 11.9823 100.247 12.4931 100.399 13.345L103.454 32.761H45.2603C38.5396 32.761 33.041 38.8924 33.041 46.3866V115.194L25.71 116.557ZM132.78 133.589H45.2605C44.0385 133.589 43.1222 132.567 43.1222 131.204V108.041L71.6843 71.4235C72.4482 70.4018 73.8226 70.4018 74.5866 71.4235L92.3046 93.9046C92.6103 94.2456 92.7627 94.7564 92.6103 95.2673L90.3197 106.848C90.1673 107.7 91.0836 108.211 91.5417 107.529L109.26 85.8985C109.87 85.2177 110.787 85.2177 111.246 85.8985L134.767 114.682V131.203C134.766 132.567 133.849 133.588 132.78 133.588L132.78 133.589Z" fill="#4CBBEC"/>
</svg>
