<svg width="37" height="29" viewBox="0 0 37 29" fill="none" xmlns="http://www.w3.org/2000/svg">
<path d="M32.2602 21.0548V21.5548H32.7602H36.2287H36.229C36.3625 21.5548 36.4999 21.6742 36.5 21.8496V28.2056C36.5 28.3808 36.3629 28.5 36.2292 28.5H27.7502C27.6166 28.5 27.4795 28.3808 27.4795 28.2056V21.8493C27.4795 21.674 27.6166 21.5548 27.7502 21.5548H31.2188H31.7188V21.0548V16.2878C31.7188 14.715 30.4683 13.4041 28.9062 13.4041H19.271H18.771V13.9041V21.0547V21.5547H19.271H22.7395C22.8732 21.5547 23.0103 21.674 23.0103 21.8492V28.2055C23.0103 28.3807 22.8732 28.4999 22.7395 28.4999H14.2605C14.1269 28.4999 13.9897 28.3807 13.9897 28.2055V21.8492C13.9897 21.674 14.1268 21.5547 14.2605 21.5547H17.729H18.229V21.0547V13.9041V13.4041H17.729H8.09381C6.53157 13.4041 5.28121 14.7151 5.28121 16.2878V21.0548V21.5548H5.78121H9.24976C9.3834 21.5548 9.52051 21.674 9.52051 21.8493V28.2056C9.52051 28.3808 9.38341 28.5 9.24976 28.5H0.770751C0.637106 28.5 0.5 28.3808 0.5 28.2056V21.8493C0.5 21.674 0.637102 21.5548 0.770751 21.5548H4.23957H4.73957V21.0548V16.2878C4.73957 14.3645 6.26415 12.8152 8.09365 12.8152L17.7289 12.8155L18.2289 12.8155V12.3155V7.94546V7.44546H17.7289H14.2604C14.1267 7.44546 13.9896 7.32624 13.9896 7.15102V0.794725C13.9896 0.619499 14.1267 0.500277 14.2604 0.500277H14.2604L22.7394 0.5C22.873 0.5 23.0101 0.61922 23.0101 0.794447V7.15074C23.0101 7.32596 22.873 7.44519 22.7394 7.44519H19.2708H18.7708V7.94519V12.3152V12.8152H19.2708H28.9061C30.7356 12.8152 32.2602 14.3645 32.2602 16.2878V21.0548ZM8.47922 27.9111H8.97922V27.4111V22.6441V22.1441H8.47922H1.54184H1.04184V22.6441V27.4111V27.9111H1.54184H8.47922ZM22.4685 22.6441V22.1441H21.9685H15.0312H14.5312V22.6441V27.4111V27.9111H15.0312H21.9685H22.4685V27.4111V22.6441ZM14.5312 6.35643V6.85643H15.0312H21.9685H22.4685V6.35643V1.58939V1.08939H21.9685H15.0312H14.5312V1.58939V6.35643ZM35.4579 27.9112H35.9579V27.4112V22.6441V22.1441H35.4579H28.5205H28.0205V22.6441V27.4112V27.9112H28.5205H35.4579Z" stroke="#4CBBEC"/>
</svg>
