<svg width="39" height="34" viewBox="0 0 39 34" fill="none" xmlns="http://www.w3.org/2000/svg">
<path d="M8.08789 10.0366C8.08789 7.05703 10.6665 4.5 13.9997 4.5C17.3327 4.5 19.9115 7.05797 19.9115 10.0366C19.9115 13.0153 17.3327 15.5732 13.9997 15.5732C10.6666 15.5732 8.08789 13.0158 8.08789 10.0366Z" stroke="#4CBBEC" stroke-width="3"/>
<path d="M1.5066 31.5406L1.50814 31.4921L1.50653 31.4436C1.50534 31.4076 1.50309 31.3756 1.50059 31.3483C1.50051 31.3474 1.50043 31.3465 1.50034 31.3456C1.55004 25.4763 6.97592 20.4336 14 20.4336C21.0242 20.4336 26.4501 25.4761 26.4997 31.3459C26.4995 31.3472 26.4994 31.3486 26.4993 31.35C26.4969 31.3766 26.4947 31.4082 26.4935 31.4439L26.4918 31.4928L26.4934 31.5417C26.4938 31.5535 26.4943 31.5649 26.4949 31.5759C26.4918 31.5808 26.4869 31.587 26.4793 31.5944C26.4553 31.6173 26.4136 31.6398 26.3529 31.6398H1.64706C1.58641 31.6398 1.54468 31.6173 1.52073 31.5944C1.51304 31.587 1.50818 31.5808 1.50511 31.5758C1.50571 31.5645 1.50622 31.5528 1.5066 31.5406ZM1.48461 31.2236C1.48457 31.2234 1.48459 31.2235 1.48466 31.2239L1.48461 31.2236ZM26.5151 31.7619C26.5152 31.7623 26.5151 31.7622 26.5151 31.7616L26.5151 31.7619ZM26.5 31.5627C26.5 31.562 26.5 31.5613 26.5 31.5605L26.5 31.5607C26.5 31.5609 26.5001 31.5616 26.5 31.5627ZM1.48504 31.761L1.48507 31.7608L1.48504 31.761Z" stroke="#4CBBEC" stroke-width="3"/>
<path d="M32.3584 3.86194L34.3064 5.80994L25.3474 14.7689L23.3994 12.8209L32.3584 3.86194ZM25.2666 3.62854L34.7822 13.1441L32.6906 15.2357L23.175 5.72017L25.2666 3.62854Z" fill="#4CBBEC"/>
</svg>
