<svg width="16" height="11" viewBox="0 0 16 11" fill="none" xmlns="http://www.w3.org/2000/svg">
<path d="M1.80563 1.91338L1.55564 1.91155C1.55369 2.17868 1.64338 2.44155 1.81384 2.6413L1.81385 2.64131C1.82526 2.65468 1.83698 2.6677 1.849 2.68036C1.67483 2.74332 1.51748 2.8532 1.39097 2.99925L1.39097 2.99925C1.33741 3.06108 1.29033 3.12822 1.25 3.19941V1.25H1.76948C1.63054 1.43852 1.55651 1.67339 1.55564 1.91247L1.80563 1.91338ZM1.80563 1.91338C1.80641 1.70177 1.87975 1.49909 2.00955 1.34984L2.16665 2.62025C2.10722 2.58304 2.05232 2.53562 2.00401 2.47902C1.87537 2.32827 1.80409 2.12485 1.80563 1.91338ZM3.21849 1.25H3.11349H3.11334H2.86899C2.911 1.28119 2.95026 1.31777 2.98597 1.35936C3.11487 1.50966 3.18667 1.71293 3.18577 1.92439C3.18474 2.13585 3.11088 2.33822 2.98056 2.48691C2.93395 2.53998 2.8815 2.58465 2.825 2.62008C2.93534 2.622 3.04279 2.64203 3.14457 2.67806M3.21849 1.25C3.36162 1.44156 3.43681 1.68169 3.43577 1.92546L3.43577 1.92561C3.43446 2.19278 3.34144 2.45446 3.16857 2.65169L3.16839 2.65189C3.16059 2.66077 3.15265 2.6695 3.14457 2.67806M3.21849 1.25C3.20486 1.23175 3.19061 1.21394 3.17574 1.19661L3.17565 1.1965C3.10838 1.11816 3.03034 1.05181 2.94454 1L3.75 1L3.74999 1.25M3.21849 1.25H3.74999M3.14457 2.67806C3.32133 2.74062 3.48099 2.85142 3.609 2.99934M3.14457 2.67806C3.06829 2.7589 2.97997 2.8252 2.88344 2.87378C3.08539 2.89429 3.27557 2.99608 3.41995 3.16293M3.609 2.99934C3.66253 3.06115 3.70959 3.12827 3.74991 3.19943M3.609 2.99934L3.41995 3.16293M3.609 2.99934C3.60897 2.99931 3.60895 2.99928 3.60892 2.99925L3.41995 3.16293M3.41995 3.16293C3.58237 3.35043 3.67363 3.60476 3.67363 3.86994V3.75H3.74988L3.74991 3.19943M3.74991 3.19943C3.84436 3.36616 3.90175 3.55508 3.91849 3.75H3.99987V4L3.99999 1.25H3.74999M3.74991 3.19943L3.74999 1.25" stroke="#4CBBEC" stroke-width="0.5"/>
<path d="M3.74991 8.41669L3.74998 7.25H3.33149C3.3992 7.3582 3.43858 7.48261 3.43858 7.61592C3.43858 7.78776 3.37313 7.94473 3.266 8.07126C3.37719 8.11227 3.48128 8.1687 3.57318 8.24004L3.74991 8.41669ZM3.74991 8.41669C3.69978 8.35142 3.64025 8.29208 3.57327 8.24011L3.74991 8.41669ZM2.01148 7.23807L1.85835 7.04045C1.85832 7.04048 1.85829 7.0405 1.85825 7.04053C1.85822 7.04055 1.85819 7.04058 1.85816 7.0406L2.01148 7.23807ZM2.01148 7.23807C2.00642 7.24199 2.00144 7.24597 1.99655 7.25L2.01148 7.23807ZM1.42671 8.24004L1.42671 8.24004C1.3597 8.29202 1.30015 8.35137 1.25 8.41667V7.25H1.66666C1.59889 7.3578 1.55919 7.48173 1.55847 7.61455H1.55847V7.61592C1.55847 7.78814 1.6242 7.94542 1.73176 8.0721C1.62139 8.11304 1.51805 8.16919 1.42671 8.24004Z" stroke="#4CBBEC" stroke-width="0.5"/>
<mask id="path-3-inside-1_628_12334" fill="white">
<path d="M2.90343 3.24952H2.35377C2.21126 3.24952 2.0957 3.36495 2.0957 3.50756V3.61331H3.16149V3.51263C3.16288 3.44339 3.13626 3.37635 3.08776 3.32681C3.03926 3.27739 2.97279 3.2494 2.90343 3.24951V3.24952Z"/>
</mask>
<path d="M2.90343 3.24952V3.74952H3.40343V3.24952H2.90343ZM2.0957 3.61331H1.5957V4.11331H2.0957V3.61331ZM3.16149 3.61331V4.11331H3.66149V3.61331H3.16149ZM3.16149 3.51263L2.66149 3.50265V3.51263H3.16149ZM3.08776 3.32681L3.44502 2.97701L3.44462 2.97659L3.08776 3.32681ZM2.90343 3.24951L2.9026 2.74951L2.40343 2.75034V3.24951H2.90343ZM2.90343 2.74952H2.35377V3.74952H2.90343V2.74952ZM2.35377 2.74952C1.93529 2.74952 1.5957 3.08863 1.5957 3.50756H2.5957C2.5957 3.64127 2.48722 3.74952 2.35377 3.74952V2.74952ZM1.5957 3.50756V3.61331H2.5957V3.50756H1.5957ZM2.0957 4.11331H3.16149V3.11331H2.0957V4.11331ZM3.66149 3.61331V3.51263H2.66149V3.61331H3.66149ZM3.6614 3.52261C3.66546 3.31892 3.58727 3.12229 3.44502 2.97701L2.7305 3.67662C2.68525 3.63041 2.66029 3.56787 2.66159 3.50265L3.6614 3.52261ZM3.44462 2.97659C3.30235 2.83163 3.10713 2.74917 2.9026 2.74951L2.90426 3.74951C2.83844 3.74962 2.77617 3.72315 2.7309 3.67703L3.44462 2.97659ZM2.40343 3.24951V3.24952H3.40343V3.24951H2.40343Z" fill="#4CBBEC" mask="url(#path-3-inside-1_628_12334)"/>
<mask id="path-5-inside-2_628_12334" fill="white">
<path d="M2.90343 8.93005H2.35377C2.21126 8.93005 2.0957 9.0456 2.0957 9.1881V9.28878H3.1615V9.1881C3.1615 9.11967 3.13431 9.05412 3.08592 9.00562C3.03753 8.95724 2.97186 8.93005 2.90343 8.93005Z"/>
</mask>
<path d="M2.0957 9.28878H1.5957V9.78878H2.0957V9.28878ZM3.1615 9.28878V9.78878H3.6615V9.28878H3.1615ZM3.08592 9.00562L3.43987 8.65247L3.43946 8.65205L3.08592 9.00562ZM2.90343 8.43005H2.35377V9.43005H2.90343V8.43005ZM2.35377 8.43005C1.93516 8.43005 1.5957 8.76941 1.5957 9.1881H2.5957C2.5957 9.32178 2.48736 9.43005 2.35377 9.43005V8.43005ZM1.5957 9.1881V9.28878H2.5957V9.1881H1.5957ZM2.0957 9.78878H3.1615V8.78878H2.0957V9.78878ZM3.6615 9.28878V9.1881H2.6615V9.28878H3.6615ZM3.6615 9.1881C3.6615 8.98677 3.58144 8.79436 3.43987 8.65247L2.73196 9.35877C2.68717 9.31388 2.6615 9.25257 2.6615 9.1881H3.6615ZM3.43946 8.65205C3.29726 8.50987 3.1044 8.43005 2.90343 8.43005V9.43005C2.83933 9.43005 2.77781 9.40462 2.73238 9.35919L3.43946 8.65205Z" fill="#4CBBEC" mask="url(#path-5-inside-2_628_12334)"/>
<mask id="path-7-inside-3_628_12334" fill="white">
<path d="M2.90343 6.09729H2.35377C2.21126 6.09729 2.0957 6.21284 2.0957 6.35535V6.45086H3.1615V6.35017C3.15873 6.20973 3.04398 6.09729 2.90343 6.09729Z"/>
</mask>
<path d="M2.0957 6.45086H1.5957V6.95086H2.0957V6.45086ZM3.1615 6.45086V6.95086H3.6615V6.45086H3.1615ZM3.1615 6.35017H3.66159L3.6614 6.34032L3.1615 6.35017ZM2.90343 5.59729H2.35377V6.59729H2.90343V5.59729ZM2.35377 5.59729C1.93512 5.59729 1.5957 5.93669 1.5957 6.35535H2.5957C2.5957 6.48899 2.48739 6.59729 2.35377 6.59729V5.59729ZM1.5957 6.35535V6.45086H2.5957V6.35535H1.5957ZM2.0957 6.95086H3.1615V5.95086H2.0957V6.95086ZM3.6615 6.45086V6.35017H2.6615V6.45086H3.6615ZM3.6614 6.34032C3.65327 5.92735 3.316 5.59729 2.90343 5.59729V6.59729C2.77197 6.59729 2.66419 6.49212 2.66159 6.36001L3.6614 6.34032Z" fill="#4CBBEC" mask="url(#path-7-inside-3_628_12334)"/>
<path d="M3.3548 4.37866C3.44665 4.51879 3.49664 4.68371 3.49664 4.85371C3.49664 5.05554 3.42625 5.25012 3.29905 5.40462C3.42171 5.4556 3.53446 5.53045 3.6302 5.62625C3.63023 5.62628 3.63026 5.62631 3.63028 5.62633L3.45343 5.80303L3.3548 4.37866ZM3.3548 4.37866H3.72185L3.72178 5.73122L3.3548 4.37866ZM1.96138 5.40545C1.83946 5.45641 1.72738 5.53098 1.6321 5.62625L1.6321 5.62625C1.59904 5.6593 1.56848 5.69438 1.54053 5.7312V4.37866H1.90949C1.81679 4.51749 1.7653 4.68121 1.76314 4.85052L1.76312 4.85052V4.85371C1.76312 5.05588 1.83374 5.25081 1.96138 5.40545Z" stroke="#4CBBEC" stroke-width="0.5"/>
<path d="M8.2593 4.66796C8.37082 4.77946 8.49469 4.8758 8.6277 4.95564H8.61893L8.60715 4.95561C7.96978 4.95406 7.35789 5.20623 6.90662 5.6563L6.90659 5.65633C6.45533 6.10653 6.20171 6.71775 6.20171 7.35507V8.67108C6.20171 8.81664 6.26294 8.94791 6.36104 9.04053H4.73535V3.87167V1.54126H8.89326C8.6585 1.63675 8.44275 1.77872 8.26004 1.96135L8.26001 1.96138C7.90121 2.32013 7.69931 2.80658 7.69852 3.31394V3.31433C7.69852 3.82197 7.9002 4.30889 8.2593 4.66796L8.2593 4.66796ZM10.5983 4.95564C10.7314 4.8758 10.8552 4.77946 10.9667 4.66796L10.79 4.49117L10.9667 4.66796C11.3258 4.30889 11.5275 3.82197 11.5275 3.31433C11.5275 2.80658 11.3258 2.31966 10.9667 1.96058L10.7922 2.13519L10.9667 1.96058C10.7844 1.77831 10.5692 1.6366 10.3349 1.54126H14.46V9.04053H12.8598C12.8634 9.03719 12.8669 9.03379 12.8703 9.03034C12.9656 8.93505 13.0191 8.80579 13.0191 8.67108V7.35254V7.35223C13.0183 6.71637 12.7653 6.10668 12.3152 5.65734C11.8653 5.20807 11.2554 4.95564 10.6195 4.95564H10.5983Z" stroke="#4CBBEC" stroke-width="0.5"/>
<path d="M14.7097 0.25H1.29032C1.01445 0.25 0.749801 0.359595 0.554576 0.554673C0.359554 0.749822 0.25 1.01441 0.25 1.2902V9.28946C0.25 9.56523 0.359559 9.8298 0.554592 10.025C0.554625 10.025 0.554658 10.0251 0.554692 10.0251M14.7097 0.25L15.6221 10.2018C15.3801 10.4437 15.0519 10.5797 14.7097 10.5797H1.29032C0.948144 10.5797 0.619915 10.4437 0.377865 10.2018L0.554692 10.0251M14.7097 0.25C14.9855 0.25 15.2501 0.359553 15.4453 0.554557C15.6404 0.749763 15.75 1.01438 15.75 1.2902V9.28946C15.75 9.56525 15.6404 9.82983 15.4454 10.025M14.7097 0.25L15.4454 10.025M0.554692 10.0251C0.74986 10.2201 1.01448 10.3297 1.29032 10.3297H14.7097C14.9855 10.3297 15.2502 10.2201 15.4454 10.025M0.554692 10.0251L15.4454 10.025M15.2514 9.83118C15.3951 9.68752 15.4758 9.49259 15.4758 9.28946L15.4759 1.2902C15.4759 1.08707 15.3952 0.892142 15.2515 0.748475C15.1078 0.604807 14.9129 0.524121 14.7098 0.524121H1.2904C1.08726 0.524121 0.892331 0.604807 0.748651 0.748474C0.60497 0.892142 0.524267 1.08707 0.524267 1.2902V9.28946C0.524267 9.49259 0.60497 9.68752 0.74865 9.83118C0.892331 9.97485 1.08727 10.0555 1.2904 10.0555H4.11539C4.1878 10.0747 4.26396 10.0747 4.33637 10.0555H14.7097C14.9128 10.0555 15.1077 9.97485 15.2514 9.83118Z" stroke="#4CBBEC" stroke-width="0.5"/>
<path d="M11.6164 6.3978L11.6164 6.39775C11.4116 6.18484 11.1452 6.0443 10.8572 5.99405C10.7291 6.29555 10.4945 6.54293 10.1942 6.68587L11.6164 6.3978ZM11.6164 6.3978C11.8642 6.65525 12.0026 6.99846 12.0029 7.35576M11.6164 6.3978L12.0029 7.35576M12.0029 7.35576V8.1661H7.21777V7.3557C7.2181 6.99781 7.35721 6.65394 7.60583 6.39636C7.81164 6.18312 8.07928 6.04282 8.36839 5.99342C8.49645 6.29521 8.73121 6.54284 9.0317 6.68587L12.0029 7.35576ZM9.03177 6.6859C9.39939 6.86098 9.82648 6.86098 10.1941 6.6859L9.03177 6.6859Z" stroke="#4CBBEC" stroke-width="0.5"/>
<mask id="path-13-inside-4_628_12334" fill="white">
<path d="M9.61371 6.04832C9.72154 6.04647 9.82685 6.01491 9.91796 5.95708C10.009 5.89925 10.0824 5.81746 10.1298 5.72058H9.08984C9.13789 5.81861 9.21242 5.90121 9.30505 5.95915C9.39756 6.01698 9.50448 6.04785 9.6137 6.04831L9.61371 6.04832Z"/>
</mask>
<path d="M9.61371 6.04832L9.50687 6.53677L9.56389 6.54924L9.62226 6.54824L9.61371 6.04832ZM9.91796 5.95708L10.1859 6.37923L10.1861 6.3791L9.91796 5.95708ZM10.1298 5.72058L10.5788 5.94057L10.9316 5.22058H10.1298V5.72058ZM9.08984 5.72058V5.22058H8.288L8.64086 5.94061L9.08984 5.72058ZM9.30505 5.95915L9.03989 6.38305L9.04002 6.38314L9.30505 5.95915ZM9.6137 6.04831L9.72054 5.55986L9.66878 5.54854L9.6158 5.54832L9.6137 6.04831ZM9.62226 6.54824C9.82206 6.54483 10.0171 6.48635 10.1859 6.37923L9.65003 5.53493C9.63658 5.54347 9.62103 5.54812 9.60517 5.54839L9.62226 6.54824ZM10.1861 6.3791C10.3545 6.27207 10.4907 6.1205 10.5788 5.94057L9.68083 5.50059C9.67405 5.51442 9.66341 5.52643 9.64982 5.53506L10.1861 6.3791ZM10.1298 5.22058H9.08984V6.22058H10.1298V5.22058ZM8.64086 5.94061C8.73004 6.12258 8.86832 6.27573 9.03989 6.38305L9.57021 5.53526C9.55652 5.52669 9.54573 5.51464 9.53883 5.50055L8.64086 5.94061ZM9.04002 6.38314C9.21154 6.49035 9.40953 6.54746 9.61159 6.54831L9.6158 5.54832C9.59942 5.54825 9.58358 5.54361 9.57008 5.53517L9.04002 6.38314ZM9.50686 6.53677L9.50687 6.53677L9.72055 5.55987L9.72054 5.55986L9.50686 6.53677Z" fill="#4CBBEC" mask="url(#path-13-inside-4_628_12334)"/>
<mask id="path-15-inside-5_628_12334" fill="white">
<path d="M10.7616 3.31261C10.7616 3.94678 10.2475 4.46092 9.61325 4.46092C8.97903 4.46092 8.46484 3.94678 8.46484 3.31261C8.46484 2.67833 8.97903 2.16431 9.61325 2.16431C10.2475 2.16431 10.7616 2.67833 10.7616 3.31261Z"/>
</mask>
<path d="M10.2616 3.31261C10.2616 3.6706 9.97136 3.96092 9.61325 3.96092V4.96092C10.5236 4.96092 11.2616 4.22296 11.2616 3.31261H10.2616ZM9.61325 3.96092C9.25513 3.96092 8.96484 3.6706 8.96484 3.31261H7.96484C7.96484 4.22296 8.70292 4.96092 9.61325 4.96092V3.96092ZM8.96484 3.31261C8.96484 2.95454 9.2551 2.66431 9.61325 2.66431V1.66431C8.70296 1.66431 7.96484 2.40211 7.96484 3.31261H8.96484ZM9.61325 2.66431C9.9714 2.66431 10.2616 2.95454 10.2616 3.31261H11.2616C11.2616 2.40211 10.5235 1.66431 9.61325 1.66431V2.66431Z" fill="#4CBBEC" mask="url(#path-15-inside-5_628_12334)"/>
</svg>
