<svg width="35" height="31" viewBox="0 0 35 31" fill="none" xmlns="http://www.w3.org/2000/svg">
<path d="M1.50023 9.88957H1.50026L1.5002 9.87979C1.46939 5.15361 5.02925 1.5 9.22386 1.5C12.1854 1.5 14.8354 3.34506 16.1198 6.13384L17.4822 9.09203L18.8447 6.13384C20.1291 3.34506 22.7791 1.5 25.7406 1.5C29.9341 1.5 33.5 5.15436 33.5 9.88957C33.5 15.6798 29.5465 20.3548 25.2315 23.7069C23.1057 25.3584 20.9713 26.6253 19.3642 27.4801C18.5625 27.9065 17.8966 28.2279 17.4349 28.4412C17.3906 28.4616 17.3482 28.4811 17.3078 28.4995C17.2722 28.483 17.235 28.4657 17.1964 28.4476C16.7459 28.2365 16.0959 27.9181 15.3131 27.495C13.7439 26.6469 11.6595 25.3881 9.58345 23.743C5.37554 20.4086 1.50023 15.7321 1.50023 9.88957Z" stroke="#4CBBEC" stroke-width="3"/>
</svg>
