<?xml version="1.0" encoding="utf-8"?>
<!-- Generator: Adobe Illustrator 16.0.0, SVG Export Plug-In . SVG Version: 6.00 Build 0)  -->
<!DOCTYPE svg PUBLIC "-//W3C//DTD SVG 1.1//EN" "http://www.w3.org/Graphics/SVG/1.1/DTD/svg11.dtd">
<svg version="1.1" id="Layer_1" xmlns="http://www.w3.org/2000/svg" xmlns:xlink="http://www.w3.org/1999/xlink" x="0px" y="0px"
	 width="30px" height="31px" viewBox="0 0 30 31" enable-background="new 0 0 30 31" xml:space="preserve">
<path fill="none" stroke="#4CBBEC" d="M3.77,3.748l-0.5-0.004C3.267,4.129,3.398,4.501,3.638,4.799
	c-0.222,0.097-0.425,0.235-0.6,0.409l0,0C2.997,5.25,2.957,5.293,2.92,5.337V2.922h0.573C3.349,3.17,3.271,3.454,3.27,3.746
	L3.77,3.748z M4.103,4.569 M6.829,5.208C6.652,5.031,6.444,4.891,6.218,4.794c0.233-0.291,0.362-0.652,0.365-1.028v0
	c0.001-0.299-0.078-0.59-0.226-0.844h0.59v2.416C6.91,5.293,6.871,5.25,6.829,5.208z"/>
<path fill="none" stroke="#4CBBEC" d="M3.038,15.854L3.038,15.854c-0.042,0.042-0.081,0.084-0.118,0.129v-2.382H3.5
	c-0.145,0.25-0.224,0.535-0.225,0.829l0,0v0.002c0,0.371,0.125,0.729,0.35,1.019C3.408,15.547,3.209,15.683,3.038,15.854z
	 M6.829,15.854c-0.172-0.172-0.373-0.309-0.59-0.405c0.225-0.289,0.349-0.646,0.349-1.017c0-0.294-0.078-0.581-0.223-0.831h0.583
	v2.382C6.91,15.938,6.871,15.896,6.829,15.854z"/>
<defs>
	<filter id="Adobe_OpacityMaskFilter" filterUnits="userSpaceOnUse" x="2.93" y="5.094" width="3.999" height="2.682">
		<feColorMatrix  type="matrix" values="1 0 0 0 0  0 1 0 0 0  0 0 1 0 0  0 0 0 1 0"/>
	</filter>
</defs>
<mask maskUnits="userSpaceOnUse" x="2.93" y="5.094" width="3.999" height="2.682" id="path-3-inside-1_0_1">
	<path fill="#FFFFFF" filter="url(#Adobe_OpacityMaskFilter)" d="M5.444,6.094H4.414c-0.267,0-0.484,0.216-0.484,0.484v0.198h1.999
		V6.587c0.002-0.13-0.047-0.255-0.138-0.348C5.699,6.146,5.574,6.094,5.444,6.094L5.444,6.094z"/>
</mask>
<path mask="url(#path-3-inside-1_0_1)" fill="#4CBBEC" d="M5.444,6.094v1h1v-1H5.444z M3.93,6.776h-1v1h1V6.776z M5.928,6.776v1h1
	v-1H5.928z M5.928,6.587l-1-0.02v0.01v0.01H5.928z M5.79,6.239l0.714-0.7L6.503,5.538L5.79,6.239z M5.444,6.094l-0.002-1
	L4.444,5.095v0.999H5.444z M5.444,5.094H4.414v2h1.031V5.094z M4.414,5.094c-0.819,0-1.484,0.664-1.484,1.484h2
	c0,0.285-0.231,0.516-0.516,0.516V5.094z M2.93,6.578v0.198h2V6.578H2.93z M3.93,7.776h1.999v-2H3.93V7.776z M6.928,6.776V6.587h-2
	v0.189H6.928z M6.928,6.607c0.008-0.398-0.145-0.784-0.423-1.068L5.075,6.938C4.979,6.84,4.925,6.706,4.928,6.567L6.928,6.607z
	 M6.503,5.538C6.225,5.254,5.843,5.093,5.442,5.094l0.003,2c-0.14,0-0.273-0.056-0.37-0.155L6.503,5.538z M4.444,6.094L4.444,6.094
	h2l0,0H4.444z"/>
<defs>
	<filter id="Adobe_OpacityMaskFilter_1_" filterUnits="userSpaceOnUse" x="2.93" y="15.746" width="3.999" height="2.673">
		<feColorMatrix  type="matrix" values="1 0 0 0 0  0 1 0 0 0  0 0 1 0 0  0 0 0 1 0"/>
	</filter>
</defs>
<mask maskUnits="userSpaceOnUse" x="2.93" y="15.746" width="3.999" height="2.673" id="path-5-inside-2_0_1">
	<path fill="#FFFFFF" filter="url(#Adobe_OpacityMaskFilter_1_)" d="M5.444,16.746H4.414c-0.267,0-0.484,0.217-0.484,0.484v0.188
		h1.999V17.23c0-0.129-0.051-0.252-0.142-0.343C5.696,16.797,5.572,16.746,5.444,16.746z"/>
</mask>
<path mask="url(#path-5-inside-2_0_1)" fill="#4CBBEC" d="M3.93,17.419h-1v1h1V17.419z M5.928,17.419v1h1v-1H5.928z M5.786,16.888
	l0.708-0.706l0-0.001L5.786,16.888z M5.444,15.746H4.414v2h1.031V15.746z M4.414,15.746c-0.819,0-1.484,0.664-1.484,1.484h2
	c0,0.285-0.231,0.516-0.516,0.516V15.746z M2.93,17.23v0.188h2V17.23H2.93z M3.93,18.419h1.999v-2H3.93V18.419z M6.928,17.419V17.23
	h-2v0.188H6.928z M6.928,17.23c0-0.395-0.157-0.771-0.434-1.049l-1.416,1.412c-0.096-0.096-0.15-0.227-0.15-0.363H6.928z
	 M6.494,16.181c-0.278-0.278-0.656-0.435-1.049-0.435v2c-0.137,0-0.268-0.055-0.365-0.151L6.494,16.181z"/>
<defs>
	<filter id="Adobe_OpacityMaskFilter_2_" filterUnits="userSpaceOnUse" x="2.93" y="10.434" width="3.999" height="2.663">
		<feColorMatrix  type="matrix" values="1 0 0 0 0  0 1 0 0 0  0 0 1 0 0  0 0 0 1 0"/>
	</filter>
</defs>
<mask maskUnits="userSpaceOnUse" x="2.93" y="10.434" width="3.999" height="2.663" id="path-7-inside-3_0_1">
	<path fill="#FFFFFF" filter="url(#Adobe_OpacityMaskFilter_2_)" d="M5.444,11.434H4.414c-0.267,0-0.484,0.217-0.484,0.484v0.179
		h1.999v-0.189C5.923,11.645,5.708,11.434,5.444,11.434L5.444,11.434z"/>
</mask>
<path mask="url(#path-7-inside-3_0_1)" fill="#4CBBEC" d="M3.93,12.097h-1v1h1V12.097z M5.928,12.097v1h1v-1H5.928z M5.928,11.908h1
	v-0.01l0-0.01L5.928,11.908z M5.444,10.434H4.414v2h1.031V10.434z M4.414,10.434c-0.819,0-1.484,0.665-1.484,1.484h2
	c0,0.285-0.231,0.516-0.516,0.516V10.434z M2.93,11.917v0.179h2v-0.179H2.93z M3.93,13.097h1.999v-2H3.93V13.097z M6.928,12.097
	v-0.189h-2v0.189H6.928z M6.928,11.888c-0.016-0.809-0.676-1.455-1.483-1.455v2c-0.281,0-0.511-0.225-0.516-0.506L6.928,11.888z"/>
<path fill="none" stroke="#4CBBEC" d="M3.038,10.528c-0.042,0.042-0.081,0.085-0.118,0.129V8.242h0.604
	C3.366,8.497,3.279,8.792,3.275,9.095l0,0v0.006c0,0.373,0.125,0.732,0.353,1.022C3.41,10.22,3.21,10.357,3.038,10.528L3.038,10.528
	z M6.829,10.528c-0.173-0.172-0.374-0.31-0.593-0.406c0.227-0.29,0.352-0.648,0.352-1.021c0-0.305-0.084-0.603-0.24-0.859h0.6v2.416
	C6.91,10.613,6.871,10.57,6.829,10.528z"/>
<path fill="none" stroke="#4CBBEC" d="M15.464,8.776c0.184,0.185,0.387,0.347,0.604,0.486c-1.178,0.016-2.305,0.49-3.141,1.323l0,0
	c-0.852,0.85-1.331,2.004-1.331,3.208v2.467c0,0.256,0.097,0.487,0.255,0.662H8.91V7.261V2.922h7.613
	c-0.39,0.178-0.748,0.425-1.058,0.734h0c-0.678,0.679-1.06,1.599-1.062,2.559v0C14.404,7.176,14.785,8.097,15.464,8.776
	L15.464,8.776z M19.98,9.263c0.217-0.139,0.42-0.302,0.604-0.487l-0.337-0.337l0.337,0.337c0.679-0.679,1.061-1.6,1.061-2.561
	s-0.382-1.881-1.061-2.561L20.25,3.99l0.335-0.335c-0.309-0.308-0.667-0.555-1.056-0.733h7.553v14h-2.896
	c0.164-0.181,0.256-0.416,0.256-0.662v-2.472v0c-0.001-1.201-0.479-2.352-1.329-3.2C22.279,9.755,21.156,9.28,19.98,9.263z"/>
<path fill="none" stroke="#4CBBEC" d="M28.938,1.062c0.36,0.36,0.563,0.849,0.563,1.357v15c0,0.508-0.202,0.996-0.563,1.356l0,0
	c0,0.001,0,0.001,0,0.001c-0.359,0.359-0.848,0.562-1.357,0.562H2.419c-0.509,0-0.997-0.202-1.357-0.562
	C0.702,18.416,0.5,17.928,0.5,17.42v-15c0-0.509,0.202-0.998,0.562-1.357C1.422,0.702,1.911,0.5,2.419,0.5H27.58L28.938,1.062z
	 M28.938,1.062l0.354-0.354L28.938,1.062L28.938,1.062z M28.619,18.457c0.275-0.275,0.43-0.648,0.43-1.037v-15
	c0-0.389-0.154-0.763-0.43-1.038c-0.275-0.275-0.648-0.43-1.039-0.43H2.419c-0.389,0-0.763,0.155-1.038,0.43
	c-0.275,0.275-0.43,0.649-0.43,1.038v15c0,0.389,0.155,0.762,0.43,1.037c0.275,0.275,0.648,0.43,1.038,0.43h5.293
	c0.138,0.036,0.284,0.036,0.422,0H27.58C27.97,18.887,28.344,18.732,28.619,18.457z"/>
<path fill="none" stroke="#4CBBEC" d="M21.758,12.018L21.758,12.018c-0.373-0.389-0.857-0.647-1.382-0.744
	c-0.245,0.562-0.687,1.022-1.249,1.291c-0.697,0.333-1.508,0.333-2.206,0 M21.758,12.018c0.459,0.477,0.716,1.113,0.717,1.775
	 M22.475,13.793 M21.758,12.018 M22.475,13.793v1.488h-8.91v-1.488c0-0.663,0.258-1.3,0.719-1.777
	c0.375-0.389,0.862-0.647,1.389-0.742c0.245,0.563,0.686,1.023,1.249,1.292"/>
<defs>
	<filter id="Adobe_OpacityMaskFilter_3_" filterUnits="userSpaceOnUse" x="15.439" y="9.727" width="5.156" height="2.616">
		<feColorMatrix  type="matrix" values="1 0 0 0 0  0 1 0 0 0  0 0 1 0 0  0 0 0 1 0"/>
	</filter>
</defs>
<mask maskUnits="userSpaceOnUse" x="15.439" y="9.727" width="5.156" height="2.616" id="path-13-inside-4_0_1">
	<path fill="#FFFFFF" filter="url(#Adobe_OpacityMaskFilter_3_)" d="M18.025,11.341c0.202-0.003,0.399-0.063,0.57-0.171
		c0.17-0.108,0.309-0.262,0.396-0.443h-1.949c0.09,0.184,0.23,0.339,0.403,0.447C17.62,11.282,17.82,11.34,18.025,11.341
		L18.025,11.341z"/>
</mask>
<path mask="url(#path-13-inside-4_0_1)" fill="#4CBBEC" d="M18.025,11.341l-0.214,0.977l0.114,0.025l0.117-0.002L18.025,11.341z
	 M18.596,11.17l0.536,0.844l0,0L18.596,11.17z M18.992,10.727l0.898,0.44l0.705-1.44h-1.604V10.727z M17.043,10.727v-1h-1.604
	l0.705,1.44L17.043,10.727z M17.446,11.174l-0.53,0.848v0L17.446,11.174z M18.025,11.341l0.213-0.977l-0.104-0.022l-0.105,0
	L18.025,11.341z M18.043,12.341c0.386-0.006,0.762-0.12,1.089-0.327l-1.072-1.688c-0.015,0.01-0.033,0.015-0.052,0.016
	L18.043,12.341z M19.132,12.014c0.325-0.207,0.589-0.5,0.759-0.848l-1.796-0.88c-0.007,0.016-0.02,0.029-0.035,0.04L19.132,12.014z
	 M18.992,9.727h-1.949v2h1.949V9.727z M16.145,11.167c0.173,0.352,0.439,0.648,0.771,0.855l1.061-1.695
	c-0.016-0.01-0.027-0.023-0.035-0.04L16.145,11.167z M16.916,12.022c0.332,0.207,0.715,0.317,1.105,0.319l0.008-2
	c-0.02,0-0.037-0.006-0.053-0.015L16.916,12.022z M17.812,12.318L17.812,12.318l0.427-1.954l0,0L17.812,12.318z"/>
<defs>
	<filter id="Adobe_OpacityMaskFilter_4_" filterUnits="userSpaceOnUse" x="14.925" y="3.143" width="6.307" height="6.307">
		<feColorMatrix  type="matrix" values="1 0 0 0 0  0 1 0 0 0  0 0 1 0 0  0 0 0 1 0"/>
	</filter>
</defs>
<mask maskUnits="userSpaceOnUse" x="14.925" y="3.143" width="6.307" height="6.307" id="path-15-inside-5_0_1">
	<path fill="#FFFFFF" filter="url(#Adobe_OpacityMaskFilter_4_)" d="M20.231,6.296c0,1.189-0.965,2.153-2.153,2.153
		c-1.189,0-2.153-0.964-2.153-2.153c0-1.189,0.964-2.153,2.153-2.153C19.267,4.143,20.231,5.107,20.231,6.296"/>
</mask>
<path mask="url(#path-15-inside-5_0_1)" fill="#4CBBEC" d="M19.231,6.296c0,0.637-0.517,1.153-1.153,1.153v2
	c1.741,0,3.153-1.412,3.153-3.153H19.231z M18.078,7.45c-0.637,0-1.153-0.517-1.153-1.153h-2c0,1.741,1.412,3.153,3.153,3.153V7.45z
	 M16.925,6.296c0-0.637,0.516-1.153,1.153-1.153v-2c-1.741,0-3.153,1.412-3.153,3.153H16.925z M18.078,5.143
	c0.637,0,1.153,0.516,1.153,1.153h2c0-1.742-1.412-3.153-3.153-3.153V5.143z"/>
<path fill="none" stroke="#4CBBEC" d="M15.042,25.899l-0.043-0.004l-0.042,0.004c-0.216,0.019-0.432-0.017-0.628-0.101v-5.463h1.342
	v5.463C15.473,25.883,15.258,25.918,15.042,25.899z"/>
<path fill="none" stroke="#4CBBEC" d="M20.955,27.406L20.955,27.406v0.013c0,0.038,0.004,0.074,0.01,0.102v0.493l-0.511,0.039
	c-0.03,0.002-0.062,0.002-0.093,0l-0.02-0.002h-0.02H9.678h-0.02l-0.02,0.002c-0.032,0.002-0.064,0.002-0.096,0l-0.497-0.039v-0.551
	v-0.044l0,0l0-0.013c-0.001-0.074,0.01-0.15,0.035-0.221c1.034-0.818,1.547-1.213,1.827-1.406c0.068-0.047,0.116-0.077,0.151-0.098
	c0.014-0.008,0.025-0.014,0.033-0.018h1.271v0.468c0,0.596,0.379,1.046,0.854,1.32c0.475,0.275,1.102,0.419,1.784,0.419
	c0.683,0,1.31-0.144,1.785-0.419c0.475-0.275,0.854-0.725,0.854-1.32v-0.468h1.271c0.008,0.004,0.019,0.01,0.032,0.018
	c0.034,0.021,0.083,0.051,0.151,0.098c0.279,0.193,0.793,0.588,1.826,1.406C20.945,27.256,20.957,27.332,20.955,27.406z M20,31.938
	 M20.443,28.535h-0.004C20.44,28.535,20.441,28.535,20.443,28.535L20.443,28.535z"/>
<path fill="none" stroke="#4CBBEC" d="M20.406,2.922"/>
<path fill="none" stroke="#4CBBEC" d="M15.67,2.922"/>
<line fill="none" stroke="#4CBBEC" x1="12" y1="16.922" x2="25.031" y2="16.922"/>
<line fill="none" stroke="#4CBBEC" stroke-width="0.75" x1="15.987" y1="2.771" x2="19.623" y2="2.771"/>
<line fill="none" stroke="#4CBBEC" stroke-width="0.75" x1="16.26" y1="9.45" x2="19.896" y2="9.45"/>
<path fill="none" stroke="#4CBBEC" d="M20.965,28.516L20.965,28.516c0,0.759-0.586,1.375-1.309,1.375h-9.167
	c-0.723,0-1.308-0.616-1.308-1.375l0,0"/>
<line fill="none" stroke="#4CBBEC" stroke-width="0.25" x1="3.116" y1="5.021" x2="6.751" y2="5.021"/>
<line fill="none" stroke="#4CBBEC" stroke-width="0.25" x1="3.206" y1="10.333" x2="6.842" y2="10.333"/>
<line fill="none" stroke="#4CBBEC" stroke-width="0.25" x1="2.72" y1="2.516" x2="7.327" y2="2.516"/>
<line fill="none" stroke="#4CBBEC" stroke-width="0.25" x1="2.72" y1="7.875" x2="7.327" y2="7.875"/>
<line fill="none" stroke="#4CBBEC" stroke-width="0.25" x1="2.625" y1="13.188" x2="7.232" y2="13.188"/>
<line fill="none" stroke="#4CBBEC" stroke-width="0.25" x1="2.63" y1="15.604" x2="7.237" y2="15.604"/>
</svg>
