<svg width="30" height="31" viewBox="0 0 30 31" fill="none" xmlns="http://www.w3.org/2000/svg">
<path d="M25.258 8.72229C25.7571 8.72321 26.1996 8.49216 26.5001 8.14327C26.7963 7.79924 26.9426 7.36072 26.9426 6.92912C26.9426 6.49796 26.7964 6.05911 26.5001 5.71496L26.4995 5.71425L25.2561 8.72229C25.2567 8.72229 25.2574 8.72229 25.258 8.72229ZM25.258 8.72229H5.72041M25.258 8.72229H5.72041M5.72041 8.72229L5.72106 8.75493L5.72041 8.72229ZM5.30476 8.72229H4.82619C3.77301 8.76027 3.12574 7.84344 3.09169 7.00684L3.09167 7.00632C3.0579 6.16586 3.63056 5.19475 4.68652 5.13737L5.59098 5.08823L5.59834 5.13594H25.258H25.2591V6.13594L5.30476 8.72229ZM5.30476 8.72229L4.68578 8.75639C4.68285 8.75655 4.67994 8.75672 4.67702 8.7569L3.74079 8.80585V9.1242C3.29728 9.49527 3.07003 10.087 3.09167 10.6256L3.09169 10.6261C3.12574 11.4622 3.77279 12.3795 4.82622 12.3416H21.8812L5.30476 8.72229ZM4.66863 16.4537L3.73009 16.5062V16.8268C3.28746 17.2011 3.06337 17.7956 3.08894 18.3357M4.66863 16.4537L3.08894 18.3357M4.66863 16.4537L5.90911 16.3698L5.89644 16.4518H22.0095H22.0132C23.0752 16.4557 23.6894 17.4031 23.6894 18.245C23.6894 19.0863 23.0757 20.0346 22.0131 20.0384L22.0095 20.0384L4.8283 20.0384C3.77946 20.0799 3.12824 19.1711 3.08894 18.3357M4.66863 16.4537L3.08894 18.3357M3.08894 18.3357C3.08893 18.3355 3.08892 18.3352 3.0889 18.335L4.08782 18.2884L3.08894 18.3357ZM29 1.00083V23.3057H11.7829H11.4109L11.1293 23.5489L5.2352 28.6387L5.90893 24.4651L6.09609 23.3057H4.92171H1.00001V1.00083H29ZM4.68652 12.5244C3.63057 12.5818 3.05791 13.5528 3.09167 14.3933L3.09167 14.3933C3.12531 15.2309 3.77345 16.1473 4.82624 16.1093H18.5048C19.5707 16.1093 20.1866 15.1588 20.1866 14.3161C20.1866 13.473 19.5705 12.523 18.5048 12.523H5.65377L5.64913 12.4721L4.68652 12.5244Z" stroke="#4CBBEC" stroke-width="2"/>
</svg>
