<svg width="48" height="31" viewBox="0 0 48 31" fill="none" xmlns="http://www.w3.org/2000/svg">
<path d="M5.41211 13.6097C5.41211 11.3052 7.39386 9.36719 9.90762 9.36719C12.4213 9.36719 14.4031 11.3059 14.4031 13.6097C14.4031 15.9136 12.4213 17.8522 9.90762 17.8522C7.39388 17.8522 5.41211 15.914 5.41211 13.6097Z" stroke="#4CBBEC" stroke-width="1.5"/>
<path d="M0.754831 28.8566L0.755594 28.8324L0.754795 28.8083C0.753954 28.7828 0.752047 28.7606 0.750128 28.743C0.776253 24.365 4.79487 20.6719 9.90813 20.6719C15.0215 20.6719 19.0401 24.3648 19.0661 28.7432C19.0642 28.7605 19.0623 28.7829 19.0615 28.8086L19.0607 28.8329L19.0614 28.8572C19.0621 28.8771 19.0634 28.8951 19.0648 28.9104C19.0484 29.0784 18.8937 29.2513 18.6506 29.2513H1.16566C0.92249 29.2513 0.767857 29.0783 0.75145 28.9103C0.752903 28.8949 0.754197 28.8768 0.754831 28.8566ZM19.0724 28.6964L19.0724 28.6968C19.0728 28.6939 19.0731 28.692 19.0729 28.6934L19.0727 28.6945L19.0724 28.6964Z" stroke="#4CBBEC" stroke-width="1.5"/>
<path d="M32.9824 13.6097C32.9824 11.3052 34.9642 9.36719 37.4779 9.36719C39.9916 9.36719 41.9734 11.3059 41.9734 13.6097C41.9734 15.9136 39.9916 17.8522 37.4779 17.8522C34.9642 17.8522 32.9824 15.914 32.9824 13.6097Z" stroke="#4CBBEC" stroke-width="1.5"/>
<path d="M28.3251 28.8566L28.3259 28.8324L28.3251 28.8083C28.3243 28.7828 28.3224 28.7606 28.3204 28.743C28.3466 24.365 32.3652 20.6719 37.4784 20.6719C42.5918 20.6719 46.6104 24.3648 46.6364 28.7432C46.6346 28.7605 46.6326 28.7829 46.6318 28.8086L46.631 28.8329L46.6318 28.8572C46.6324 28.8771 46.6337 28.8951 46.6351 28.9104C46.6187 29.0784 46.4641 29.2513 46.2209 29.2513H28.736C28.4928 29.2513 28.3382 29.0783 28.3218 28.9103C28.3232 28.8949 28.3245 28.8768 28.3251 28.8566ZM46.6428 28.6964L46.6427 28.6968C46.6431 28.6939 46.6434 28.692 46.6432 28.6934L46.6431 28.6945L46.6428 28.6964Z" stroke="#4CBBEC" stroke-width="1.5"/>
<path d="M27.5269 9.28467C27.0604 9.28467 26.6114 9.21172 26.1898 9.07691C26.2542 8.73501 26.2907 8.38099 26.2907 8.01625C26.2907 7.79501 26.2778 7.57712 26.2533 7.36301H30.227C30.6614 7.36301 31.0115 7.01017 31.0115 6.57821C31.0115 6.14488 30.6607 5.7934 30.227 5.7934H25.8495C25.8277 5.74001 25.8051 5.68702 25.7817 5.63444H30.2263C30.6604 5.63444 31.0108 5.28228 31.0108 4.84964C31.0108 4.41768 30.6608 4.06484 30.2263 4.06484H24.8262C24.8044 4.06484 24.783 4.06573 24.7619 4.06747C24.6986 3.99755 24.6337 3.92914 24.5673 3.86232C24.6484 3.89067 24.7357 3.90609 24.8268 3.90609H30.2269C30.661 3.90609 31.0114 3.55394 31.0114 3.12128C31.0114 2.68795 30.6606 2.33648 30.2269 2.33648H24.8268C24.3913 2.33648 24.042 2.689 24.042 3.12128C24.042 3.2393 24.068 3.35138 24.1147 3.45195C23.9335 3.30389 23.7432 3.16639 23.5449 3.0404C24.2438 1.54095 25.7628 0.5 27.5259 0.5C29.9535 0.5 31.9214 2.46741 31.9214 4.88885C31.9214 5.76695 31.6609 6.57872 31.2202 7.26519L31.0968 7.45748L31.1614 7.67666L31.4943 8.80625L30.3831 8.47932L30.1568 8.41274L29.9615 8.54507C29.2694 9.014 28.4338 9.28467 27.5269 9.28467ZM16.4329 11.9298L16.766 10.7988L16.8306 10.5794L16.7068 10.387C16.2656 9.70158 16.0078 8.88926 16.0078 8.01496C16.0078 5.58838 17.9744 3.62128 20.4008 3.62128C22.8272 3.62128 24.7947 5.5888 24.7947 8.01496C24.7947 10.4407 22.8273 12.408 20.4008 12.408C19.4974 12.408 18.6591 12.1347 17.9605 11.6676L17.7659 11.5374L17.5414 11.6035L16.4329 11.9298ZM18.1699 8.01488H18.1118C18.1118 8.01479 18.1118 8.0147 18.1118 8.01462C18.1118 7.98205 18.1377 7.9565 18.1696 7.9565C18.1697 7.9565 18.1698 7.9565 18.1699 7.9565C18.2015 7.95663 18.2274 7.98226 18.2274 8.01462C18.2274 8.0147 18.2274 8.01479 18.2274 8.01488H18.1699ZM18.1699 8.01545L18.2274 8.01492C18.2273 8.04627 18.202 8.07197 18.1699 8.0721C18.1698 8.0721 18.1697 8.0721 18.1696 8.0721C18.138 8.0721 18.1126 8.04681 18.1118 8.01599L18.1699 8.01545ZM17.1118 8.01462C17.1118 8.59871 17.5856 9.0721 18.1696 9.0721C18.7535 9.0721 19.2274 8.59922 19.2274 8.01462C19.2274 7.43026 18.754 6.9565 18.1696 6.9565C17.5854 6.9565 17.1118 7.42976 17.1118 8.01462ZM19.343 8.01462C19.343 8.5989 19.8173 9.0721 20.4008 9.0721C20.9843 9.0721 21.459 8.59959 21.459 8.01462C21.459 7.42989 20.9849 6.9565 20.4008 6.9565C19.8171 6.9565 19.343 7.42957 19.343 8.01462ZM21.5742 8.01462C21.5742 8.59871 22.048 9.0721 22.632 9.0721L23.1898 8.01462H23.6898C23.6898 8.01445 23.6898 8.01427 23.6898 8.0141C23.6896 7.42998 23.2163 6.9565 22.632 6.9565C22.0478 6.9565 21.5742 7.42976 21.5742 8.01462Z" stroke="#4CBBEC"/>
</svg>
