<svg width="33" height="33" viewBox="0 0 33 33" fill="none" xmlns="http://www.w3.org/2000/svg">
<path d="M24.8483 31.9998C20.1382 31.9742 14.1738 28.8382 9.31368 24.4099C6.89504 22.2061 4.80209 19.7278 3.32014 17.2479C1.83138 14.7567 1 12.3332 1 10.2203C1 6.98772 3.13 4.11282 6.68729 4.00324C6.69554 4.0103 6.70427 4.0179 6.71347 4.02606C6.85971 4.15577 7.0591 4.36713 7.30312 4.65892C7.78616 5.2365 8.36479 6.03322 8.92685 6.87188C9.48723 7.70803 10.0162 8.56357 10.4013 9.25064C10.5948 9.59576 10.7443 9.88494 10.8425 10.1009C10.863 10.146 10.8801 10.1854 10.8942 10.2193C10.835 10.3046 10.735 10.4206 10.581 10.5679C10.2392 10.8947 9.76464 11.2519 9.22648 11.6497C9.19047 11.6763 9.15414 11.7032 9.11753 11.7302C8.6359 12.0858 8.10824 12.4754 7.69717 12.849C7.47457 13.0513 7.24911 13.2814 7.07316 13.5319C6.90613 13.7698 6.71011 14.1291 6.71011 14.5699C6.71011 15.1628 6.94672 15.7764 7.23352 16.3245C7.53297 16.8968 7.94922 17.5126 8.43456 18.139C9.40676 19.3937 10.7183 20.7707 12.1122 22.0453C13.5066 23.3204 15.0106 24.5178 16.3781 25.4037C17.0613 25.8463 17.7279 26.2226 18.3425 26.4914C18.9384 26.7521 19.5691 26.9497 20.1552 26.9497C20.561 26.9497 20.9102 26.7977 21.1683 26.6462C21.4339 26.4903 21.6825 26.2874 21.9052 26.0825C22.3147 25.7058 22.7421 25.2218 23.1311 24.7812C23.1606 24.7479 23.1899 24.7148 23.2189 24.6819C23.6535 24.1903 24.043 23.7577 24.4 23.4454C24.6135 23.2587 24.7555 23.1699 24.8353 23.1277C24.8588 23.1378 24.8844 23.1487 24.912 23.1607C25.1256 23.2534 25.4251 23.3898 25.7856 23.559C26.505 23.8968 27.4456 24.3551 28.3856 24.8326C29.3278 25.3112 30.257 25.8027 30.9586 26.2081C31.3118 26.4121 31.59 26.5843 31.7786 26.7158C31.8241 26.7474 31.8599 26.7737 31.8876 26.7948C32.0695 27.2645 32.0289 27.7431 31.777 28.2636C31.4888 28.8588 30.9286 29.484 30.1526 30.064C28.5857 31.235 26.4433 31.9998 24.9064 31.9998H24.8483ZM31.9508 26.846C31.9776 26.8701 31.9717 26.8691 31.9497 26.8451C31.9501 26.8454 31.9505 26.8457 31.9508 26.846ZM10.9464 10.3628C10.9463 10.3627 10.9453 10.3593 10.9439 10.353C10.9459 10.3598 10.9466 10.3629 10.9464 10.3628ZM10.9435 10.1367C10.944 10.1352 10.9443 10.1345 10.9443 10.1345C10.9444 10.1345 10.9441 10.1352 10.9435 10.1367Z" stroke="#4CBBEC" stroke-width="2"/>
<path d="M32.5859 6.31055V9.48926H17.9668V6.31055H32.5859ZM26.9902 0.333984V15.8613H23.5771V0.333984H26.9902Z" fill="#4CBBEC"/>
</svg>
