<svg width="22" height="30" viewBox="0 0 22 30" fill="none" xmlns="http://www.w3.org/2000/svg">
<path d="M0 15.9663V26.9583C-0.000704746 27.636 0.24556 28.2892 0.690049 28.7883C1.13455 29.2876 1.7448 29.5968 2.39977 29.6542C7.84282 30.1153 13.3131 30.1153 18.7562 29.6542C19.4133 29.5992 20.0259 29.2912 20.4726 28.7916L0 15.9663ZM0 15.9663C-0.000480656 15.2869 0.247175 14.6325 0.693847 14.1329C0.964119 13.8306 1.29514 13.5985 1.65995 13.4501L0 15.9663ZM13.1384 25.1959L13.1421 25.2088C13.2502 25.589 13.1814 26.0024 12.9478 26.3275C12.7137 26.6535 12.3383 26.8553 11.9288 26.8596L11.9211 26.8596V26.8596H9.24468H9.23697L9.23697 26.8596C8.82782 26.8554 8.45144 26.6537 8.21711 26.3263C7.98466 26.002 7.91501 25.5889 8.02397 25.2078L8.02775 25.1946L8.03201 25.1815L8.72068 23.0689C8.25794 22.6504 7.94041 22.0851 7.822 21.4595C7.66361 20.6231 7.87553 19.7545 8.40594 19.0906L8.40609 19.0904C8.93783 18.4254 9.73641 18.0336 10.5862 18.0336C11.4361 18.0336 12.2346 18.4254 12.7663 19.0904L12.7664 19.0904C13.2972 19.7544 13.5088 20.6231 13.3505 21.4591L13.1384 25.1959ZM13.1384 25.1959L13.1343 25.1831M13.1384 25.1959L13.1343 25.1831M13.1343 25.1831L12.4508 23.0698M13.1343 25.1831L12.4508 23.0698M9.72792 13.6899H8.97792H8.97786L8.97142 12.9399H8.22792V8.01453V7.99791L8.22866 7.98129C8.26515 7.15883 8.7126 6.40387 9.42752 5.99349L9.72792 13.6899ZM9.72792 13.6899V13.68M9.72792 13.6899V13.68M9.72792 13.68C10.5456 13.6724 11.3611 13.6757 12.1748 13.6898L12.9378 13.703V12.9399V8.01453V7.99774L12.937 7.98097C12.9002 7.15896 12.4532 6.40391 11.7381 5.99342C11.0208 5.58173 10.1449 5.58162 9.42766 5.99341L9.72792 13.68ZM11.2595 1.33702H11.261C12.8221 1.3401 14.3133 1.9812 15.4095 3.11166L11.2595 1.33702ZM11.2595 1.33702H10.4614L10.4611 1.33622L9.90847 1.337C8.34695 1.33922 6.8546 1.97951 5.75734 3.11034C4.66108 4.24013 4.04798 5.76743 4.04611 7.35601V7.35687L4.04587 13.0999L4.04584 13.8947L4.83926 13.8487C5.55464 13.8072 6.26868 13.7727 6.98182 13.745L7.70268 13.717V12.9956V8.02619C7.73751 6.9727 8.3019 6.02451 9.17582 5.51664C10.0501 5.00858 11.1154 5.00858 11.9897 5.51664C12.8637 6.02457 13.4282 6.97282 13.4628 8.02611V12.992V13.7159L14.1863 13.7415C14.9007 13.7668 15.6138 13.8003 16.3261 13.8417L17.1196 13.8878V13.0929V7.35692V7.35591M11.2595 1.33702L17.1196 7.35591M17.1196 7.35591C17.1175 5.7683 16.5053 4.24158 15.4095 3.11173L17.1196 7.35591ZM12.4508 23.0698C12.914 22.6513 13.2321 22.0857 13.3505 21.4595L12.4508 23.0698ZM20.4162 26.9588C20.4165 27.4563 20.235 27.9318 19.9134 28.2918C19.5922 28.6511 19.1561 28.8681 18.6936 28.9069L18.6929 28.9069C13.2924 29.3643 7.86498 29.3644 2.46454 28.907C2.00399 28.8664 1.56983 28.6486 1.25025 28.2896L1.25013 28.2895C0.930065 27.9301 0.749484 27.4555 0.750001 26.9591V26.9583L0.750002 15.9663L0.750001 15.9658C0.749648 15.4681 0.9312 14.9927 1.25297 14.6328C1.56942 14.2788 1.99728 14.063 2.45185 14.0195L2.46773 14.0183L2.82889 13.9904L3.52111 13.9369V13.2426V7.57746L3.52143 7.3582C3.52399 5.59959 4.20281 3.91831 5.40239 2.68141L5.4024 2.6814C6.60122 1.44523 8.22166 0.753659 9.90735 0.75H11.2561C12.9424 0.752755 14.5636 1.44405 15.7631 2.6803L15.7632 2.68035C16.9635 3.91721 17.6428 5.59912 17.6451 7.35804V13.2357V13.931L18.3384 13.9836L18.7022 14.0112C19.1622 14.0517 19.5956 14.269 19.915 14.6274L19.9151 14.6275C20.2358 14.9873 20.4167 15.462 20.4162 15.9586V15.9594V26.9582V26.9588ZM21.1662 26.9582V15.9594C21.1669 15.2812 20.9201 14.6278 20.4749 14.1284L21.1662 26.9582ZM4.35613 25.7724L4.35635 25.7723C4.903 25.447 5.22898 24.8539 5.22898 24.224V17.9051C5.78655 17.7969 6.25702 17.4222 6.496 16.9035C6.7605 16.3299 6.70916 15.6551 6.35719 15.129C6.00375 14.6004 5.39458 14.2964 4.75488 14.3492L4.7528 14.3494C3.91719 14.4207 3.14279 14.8117 2.58018 15.4387C2.01809 16.065 1.70759 16.8818 1.70399 17.7266V17.7298V24.224C1.70399 24.8536 2.02952 25.447 2.57682 25.7724C3.12643 26.0993 3.80652 26.0993 4.35613 25.7724Z" stroke="#4CBBEC" stroke-width="1.5"/>
</svg>
