<svg width="28" height="31" viewBox="0 0 28 31" fill="none" xmlns="http://www.w3.org/2000/svg">
<path d="M8.08789 7.03657C8.08789 4.05703 10.6665 1.5 13.9997 1.5C17.3327 1.5 19.9115 4.05797 19.9115 7.03657C19.9115 10.0153 17.3327 12.5732 13.9997 12.5732C10.6666 12.5732 8.08789 10.0158 8.08789 7.03657Z" stroke="#4CBBEC" stroke-width="3"/>
<path d="M1.5066 28.5406L1.50814 28.4921L1.50653 28.4436C1.50534 28.4076 1.50309 28.3756 1.50059 28.3483C1.50051 28.3474 1.50043 28.3465 1.50034 28.3456C1.55004 22.4763 6.97592 17.4336 14 17.4336C21.0242 17.4336 26.4501 22.4761 26.4997 28.3459C26.4995 28.3472 26.4994 28.3486 26.4993 28.35C26.4969 28.3766 26.4947 28.4082 26.4935 28.4439L26.4918 28.4928L26.4934 28.5417C26.4938 28.5535 26.4943 28.5649 26.4949 28.5759C26.4918 28.5808 26.4869 28.587 26.4793 28.5944C26.4553 28.6173 26.4136 28.6398 26.3529 28.6398H1.64706C1.58641 28.6398 1.54468 28.6173 1.52073 28.5944C1.51304 28.587 1.50818 28.5808 1.50511 28.5758C1.50571 28.5645 1.50622 28.5528 1.5066 28.5406ZM1.48461 28.2236C1.48457 28.2234 1.48459 28.2235 1.48466 28.2239L1.48461 28.2236ZM26.5151 28.7619C26.5152 28.7623 26.5151 28.7622 26.5151 28.7616L26.5151 28.7619ZM26.5 28.5627C26.5 28.562 26.5 28.5613 26.5 28.5605L26.5 28.5607C26.5 28.5609 26.5001 28.5616 26.5 28.5627ZM1.48504 28.761L1.48507 28.7608L1.48504 28.761Z" stroke="#4CBBEC" stroke-width="3"/>
</svg>
