<svg width="15" height="16" viewBox="0 0 15 16" fill="none" xmlns="http://www.w3.org/2000/svg">
<path d="M14.8438 2.57742V4.54926C14.8438 4.90148 14.6551 5.22697 14.349 5.40311C14.0428 5.57917 13.6655 5.57917 13.3594 5.40311C13.0532 5.22695 12.8646 4.90145 12.8646 4.54926V2.57742H1.97917V4.54926C1.97917 4.90148 1.79053 5.22697 1.48438 5.40311C1.17823 5.57917 0.80094 5.57917 0.494792 5.40311C0.188643 5.22695 0 4.90145 0 4.54926V2.57742C0 2.05444 0.208519 1.55289 0.579726 1.18317C0.95082 0.813337 1.45424 0.605591 1.97917 0.605591H12.8646C13.3895 0.605591 13.8929 0.813337 14.264 1.18317C14.6352 1.55289 14.8438 2.05444 14.8438 2.57742ZM8.57969 4.4161C8.29795 4.0663 7.87208 3.86272 7.4219 3.86272C6.97173 3.86272 6.54587 4.06629 6.26412 4.4161L2.69172 8.85272C2.51788 9.05563 2.43395 9.32016 2.45913 9.58576C2.48431 9.85137 2.61651 10.0956 2.82547 10.2624C3.03454 10.4292 3.30248 10.5046 3.56822 10.4711C3.83384 10.4378 4.07461 10.2985 4.23554 10.0851L6.43239 7.35912V14.4084C6.43239 14.7606 6.62103 15.0861 6.92718 15.2623C7.23333 15.4383 7.61061 15.4383 7.91676 15.2623C8.22291 15.0861 8.41155 14.7606 8.41155 14.4084V7.35912L10.6084 10.095C10.796 10.3285 11.08 10.4645 11.3803 10.4648C11.6052 10.4645 11.8234 10.3881 11.9988 10.2479C12.2034 10.0844 12.3344 9.84658 12.3633 9.58689C12.392 9.3271 12.3161 9.06664 12.1522 8.86264L8.57969 4.4161Z" fill="#4CBBEC"/>
</svg>
