<svg width="25" height="25" viewBox="0 0 25 25" fill="none" xmlns="http://www.w3.org/2000/svg">
<path d="M25 3.33334V6.66667C25 7.2621 24.6823 7.81234 24.1667 8.1101C23.651 8.40772 23.0156 8.40772 22.5 8.1101C21.9844 7.81229 21.6667 7.26205 21.6667 6.66667V3.33334H3.33333V6.66667C3.33333 7.2621 3.01562 7.81234 2.5 8.1101C1.98438 8.40772 1.34895 8.40772 0.833333 8.1101C0.317714 7.81229 0 7.26205 0 6.66667V3.33334C0 2.44924 0.35119 1.60138 0.976381 0.976382C1.60138 0.351191 2.44924 0 3.33333 0H21.6667C22.5508 0 23.3986 0.351191 24.0236 0.976382C24.6488 1.60138 25 2.44924 25 3.33334ZM14.45 6.44158C13.9755 5.85024 13.2582 5.5061 12.5 5.5061C11.7419 5.5061 11.0246 5.85022 10.5501 6.44158L4.53343 13.9416C4.24065 14.2846 4.09928 14.7318 4.14169 15.1808C4.1841 15.6298 4.40675 16.0426 4.75869 16.3246C5.11081 16.6066 5.56207 16.734 6.00964 16.6774C6.457 16.6211 6.8625 16.3856 7.13354 16.0249L10.8335 11.4167V23.3334C10.8335 23.9288 11.1512 24.479 11.6668 24.7768C12.1824 25.0744 12.8179 25.0744 13.3335 24.7768C13.8491 24.479 14.1668 23.9287 14.1668 23.3334V11.4167L17.8668 16.0417C18.1828 16.4364 18.6611 16.6663 19.1668 16.6667C19.5455 16.6663 19.9131 16.537 20.2085 16.3001C20.5532 16.0236 20.7738 15.6217 20.8224 15.1827C20.8707 14.7435 20.7429 14.3032 20.4669 13.9583L14.45 6.44158Z" fill="white"/>
</svg>
