 <svg width="28" height="20" viewBox="0 0 28 20" fill="none" xmlns="http://www.w3.org/2000/svg">
<path d="M1.74998 0H26.25C27.216 0 28 0.779061 28 1.73989V18.261C28 19.2209 27.216 20 26.25 20H1.74998C0.783099 20.0001 0 19.2209 0 18.2611V1.73989C0 0.779061 0.783962 0 1.74998 0Z" fill="#26A6D1"/>
<path d="M4.82145 7L2 12.9923H5.37767L5.79641 12.0369H6.75354L7.17227 12.9923H10.8901V12.2631L11.2214 12.9923H13.1446L13.4759 12.2477V12.9923H21.2081L22.1482 12.0617L23.0286 12.9923L27 13L24.1696 10.0129L27 7H23.0902L22.175 7.91341L21.3223 7H12.9108L12.1884 8.54666L11.4492 7H8.07858V7.70439L7.70362 7C7.70362 7 4.82145 7 4.82145 7ZM5.47501 7.85091H7.12145L8.99292 11.9143V7.85091H10.7965L12.242 10.7644L13.5742 7.85091H15.3688V12.1508H14.2768L14.2679 8.78143L12.6759 12.1508H11.6991L10.0982 8.78143V12.1508H7.85178L7.4259 11.1868H5.12502L4.70002 12.1499H3.49641L5.47501 7.85091ZM16.3678 7.85091H20.808L22.1661 9.25876L23.5679 7.85091H24.9259L22.8625 10.012L24.9259 12.1482H23.5063L22.1482 10.724L20.7393 12.1482H16.3678V7.85091ZM6.27595 8.57843L5.5179 10.2957H7.03312L6.27595 8.57843ZM17.4643 8.7412V9.52614H19.8866V10.401H17.4643V11.2579H20.1813L21.4438 9.99577L20.2349 8.74045H17.4643V8.7412Z" fill="white"/>
</svg> 
