<svg width="49" height="60" viewBox="0 0 49 60" fill="none" xmlns="http://www.w3.org/2000/svg">
<path d="M47.4674 20.4652C47.2 20.6323 40.8348 24.1593 40.8348 31.9795C41.1348 40.8978 48.8674 44.0255 49 44.0255C48.8674 44.1926 47.8326 48.2861 44.7674 52.5771C42.3348 56.2733 39.6348 60 35.5347 60C31.6347 60 30.2347 57.5365 25.7347 57.5365C20.9021 57.5365 19.5347 60 15.8347 60C11.7347 60 8.83468 56.0737 6.26946 52.4121C2.93684 47.6197 0.104222 40.0991 0.00422219 32.878C-0.0631693 29.0515 0.671615 25.2901 2.53684 22.0952C5.16945 17.6349 9.86946 14.6071 15.0021 14.5073C18.9347 14.3749 22.4347 17.203 24.8347 17.203C27.1347 17.203 31.4347 14.5073 36.3 14.5073C38.4 14.5095 44 15.1411 47.4674 20.4652ZM24.5021 13.7433C23.8021 10.2489 25.7347 6.75445 27.5347 4.52539C29.8347 1.82969 33.4674 0 36.6 0C36.8 3.49443 35.5326 6.92158 33.2674 9.4176C31.2347 12.1133 27.7347 14.1427 24.5021 13.7433Z" fill="#4CBBEC"/>
</svg>
