<svg width="28" height="13" viewBox="0 0 28 13" fill="none" xmlns="http://www.w3.org/2000/svg">
<path d="M28 6.49827C27.9885 6.26589 27.8673 5.99725 27.6654 5.82789L21.077 0.302659C20.6307 -0.014045 19.7745 -0.144627 19.2756 0.221501C18.7841 0.582185 18.7988 1.28136 19.2882 1.64339L23.9205 5.52323H1.23536C0.55321 5.52323 0 5.95986 0 6.4983C0 7.03674 0.553188 7.47337 1.23536 7.47337H23.9205L19.2882 11.3532C18.8666 11.6865 18.7887 12.4106 19.2756 12.7751C19.7621 13.1399 20.6488 13.0233 21.077 12.6937L27.6654 7.16849C27.8908 6.97942 28.0006 6.75747 28 6.49811V6.49827Z" fill="#4CBBEC"/>
</svg>
