<svg width="30" height="30" viewBox="0 0 30 30" fill="none" xmlns="http://www.w3.org/2000/svg">
<path fill-rule="evenodd" clip-rule="evenodd" d="M28.3294 0.00214635C28.2658 -0.000992617 28.2017 -0.000783367 28.1373 0.00340196C27.9655 0.0140745 27.7914 0.0506954 27.621 0.117032L1.27611 10.362C0.452875 10.6822 -0.00457269 11.4799 3.44655e-05 12.2406C0.0046383 13.001 0.471925 13.7925 1.29915 14.1026L11.2758 17.8441C11.6828 17.9968 12.0032 18.317 12.156 18.7242L15.8972 28.7009C16.2073 29.5279 16.9987 29.9954 17.7592 30C18.5197 30.0046 19.3176 29.5471 19.6378 28.7239L29.8828 2.3785C30.1477 1.69734 29.9408 0.960944 29.4896 0.509979C29.1937 0.213874 28.775 0.0232341 28.3295 0.00188589L28.3294 0.00214635ZM23.0028 6.24751C23.2016 6.24772 23.3922 6.32662 23.533 6.46724C23.8258 6.76021 23.8258 7.23503 23.533 7.5278L16.5296 14.5301V14.5303C16.2366 14.8231 15.762 14.8231 15.4691 14.5303C15.1763 14.2374 15.1763 13.7625 15.4691 13.4696L22.4714 6.46724C22.612 6.32661 22.8031 6.24751 23.0023 6.24751L23.0028 6.24751Z" fill="#4CBBEC"/>
</svg>
