<svg width="25" height="25" viewBox="0 0 25 25" fill="none" xmlns="http://www.w3.org/2000/svg">
<path d="M21.6158 2.60963H18.4862V0.778809C18.4862 0.354247 18.1356 0 17.711 0C17.2829 0 16.9287 0.354273 16.9287 0.778809V2.60963H8.0713V0.778809C8.0713 0.354247 7.72068 0 7.29259 0C6.8645 0 6.51388 0.354273 6.51388 0.778809V2.60963H3.38426C1.52045 2.60963 0 4.12302 0 5.99069V21.6189C0 23.4792 1.52039 25 3.38426 25L21.6157 24.9997C23.4795 24.9997 25 23.4792 25 21.6187V5.99043C25 4.12276 23.4796 2.60964 21.6157 2.60964L21.6158 2.60963ZM5.58022 15.5869C5.58022 15.1552 5.93085 14.8081 6.36256 14.8081H8.53276C8.96447 14.8081 9.31509 15.1552 9.31509 15.5869C9.31509 16.0115 8.96447 16.3583 8.53276 16.3583H6.36256C5.93084 16.3583 5.58022 16.0115 5.58022 15.5869ZM15.6852 18.8534C15.6852 18.4217 16.0358 18.0746 16.4675 18.0746H18.6449C19.0694 18.0746 19.42 18.4217 19.42 18.8534C19.42 19.278 19.0694 19.6322 18.6449 19.6322H16.4675C16.0358 19.6322 15.6852 19.278 15.6852 18.8534ZM19.0141 11.9736H5.99028C5.56216 11.9736 5.20794 11.6265 5.20794 11.1948C5.20794 10.7702 5.56217 10.4234 5.99028 10.4234H19.0108C19.4389 10.4234 19.7859 10.7705 19.7859 11.1948C19.7898 11.6304 19.4428 11.9736 19.0147 11.9736H19.0141Z" fill="#4CBBEC"/>
</svg>
