<svg width="26" height="26" viewBox="0 0 26 26" fill="none" xmlns="http://www.w3.org/2000/svg">
<path d="M1.77665 15.6268C-0.592216 17.9956 -0.592216 21.8546 1.77665 24.2234C4.14551 26.5922 8.00441 26.5922 10.3732 24.2234L15.1491 19.4474C17.518 17.0786 17.518 13.2197 15.1491 10.8508V10.8506C14.9602 10.6563 14.7011 10.5458 14.4299 10.5439C14.1588 10.542 13.8982 10.649 13.7065 10.8407C13.5147 11.0325 13.4078 11.293 13.4097 11.5642C13.4115 11.8353 13.522 12.0944 13.7164 12.2834C15.3163 13.8833 15.3163 16.4146 13.7164 18.0145L8.94047 22.7904C7.3405 24.3904 4.8093 24.3904 3.20933 22.7904C1.60936 21.1905 1.60936 18.6593 3.20933 17.0593L7.74636 12.522L7.74659 12.5222C7.94118 12.3333 8.05165 12.0742 8.05378 11.8028C8.05566 11.5316 7.94871 11.2709 7.75696 11.0791C7.56521 10.8871 7.30443 10.7804 7.03305 10.7823C6.76191 10.7842 6.50278 10.8949 6.31361 11.0895L1.77658 15.6265L1.77665 15.6268ZM10.8508 6.55255C8.48197 8.92142 8.48197 12.7803 10.8508 15.1491C11.0398 15.3435 11.2989 15.4537 11.57 15.4556C11.8412 15.4575 12.1017 15.3506 12.2935 15.1588C12.485 14.9673 12.5919 14.7067 12.59 14.4356C12.5882 14.1645 12.4779 13.9053 12.2836 13.7164C10.6836 12.1164 10.6836 9.58522 12.2836 7.98524L17.0595 3.20932C18.6594 1.60934 21.1906 1.60934 22.7906 3.20932C24.3906 4.80929 24.3906 7.34051 22.7906 8.94049L18.2533 13.4775C18.059 13.6665 17.9487 13.9256 17.9469 14.1967C17.945 14.4679 18.0517 14.7284 18.2435 14.9202C18.4352 15.1119 18.6957 15.2186 18.9669 15.217C19.238 15.2151 19.4971 15.1046 19.6863 14.9103L24.2234 10.3732C26.5922 8.00436 26.5922 4.14545 24.2234 1.77663C21.8545 -0.592181 17.9956 -0.592241 15.6268 1.77663L10.8508 6.55255Z" fill="#4CBBEC"/>
</svg>
