<svg width="41" height="31" viewBox="0 0 41 31" fill="none" xmlns="http://www.w3.org/2000/svg">
<path d="M35.8309 0H4.29971C3.15918 0 2.06574 0.494113 1.2592 1.37348C0.453001 2.25319 0 3.44589 0 4.68993V26.3101C0 27.5541 0.453001 28.7468 1.2592 29.6265C2.06572 30.5059 3.15918 31 4.29971 31H35.8309C36.9714 31 38.0649 30.5059 38.8714 29.6265C39.6776 28.7468 40.1306 27.5541 40.1306 26.3101V4.68993C40.1306 3.44589 39.6776 2.25322 38.8714 1.37348C38.0649 0.494113 36.9714 0 35.8309 0ZM37.2641 25.498L28.134 17.447L26.3281 19.8701L35.4 27.8745H5.30207L13.9015 19.9483L12.0383 17.5719L2.86557 25.967V6.20679L17.1979 19.7763V19.7767C17.9789 20.5116 18.9757 20.916 20.0072 20.916C21.0386 20.916 22.0355 20.5116 22.8164 19.7767L37.1488 6.20714L37.2641 25.498Z" fill="#FBFBFB"/>
</svg>
