<svg width="22" height="22" viewBox="0 0 22 22" fill="none" xmlns="http://www.w3.org/2000/svg">
<path fill-rule="evenodd" clip-rule="evenodd" d="M11.3175 1.63077C11.1205 1.49964 10.8801 1.49964 10.6831 1.63077L1.96724 7.43788L10.6831 13.2448C10.88 13.3762 11.1205 13.3762 11.3175 13.2448L20.0333 7.43788L11.3175 1.63077ZM20.7061 8.74858L11.9519 14.5811C11.3609 14.9748 10.6395 14.9748 10.0485 14.5811L1.29437 8.74858V18.9342C1.29437 19.7808 1.87367 20.467 2.58841 20.467H19.4123C20.127 20.467 20.7063 19.7808 20.7063 18.9342L20.7061 8.74858ZM10.0485 0.295233C10.6395 -0.0984111 11.3609 -0.0984111 11.9519 0.295233L22 6.98998V18.9342C22 20.6273 20.8413 22 19.4119 22H2.58808C1.15866 22 0 20.6273 0 18.9342V6.98998L10.0485 0.295233Z" fill="black"/>
</svg>
