<svg width="40" height="31" viewBox="0 0 40 31" fill="none" xmlns="http://www.w3.org/2000/svg">
<path d="M35.7143 0H4.28571C3.1489 0 2.05902 0.494113 1.2551 1.37348C0.451527 2.25319 0 3.44589 0 4.68993V26.3101C0 27.5541 0.451527 28.7468 1.2551 29.6265C2.059 30.5059 3.1489 31 4.28571 31H35.7143C36.8511 31 37.941 30.5059 38.7449 29.6265C39.5485 28.7468 40 27.5541 40 26.3101V4.68993C40 3.44589 39.5485 2.25322 38.7449 1.37348C37.941 0.494113 36.8511 0 35.7143 0V0ZM37.1429 25.498L28.0424 17.447L26.2424 19.8701L35.2848 27.8745H5.28482L13.8562 19.9483L11.9991 17.5719L2.85624 25.967V6.20679L17.142 19.7763V19.7767C17.9203 20.5116 18.914 20.916 19.942 20.916C20.9701 20.916 21.9638 20.5116 22.7421 19.7767L37.0278 6.20714L37.1429 25.498Z" fill="#B3B3B3"/>
</svg>
