<svg width="20" height="20" viewBox="0 0 20 20" fill="none" xmlns="http://www.w3.org/2000/svg">
<path d="M10 0C4.48589 0 0 4.48589 0 10C0 15.5134 4.48589 20 10 20C15.5134 20 20 15.5134 20 10C20 4.48589 15.5134 0 10 0ZM10 18.5C5.31286 18.5 1.50009 14.6869 1.50009 10.0001C1.50009 5.31295 5.31321 1.50018 10 1.50018C14.6871 1.50018 18.4999 5.3133 18.4999 10.0001C18.4999 14.6872 14.6871 18.5 10 18.5ZM15.2344 6.17768C15.5507 6.44519 15.5898 6.91813 15.3223 7.23482L9.82209 13.7349C9.68362 13.8981 9.4768 14.0003 9.2501 14.0003C9.0691 14.0003 8.89366 13.9348 8.75625 13.8148L4.75616 10.3149C4.44401 10.0425 4.41261 9.5685 4.68571 9.25639C4.9581 8.94424 5.43174 8.91285 5.74419 9.18594L9.17017 12.184L14.1782 6.26639C14.4454 5.9497 14.918 5.91029 15.2343 6.1778L15.2344 6.17768Z" fill="#4CBBEC"/>
</svg>
