<svg width="37" height="25" viewBox="0 0 37 25" fill="none" xmlns="http://www.w3.org/2000/svg">
<path d="M19.0001 0C18.49 0 18.0762 0.411585 18.0762 0.919047V21.8615L11.5762 15.3959C11.2151 15.038 10.6309 15.0388 10.2707 15.3971C9.91042 15.7555 9.90957 16.3366 10.2694 16.6958L18.3469 24.7307C18.52 24.9033 18.7551 25 19.0001 25C19.2456 25 19.4803 24.9033 19.6538 24.7307L27.7305 16.6958C28.0903 16.3366 28.0898 15.7554 27.7292 15.3971C27.369 15.0388 26.7847 15.0379 26.4236 15.3959L19.9244 21.8615V0.919047C19.9244 0.411596 19.5107 0 19.0001 0H19.0001Z" fill="white"/>
<path d="M4.99758 25H12.0655C12.5817 25 13 24.5884 13 24.0805C13 23.5731 12.5817 23.1615 12.0655 23.1615H4.99758C4.16789 23.1602 3.37287 22.8356 2.78612 22.2587C2.19979 21.6814 1.86983 20.8991 1.86853 20.0828V0.919013C1.86853 0.41158 1.45023 0 0.934481 0C0.418315 0 0 0.411569 0 0.919013V20.0828C0.00173201 21.3866 0.528726 22.6362 1.4654 23.5582C2.40248 24.4797 3.67254 24.9983 4.9976 25L4.99758 25Z" fill="white"/>
<path d="M24 24.0806C24 24.5884 24.4183 25 24.9341 25H32.0027C33.3273 24.9983 34.5979 24.4798 35.5345 23.5582C36.4717 22.6362 36.9987 21.3866 37 20.0828V0.919013C37 0.41158 36.5817 0 36.0659 0C35.5497 0 35.1314 0.411569 35.1314 0.919013V20.0828C35.1305 20.8992 34.8006 21.6814 34.2138 22.2587C33.6274 22.8356 32.8319 23.1603 32.0027 23.1615H24.9341C24.4183 23.1615 24 23.5731 24 24.0805L24 24.0806Z" fill="white"/>
</svg>
