<svg width="30" height="16" viewBox="0 0 30 16" fill="none" xmlns="http://www.w3.org/2000/svg">
<path d="M15.0003 8C6.884 8 0.43766 1.32062 0.169092 1.03628C-0.0669548 0.788484 -0.054398 0.398924 0.197551 0.166521C0.449219 -0.0658956 0.844864 -0.0535319 1.0809 0.194543C1.14395 0.260477 7.43324 6.7692 15 6.7692C22.5667 6.7692 28.8562 0.260442 28.9191 0.194543C29.0324 0.075314 29.1892 0.00553314 29.3549 0.000314714C29.5206 -0.00490498 29.6816 0.0549842 29.8025 0.166523C30.0544 0.39894 30.067 0.788501 29.8309 1.03628C29.5622 1.32063 23.1161 8 14.9997 8L15.0003 8Z" fill="white"/>
<path d="M14.5 16C14.2239 16 14 15.7313 14 15.4V10.6C14 10.2687 14.2239 10 14.5 10C14.7761 10 15 10.2687 15 10.6V15.4C15 15.5591 14.9473 15.7118 14.8536 15.8243C14.7598 15.9368 14.6326 16 14.5 16Z" fill="white"/>
<path d="M24.4289 13C24.2591 13.0003 24.0979 12.918 23.9889 12.7751L21.1323 9.02536C20.9302 8.75975 20.9634 8.36552 21.206 8.14456C21.4488 7.92387 21.8092 7.95986 22.0109 8.22519L24.8676 11.975C25.0094 12.1613 25.04 12.4205 24.9462 12.6401C24.8521 12.8597 24.6506 13 24.4289 13L24.4289 13Z" fill="white"/>
<path d="M5.57108 13C5.34944 13 5.14794 12.8597 5.05382 12.6401C4.95996 12.4205 4.99056 12.1613 5.13238 11.975L7.98906 8.22523C8.08598 8.09802 8.22524 8.01766 8.37624 8.00259C8.52724 7.98752 8.67747 8.03858 8.79403 8.1446C9.03659 8.36557 9.06975 8.7598 8.86774 9.0254L6.01106 12.7751C5.90215 12.918 5.74095 13.0003 5.57108 13L5.57108 13Z" fill="white"/>
</svg>
