<svg width="30" height="18" viewBox="0 0 30 18" fill="none" xmlns="http://www.w3.org/2000/svg">
<path d="M15 18C6.86419 18 0.395281 11.1117 0.123849 10.8178C-0.041283 10.6395 -0.041283 10.3608 0.123849 10.1822C0.395261 9.88877 6.86419 3 15 3C23.1358 3 29.6047 9.88835 29.8762 10.1822C30.0413 10.3605 30.0413 10.6392 29.8762 10.8178C29.6047 11.1112 23.1358 18 15 18ZM1.09854 10.4995C2.47816 11.8548 8.23239 17.0733 15 17.0733C21.7754 17.0733 27.5229 11.8556 28.9015 10.5003C27.5218 9.14501 21.7676 3.92658 15 3.92658C8.22459 3.92658 2.47712 9.14422 1.09854 10.4995Z" fill="#4CBBEC"/>
<path d="M14.9943 14C12.8914 14 11.1376 12.3579 11.0009 10.2617C10.9922 10.1265 11.0449 9.9946 11.1444 9.90282C11.2436 9.81079 11.3784 9.76866 11.5138 9.78771C11.6768 9.81104 11.8154 9.82182 11.9503 9.82182C12.7633 9.82182 13.4349 9.5259 13.8922 8.96592C14.4031 8.34048 14.61 7.41334 14.4322 6.54569C14.4056 6.41604 14.4375 6.28112 14.5196 6.17705C14.6018 6.07323 14.7258 6.01079 14.8582 6.00627C14.9265 6.00201 14.9599 6 14.9941 6C17.2029 6 19 7.79429 19 9.99965C19.0005 12.2055 17.2035 14 14.9943 14L14.9943 14ZM11.9771 10.7206C12.3041 12.0906 13.5418 13.1012 14.9943 13.1012C16.7069 13.1012 18.1001 11.7101 18.1001 10.0001C18.1001 8.42341 16.9159 7.11812 15.3886 6.92379C15.4491 7.8835 15.1658 8.82921 14.5897 9.53412C14.1504 10.0718 13.3412 10.7123 11.9771 10.7205V10.7206Z" fill="#4CBBEC"/>
<path d="M5.69367 4.99999C5.59089 4.99999 5.49051 4.91669 5.43253 4.76526L5.0457 3.75405C4.95678 3.5218 5.00158 3.21727 5.14575 3.07384C5.28957 2.93012 5.47871 3.00267 5.56747 3.23521L5.9543 4.24641C6.04322 4.47867 5.99842 4.78319 5.85425 4.92662C5.80415 4.97655 5.74857 5 5.69367 5V4.99999Z" fill="#4CBBEC"/>
<path d="M9.63982 3C9.49014 3 9.35032 2.87761 9.29909 2.68319L9.01943 1.61923C8.95514 1.37471 9.05559 1.10879 9.24384 1.02554C9.43289 0.941254 9.637 1.07252 9.70089 1.31704L9.98055 2.381C10.0448 2.62526 9.94459 2.89118 9.75614 2.97469C9.71757 2.99191 9.67819 3 9.63982 3Z" fill="#4CBBEC"/>
<path d="M13.5575 2C13.3352 2 13.1435 1.82733 13.1186 1.59412L13.0027 0.505143C12.976 0.2549 13.1512 0.0298387 13.3937 0.00237172C13.6342 -0.0228049 13.8547 0.155215 13.8814 0.405451L13.9973 1.49443C14.024 1.74467 13.8488 1.96973 13.6063 1.9972C13.5903 1.99924 13.5738 2 13.5575 2L13.5575 2Z" fill="#4CBBEC"/>
<path d="M16.4427 2C16.4264 2 16.4101 1.99924 16.3936 1.9972C16.1512 1.96948 15.976 1.74465 16.0027 1.49439L16.1186 0.405569C16.1455 0.155563 16.3662 -0.0219624 16.6062 0.00219953C16.8486 0.0296677 17.024 0.254497 16.9973 0.505017L16.8814 1.59429C16.8565 1.82726 16.6649 1.99995 16.4427 1.99995L16.4427 2Z" fill="#4CBBEC"/>
<path d="M20.36 3C20.3215 3 20.2823 2.99191 20.2439 2.97468C20.0557 2.89142 19.955 2.62544 20.0195 2.38114L20.2992 1.31697C20.3632 1.07267 20.5671 0.941375 20.7562 1.02542C20.9442 1.10868 21.0449 1.37466 20.9806 1.61922L20.7007 2.68312C20.6497 2.87758 20.5099 2.99999 20.36 2.99999V3Z" fill="#4CBBEC"/>
<path d="M23.3063 5C23.2514 5 23.1958 4.97628 23.1457 4.92636C23.0015 4.78295 22.9569 4.47846 23.0456 4.24624L23.4325 3.23517C23.5213 3.00267 23.7103 2.93014 23.8543 3.07383C23.9985 3.21724 24.0431 3.52173 23.9544 3.75395L23.5675 4.76501C23.5095 4.9167 23.4091 4.99999 23.3063 4.99999V5Z" fill="#4CBBEC"/>
<path d="M15 17C11.6916 17 9 14.3084 9 11C9 7.69188 11.6916 5 15 5C18.3084 5 21 7.69161 21 11C21 14.3084 18.3084 17 15 17ZM15 5.94417C12.212 5.94417 9.9439 8.21231 9.9439 11C9.9439 13.788 12.212 16.0564 15 16.0564C17.788 16.0564 20.0561 13.788 20.0561 11.0003C20.0561 8.21224 17.788 5.94417 15 5.94417Z" fill="#4CBBEC"/>
</svg>
