<svg width="22" height="30" viewBox="0 0 22 30" fill="none" xmlns="http://www.w3.org/2000/svg">
<path fill-rule="evenodd" clip-rule="evenodd" d="M0.000294642 0H17.6436V4.31187H22V29.9946L20.6414 28.7035L19.2684 30L17.9041 28.7035L16.5311 30L15.1667 28.7035L13.7938 30L12.4294 28.7035L11.0564 30L9.69206 28.7035L8.31909 30L6.95473 28.7035L5.58175 30L4.2174 28.7035L2.84442 30L1.48007 28.7035L0 30L0.000294642 0ZM18.1271 0.238218L21.7638 3.83316H18.1271V0.238218ZM2.29756 3.97533H9.43507V4.45405H2.29756V3.97533ZM2.61251 7.46603H19.6286V14.2613H2.37077V7.46603H2.61251ZM2.85434 9.58553H5.62587V7.94479H2.85434V9.58553ZM6.10957 7.94479V9.58553H9.46754V7.94479H6.10957ZM9.95124 7.94479V9.58553H19.1455V7.94479H9.95124ZM19.1455 10.0643H9.95124V11.6634H19.1455V10.0643ZM19.1455 12.1421H9.95124V13.7829H19.1455V12.1421ZM9.46776 13.7829V12.1421H6.10979V13.7829H9.46776ZM5.62609 13.7829V12.1421H2.85456V13.7829H5.62609ZM2.85456 11.6634H5.62609V10.0642H2.85456V11.6634ZM6.10979 11.6634H9.46776V10.0642H6.10979V11.6634ZM2.29775 16.65H19.7126V17.1287H2.29775V16.65ZM2.29775 20.3068H19.7126V20.7855H2.29775V20.3068ZM2.29775 23.5065H12.6793V23.9852H2.29775V23.5065Z" fill="#4CBBEC"/>
</svg>
