<svg width="34" height="21" viewBox="0 0 34 21" fill="none" xmlns="http://www.w3.org/2000/svg">
<path d="M22.5 4C22.5 2.07026 24.0704 0.5 26 0.5C27.9296 0.5 29.5 2.07083 29.5 4C29.5 5.92922 27.9296 7.5 26 7.5C24.0704 7.5 22.5 5.92955 22.5 4Z" fill="#4CBBEC" stroke="#FBFBFB"/>
<path d="M24.9981 11.7391L24.9988 11.7389C25.488 11.6043 26.0338 11.8608 26.193 12.3749L24.9981 11.7391ZM24.9981 11.7391C23.2733 12.2161 21.846 13.4053 21.2026 14.952C20.9903 15.4611 21.2668 16.0071 21.7546 16.1888L24.9981 11.7391ZM25.5294 13.5563L25.5079 13.5623C24.3316 13.8937 23.4056 14.6904 23.0016 15.6615L25.5294 13.5563ZM25.5294 13.5563C26.0265 13.4187 26.3566 12.9033 26.1931 12.3752L25.5294 13.5563ZM18.5039 16.0888L18.5045 16.0724L18.5039 16.056C18.5032 16.036 18.5016 16.0188 18.5001 16.006C18.5183 12.4744 21.8142 9.5 26 9.5C30.1859 9.5 33.4818 12.4742 33.4999 16.0061C33.4984 16.0187 33.4968 16.036 33.4961 16.0561L33.4955 16.0727L33.4961 16.0892C33.4966 16.1063 33.4979 16.1213 33.4992 16.1334C33.4862 16.3149 33.3185 16.5 33.0588 16.5H18.9412C18.6815 16.5 18.5138 16.3149 18.5008 16.1333C18.5021 16.1211 18.5034 16.106 18.5039 16.0888Z" fill="#4CBBEC" stroke="#FBFBFB"/>
<path d="M4.5 4C4.5 2.07026 6.07037 0.5 8 0.5C9.92958 0.5 11.5 2.07083 11.5 4C11.5 5.92922 9.92959 7.5 8 7.5C6.07038 7.5 4.5 5.92955 4.5 4Z" fill="#4CBBEC" stroke="#FBFBFB"/>
<path d="M6.99809 11.7391L6.99875 11.7389C7.48797 11.6043 8.03376 11.8608 8.19296 12.3749L6.99809 11.7391ZM6.99809 11.7391C5.27332 12.2161 3.84596 13.4053 3.20259 14.952C2.99027 15.4611 3.26682 16.0071 3.75465 16.1888L6.99809 11.7391ZM7.52943 13.5563L7.50789 13.5623C6.33162 13.8937 5.40559 14.6904 5.00161 15.6615L7.52943 13.5563ZM7.52943 13.5563C8.02651 13.4187 8.35658 12.9033 8.19306 12.3752L7.52943 13.5563ZM0.503945 16.0888L0.504471 16.0724L0.50392 16.056C0.503249 16.036 0.501609 16.0188 0.500076 16.006C0.518288 12.4744 3.81416 9.5 8 9.5C12.1859 9.5 15.4818 12.4742 15.4999 16.0061C15.4984 16.0187 15.4968 16.036 15.4961 16.0561L15.4955 16.0727L15.4961 16.0892C15.4966 16.1063 15.4979 16.1213 15.4992 16.1334C15.4862 16.3149 15.3185 16.5 15.0588 16.5H0.941176C0.681515 16.5 0.513796 16.3149 0.500812 16.1333C0.502128 16.1211 0.503393 16.106 0.503945 16.0888Z" fill="#4CBBEC" stroke="#FBFBFB"/>
<path d="M17 4C14.7942 4 13 5.79411 13 8C13 10.2057 14.7942 12 17 12C19.2058 12 21 10.2053 21 8C21 5.79472 19.2058 4 17 4Z" fill="#4CBBEC"/>
<path d="M25 20.0354C25 16.1561 21.4113 13 17 13C12.5887 13 9 16.1563 9 20.0354C9 20.0483 9.00378 20.0602 9.0042 20.0727C9.00378 20.0858 9 20.0978 9 20.1107C9 20.6016 9.42164 21 9.94118 21H24.0588C24.5784 21 25 20.6016 25 20.1107C25 20.0978 24.9962 20.0858 24.9958 20.0729C24.9962 20.0604 25 20.0479 25 20.0354ZM16.396 17.0744C15.0798 17.4381 14.0124 18.3337 13.54 19.4695C13.4675 19.6447 13.2895 19.7517 13.1019 19.7517C13.0446 19.7517 12.9866 19.742 12.9301 19.7206C12.6877 19.6308 12.5687 19.3728 12.6641 19.1443C13.2421 17.7547 14.5381 16.6617 16.1314 16.221C16.3818 16.1521 16.6425 16.2873 16.7154 16.5229C16.7885 16.7588 16.645 17.0055 16.3961 17.0744L16.396 17.0744Z" fill="#4CBBEC"/>
</svg>
