<?xml version="1.0" encoding="utf-8"?>
<!-- Generator: Adobe Illustrator 16.0.0, SVG Export Plug-In . SVG Version: 6.00 Build 0)  -->
<!DOCTYPE svg PUBLIC "-//W3C//DTD SVG 1.1//EN" "http://www.w3.org/Graphics/SVG/1.1/DTD/svg11.dtd">
<svg version="1.1" id="Layer_1" xmlns="http://www.w3.org/2000/svg" xmlns:xlink="http://www.w3.org/1999/xlink" x="0px" y="0px"
	 width="64px" height="60px" viewBox="35 32 64 60" enable-background="new 35 32 64 60" xml:space="preserve">
<g>
	<path fill="#F9F9F9" d="M50,32h34c8.284,0,15,6.716,15,15v30c0,8.284-6.716,15-15,15H50c-8.284,0-15-6.716-15-15V47
		C35,38.716,41.716,32,50,32z"/>
	<path fill="none" stroke="#4CBBEC" d="M50,32.5h34c8.008,0,14.5,6.492,14.5,14.5v30c0,8.008-6.492,14.5-14.5,14.5H50
		c-8.008,0-14.5-6.492-14.5-14.5V47C35.5,38.992,41.992,32.5,50,32.5z"/>
</g>
<path fill="none" stroke="#4CBBEC" stroke-width="3" d="M45.5,55.125L45.5,55.125v-0.01C45.458,48.617,50.422,43.5,56.386,43.5
	c4.209,0,7.936,2.59,9.73,6.441l1.359,2.917l1.36-2.917c1.795-3.852,5.521-6.441,9.73-6.441c5.962,0,10.934,5.117,10.934,11.625
	c0,7.91-5.461,14.24-11.295,18.721c-2.885,2.214-5.777,3.91-7.953,5.055c-1.087,0.57-1.99,1.002-2.617,1.288
	c-0.147,0.067-0.279,0.126-0.395,0.177c-0.11-0.049-0.234-0.105-0.372-0.17c-0.613-0.283-1.495-0.71-2.556-1.277
	c-2.126-1.135-4.952-2.821-7.77-5.027C50.849,69.431,45.5,63.099,45.5,55.125z"/>
</svg>
