<svg width="20" height="20" viewBox="0 0 20 20" fill="none" xmlns="http://www.w3.org/2000/svg">
<path fill-rule="evenodd" clip-rule="evenodd" d="M10 17.9997C8.15412 17.9997 6.45701 17.3648 5.10312 16.3118L16.3117 5.10323C17.3647 6.45819 17.9996 8.15423 17.9996 10.0001C17.9996 14.4111 14.4108 17.9998 9.99989 17.9998L10 17.9997ZM2.00021 10.0001C2.00021 5.58911 5.58901 2.00043 9.99989 2.00043C11.8458 2.00043 13.5429 2.63427 14.8968 3.68833L3.68822 14.8969C2.63524 13.5419 2.00032 11.845 2.00032 10L2.00021 10.0001ZM10 0C4.47796 0 0 4.47689 0 10C0 15.522 4.47796 20 10 20C15.522 20 20 15.522 20 10C20 4.47689 15.522 0 10 0Z" fill="#070707"/>
</svg>
