<svg width="48" height="29" viewBox="0 0 48 29" fill="none" xmlns="http://www.w3.org/2000/svg">
<path d="M3.8147e-06 14.5039C0.0196991 15.0222 0.227489 15.6215 0.573635 15.9993L11.8679 28.3248C12.6331 29.0313 14.1009 29.3226 14.9562 28.5059C15.7986 27.7013 15.7735 26.1416 14.9345 25.334L6.99336 16.6789L45.8822 16.6789C47.0516 16.6789 48 15.7049 48 14.5038C48 13.3027 47.0517 12.3286 45.8822 12.3286L6.99336 12.3286L14.9345 3.67361C15.6573 2.93019 15.7908 1.31487 14.9562 0.501701C14.1221 -0.312016 12.6021 -0.0520649 11.8679 0.683249L0.573635 13.0088C0.187115 13.4305 -0.000980377 13.9256 3.8147e-06 14.5042V14.5039Z" fill="#4CBBEC"/>
</svg>
