<svg width="22" height="31" viewBox="0 0 22 31" fill="none" xmlns="http://www.w3.org/2000/svg">
<path d="M19.026 12.6347H18.7142L18.7144 7.88699C18.7144 3.53777 15.2537 0 11.0001 0C6.74656 0 3.2859 3.53795 3.2859 7.88699V12.6347H2.97408C1.33239 12.6347 0 13.9958 0 15.6756V27.9591C0 29.6388 1.33193 31 2.97408 31H19.0257C20.6674 31 21.9998 29.6391 21.9998 27.9591L22 15.6756C21.9998 13.9961 20.6676 12.6347 19.0259 12.6347H19.026ZM6.19915 7.88699C6.19915 5.18036 8.35274 2.97838 11.0001 2.97838C13.6475 2.97838 15.8011 5.18036 15.8011 7.88699V12.6347H6.19903L6.19915 7.88699ZM12.2412 23.2006V26.3941C12.2412 27.0947 11.6855 27.6629 11.0002 27.6629C10.315 27.6629 9.75929 27.0948 9.75929 26.3941V23.2006C8.76966 22.7236 8.08396 21.6977 8.08396 20.5048C8.08396 18.8576 9.38947 17.5225 11.0005 17.5225C12.6115 17.5225 13.917 18.8576 13.917 20.5048C13.9168 21.6977 13.2308 22.7232 12.2412 23.2006Z" fill="#B3B3B3"/>
</svg>
