<?xml version="1.0" standalone="no"?>
<svg width="82" height="15" viewBox="0 0 82 15" fill="none" xmlns="http://www.w3.org/2000/svg">
<path fill-rule="evenodd" clip-rule="evenodd" d="M5.86235 11.1553H11.7254C12.9125 11.1553 14.0625 9.88075 14.0625 8.6063V3.48673C14.0625 2.21252 12.9125 0.9375 11.7254 0.9375H2.35614C1.16901 0.9375 0 2.21252 0 3.48673V8.6063C0 9.88075 1.16901 11.1553 2.35614 11.1553V15L5.86235 11.1553Z" fill="#F00"/>
<path d="M21.9799 13.9599C22.2957 13.9599 22.5 14.1471 22.5 14.4799C22.5 14.8127 22.2957 15 21.9799 15H17.4322C17.0979 15 16.875 14.7711 16.875 14.376V1.56161C16.875 1.16635 17.0607 0.9375 17.3951 0.9375C17.7108 0.9375 17.8965 1.16635 17.8965 1.56161V13.9599H21.9799Z" fill="#FBFBFB"/>
<path d="M25.3125 1.67651C25.3125 1.21202 25.4805 0.9375 25.7743 0.9375C26.0821 0.9375 26.25 1.21202 26.25 1.67651C26.25 2.11993 26.0821 2.37329 25.7743 2.37329C25.4805 2.37329 25.3125 2.11993 25.3125 1.67651ZM26.1381 5.30826V14.4087C26.1381 14.7677 26.0121 15 25.7743 15C25.5504 15 25.4245 14.7677 25.4245 14.4087V5.30826C25.4245 4.92822 25.5504 4.69593 25.7743 4.69593C26.0121 4.69593 26.1381 4.92822 26.1381 5.30826Z" fill="#FBFBFB"/>
<path d="M39.375 5.21581C39.375 5.34259 39.3359 5.44829 39.2773 5.57507L35.2343 14.5773C35.1172 14.8309 34.9414 15 34.6679 15C34.3945 15 34.2578 14.8309 34.1406 14.5773L30.0781 5.5539C30.0195 5.40602 30 5.30033 30 5.21581C30 4.91998 30.1953 4.6875 30.4883 4.6875C30.7421 4.6875 30.8593 4.79319 30.9961 5.08902L34.6875 13.4151H34.7266L38.418 5.04676C38.5352 4.79319 38.6914 4.6875 38.9063 4.6875C39.1992 4.6875 39.375 4.89881 39.375 5.21581Z" fill="#FBFBFB"/>
<path d="M41.25 1.67651C41.25 1.21202 41.4179 0.9375 41.7117 0.9375C42.0196 0.9375 42.1875 1.21202 42.1875 1.67651C42.1875 2.11993 42.0196 2.37329 41.7117 2.37329C41.4179 2.37329 41.25 2.11993 41.25 1.67651ZM42.0756 5.30826V14.4087C42.0756 14.7677 41.9496 15 41.7117 15C41.4879 15 41.362 14.7677 41.362 14.4087V5.30826C41.362 4.92822 41.4879 4.69593 41.7117 4.69593C41.9496 4.69593 42.0756 4.92822 42.0756 5.30826Z" fill="#FBFBFB"/>
<path d="M52.3698 13.1993C51.8493 14.3783 50.7896 15 49.3581 15C47.2203 15 45.9375 13.4566 45.9375 10.8627V2.20223C45.9375 1.40916 46.3279 0.9375 46.9599 0.9375C47.5921 0.9375 47.9825 1.40916 47.9825 2.20223V4.47454H51.0685C51.7006 4.47454 52.091 4.88185 52.091 5.56787C52.091 6.2324 51.7006 6.63972 51.0685 6.63972H47.9825V10.927C47.9825 12.1489 48.5401 12.8349 49.4511 12.8349C50.046 12.8349 50.4922 12.5133 50.771 11.9989C50.9383 11.6988 51.1986 11.4844 51.5518 11.4844C52.091 11.4844 52.5 11.8703 52.5 12.5777C52.5 12.8135 52.4442 13.0279 52.3698 13.1993Z" fill="#4CBBEC"/>
<path d="M65.625 6.02008V13.6673C65.625 14.4259 65.202 14.877 64.4971 14.877C63.8324 14.877 63.4094 14.4259 63.4094 13.6673V13.5649H63.3691C62.6239 14.4874 61.4758 15 60.0256 15C57.1857 15 55.3125 12.9498 55.3125 9.85398C55.3125 6.73772 57.1857 4.6875 60.0256 4.6875C61.4758 4.6875 62.6239 5.20006 63.3691 6.12262H63.4094V6.02008C63.4094 5.28206 63.8324 4.8105 64.4971 4.8105C65.202 4.8105 65.625 5.28206 65.625 6.02008ZM63.4094 9.85398C63.4094 8.0293 62.2009 6.75818 60.4687 6.75818C58.7568 6.75818 57.5684 8.00876 57.5684 9.85398C57.5684 11.6787 58.7568 12.9293 60.4687 12.9293C62.2009 12.9293 63.4094 11.6582 63.4094 9.85398Z" fill="#4CBBEC"/>
<path d="M69.375 1.24301V13.757C69.375 14.5365 69.0341 15 68.4375 15C67.858 15 67.5 14.5365 67.5 13.757V1.24301C67.5 0.463532 67.858 0 68.4375 0C69.0341 0 69.375 0.463532 69.375 1.24301Z" fill="#4CBBEC"/>
<path d="M81.2031 12.8932C81.4112 13.1671 81.5625 13.441 81.5625 13.8413C81.5625 14.5365 81.1463 15 80.522 15C80.1626 15 79.8598 14.8104 79.6328 14.4943L76.6817 10.5126L75.206 11.7766V13.757C75.206 14.5365 74.8277 15 74.1655 15C73.5223 15 73.125 14.5365 73.125 13.757V1.24301C73.125 0.463532 73.5223 0 74.1655 0C74.8277 0 75.206 0.463532 75.206 1.24301V9.1854L79.6328 5.05615C79.9166 4.80336 80.1436 4.65594 80.4653 4.65594C81.0706 4.65594 81.4679 5.11939 81.4679 5.7935C81.4679 6.17276 81.3544 6.46769 81.0517 6.72048L78.2896 9.12216L81.2031 12.8932Z" fill="#4CBBEC"/>
<path fill-rule="evenodd" clip-rule="evenodd" d="M5.86235 11.1553H11.7254C12.9125 11.1553 14.0625 9.88075 14.0625 8.6063V3.48673C14.0625 2.21252 12.9125 0.9375 11.7254 0.9375H2.35614C1.16901 0.9375 0 2.21252 0 3.48673V8.6063C0 9.88075 1.16901 11.1553 2.35614 11.1553V15L5.86235 11.1553Z" fill="#FBFBFB"/>
<path fill-rule="evenodd" clip-rule="evenodd" d="M8.30057 10.0492H2.86091C1.88393 10.0492 0.9375 9.02958 0.9375 8.01002V3.91444C0.9375 2.89496 1.88393 1.875 2.86091 1.875H11.186C12.1629 1.875 13.125 2.89496 13.125 3.91444V8.01002C13.125 9.02958 12.1629 10.0492 11.186 10.0492V13.125L8.30057 10.0492Z" fill="#4CBBEC"/>




</svg>
