<svg width="21" height="20" viewBox="0 0 21 20" fill="none" xmlns="http://www.w3.org/2000/svg">
<path fill-rule="evenodd" clip-rule="evenodd" d="M15.3974 16.3362L18.8579 19.791C19.1368 20.0697 19.5904 20.0697 19.8693 19.791C20.1485 19.5124 20.1485 19.0597 19.8693 18.7811L16.409 15.3262C17.804 13.7019 18.6475 11.5912 18.6475 9.2855C18.6475 4.16072 14.4802 0 9.3472 0C4.21424 0 0.046875 4.16072 0.046875 9.2855C0.046875 14.4103 4.21424 18.571 9.3472 18.571C11.6565 18.571 13.7705 17.7289 15.3975 16.336L15.3974 16.3362ZM9.34708 1.42874C13.6902 1.42874 17.2166 4.94923 17.2166 9.28571C17.2166 13.6219 13.6903 17.1427 9.34708 17.1427C5.00352 17.1427 1.47757 13.622 1.47757 9.28571C1.47757 4.94907 5.00368 1.42874 9.34708 1.42874ZM9.34708 14.2856C6.58335 14.2856 4.33921 12.0455 4.33921 9.28571C4.33921 8.89142 4.01855 8.57144 3.6238 8.57144C3.22889 8.57144 2.90839 8.89142 2.90839 9.28571C2.90839 12.8335 5.79349 15.7141 9.34708 15.7141C9.74183 15.7141 10.0625 15.394 10.0625 14.9999C10.0625 14.6056 9.74183 14.2856 9.34708 14.2856Z" fill="#4CBBEC"/>
</svg>
