<svg width="32" height="20" viewBox="0 0 32 20" fill="none" xmlns="http://www.w3.org/2000/svg">
<path d="M22 0C20.6868 -1.95685e-08 19.3864 0.258657 18.1732 0.761204C16.9599 1.26375 15.8575 2.00035 14.9289 2.92893C14.0003 3.85752 13.2638 4.95991 12.7612 6.17317C12.2587 7.38642 12 8.68678 12 10C12 11.3132 12.2587 12.6136 12.7612 13.8268C13.2638 15.0401 14.0003 16.1425 14.9289 17.0711C15.8575 17.9997 16.9599 18.7362 18.1732 19.2388C19.3864 19.7413 20.6868 20 22 20C23.3132 20 24.6136 19.7413 25.8268 19.2388C27.0401 18.7362 28.1425 17.9997 29.0711 17.0711C29.9997 16.1425 30.7362 15.0401 31.2388 13.8268C31.7413 12.6136 32 11.3132 32 10C32 8.68678 31.7413 7.38642 31.2388 6.17317C30.7362 4.95991 29.9997 3.85752 29.0711 2.92893C28.1425 2.00035 27.0401 1.26375 25.8268 0.761204C24.6136 0.258657 23.3132 -1.95685e-08 22 0V0Z" fill="#FF9800"/>
<path d="M10 0C8.68678 -1.95685e-08 7.38642 0.258657 6.17317 0.761204C4.95991 1.26375 3.85752 2.00035 2.92893 2.92893C2.00035 3.85752 1.26375 4.95991 0.761205 6.17317C0.258658 7.38642 0 8.68678 0 10C0 11.3132 0.258658 12.6136 0.761205 13.8268C1.26375 15.0401 2.00035 16.1425 2.92893 17.0711C3.85752 17.9997 4.95991 18.7362 6.17317 19.2388C7.38642 19.7413 8.68678 20 10 20C11.3132 20 12.6136 19.7413 13.8268 19.2388C15.0401 18.7362 16.1425 17.9997 17.0711 17.0711C17.9997 16.1425 18.7362 15.0401 19.2388 13.8268C19.7413 12.6136 20 11.3132 20 10C20 8.68678 19.7413 7.38642 19.2388 6.17317C18.7362 4.95991 17.9997 3.85752 17.0711 2.92893C16.1425 2.00035 15.0401 1.26375 13.8268 0.761204C12.6136 0.258657 11.3132 -1.95685e-08 10 0V0Z" fill="#D50000"/>
</svg>
