<svg width="21" height="21" viewBox="0 0 21 21" fill="none" xmlns="http://www.w3.org/2000/svg">
<path d="M15.6328 8.37352C15.6342 7.97332 15.4751 7.58927 15.1911 7.30724L13.3309 5.44706H13.3311C13.0435 5.17308 12.6615 5.02012 12.2644 5.02012C11.8671 5.02012 11.4852 5.17308 11.1978 5.44706L4.78077 11.864C4.65975 11.9851 4.59184 12.1492 4.59164 12.3204L4.5878 15.4033V15.4031C4.5878 15.7602 4.87717 16.0496 5.23427 16.0496L8.31716 16.0454H8.31697C8.48898 16.0461 8.65425 15.9784 8.77604 15.857L15.1911 9.44002C15.4748 9.15776 15.634 8.77355 15.6328 8.37335L15.6328 8.37352ZM14.277 8.52609L8.04866 14.7539L5.88123 14.757L5.88373 12.5896L12.1116 6.36273C12.152 6.32213 12.2068 6.29942 12.2642 6.29942C12.3213 6.29942 12.3761 6.32213 12.4167 6.36273L14.2773 8.22325C14.3175 8.26346 14.34 8.3181 14.3396 8.37505C14.3394 8.43162 14.3169 8.48607 14.2767 8.52628L14.277 8.52609ZM16.4121 15.4041C16.4121 15.7612 16.1227 16.0506 15.7656 16.0506H11.1231C10.766 16.0506 10.4767 15.7612 10.4767 15.4041C10.4767 15.047 10.766 14.7576 11.1231 14.7576H15.7656C16.1227 14.7576 16.4121 15.047 16.4121 15.4041ZM16.9057 0H4.09435C3.00881 0.0011544 1.96809 0.43291 1.2004 1.2004C0.432905 1.96809 0.00113287 3.00881 0 4.09435V16.9057C0.0011544 17.9912 0.43291 19.0319 1.2004 19.7996C1.96809 20.5671 3.00881 20.9989 4.09435 21H16.9057C17.9912 20.9988 19.0319 20.5671 19.7996 19.7996C20.5671 19.0319 20.9989 17.9912 21 16.9057V4.09435C20.9988 3.00881 20.5671 1.96809 19.7996 1.2004C19.0319 0.432905 17.9912 0.00113287 16.9057 0ZM19.707 16.9059C19.7061 17.6486 19.4107 18.3607 18.8855 18.8857C18.3604 19.411 17.6483 19.7063 16.9057 19.7073H4.09435C3.35168 19.7063 2.63959 19.411 2.11453 18.8857C1.58927 18.3607 1.29394 17.6486 1.29295 16.9059V4.09459C1.29391 3.35192 1.58925 2.63984 2.11453 2.11478C2.63959 1.58952 3.35168 1.29418 4.09435 1.2932H16.9057C17.6483 1.29416 18.3604 1.5895 18.8855 2.11478C19.4107 2.63984 19.7061 3.35192 19.707 4.09459V16.9059Z" fill="black"/>
</svg>
