<?xml version="1.0" encoding="utf-8"?>
<!-- Generator: Adobe Illustrator 16.0.0, SVG Export Plug-In . SVG Version: 6.00 Build 0)  -->
<!DOCTYPE svg PUBLIC "-//W3C//DTD SVG 1.0//EN" "http://www.w3.org/TR/2001/REC-SVG-20010904/DTD/svg10.dtd">
<svg version="1.0" id="Layer_1" xmlns="http://www.w3.org/2000/svg" xmlns:xlink="http://www.w3.org/1999/xlink" x="0px" y="0px"
	 width="19px" height="19px" viewBox="0 0 19 19" enable-background="new 0 0 19 19" xml:space="preserve">
<path fill="#FFFFFF" d="M3.005,0H16.03c1.659,0,3.005,1.346,3.005,3.005V16.03c0,1.659-1.346,3.005-3.005,3.005H3.005
	C1.346,19.035,0,17.689,0,16.03V3.005C0,1.346,1.346,0,3.005,0z"/>
<path fill="#4CBBEC" d="M12.656,7.808c0-0.268-0.105-0.524-0.295-0.712l-1.242-1.243l0,0c-0.193-0.183-0.448-0.285-0.713-0.285
	c-0.266,0-0.521,0.102-0.713,0.285l-4.285,4.286c-0.082,0.081-0.127,0.19-0.127,0.305l-0.002,2.06v-0.001
	c0,0.239,0.193,0.433,0.432,0.433l2.059-0.003l0,0c0.115,0,0.225-0.045,0.307-0.126l4.285-4.286
	C12.551,8.331,12.656,8.074,12.656,7.808L12.656,7.808z M11.751,7.909l-4.16,4.16l-1.448,0.002l0.001-1.448l4.159-4.159
	c0.027-0.027,0.064-0.042,0.103-0.042s0.074,0.016,0.102,0.042l1.243,1.242c0.026,0.027,0.042,0.063,0.042,0.103
	C11.792,7.847,11.777,7.882,11.751,7.909L11.751,7.909z M13.177,12.504c0,0.237-0.193,0.431-0.433,0.431h-3.1
	c-0.239,0-0.433-0.193-0.433-0.431c0-0.239,0.193-0.433,0.433-0.433h3.1C12.983,12.071,13.177,12.265,13.177,12.504z M13.506,2.215
	H4.949c-0.725,0-1.42,0.289-1.933,0.801C2.504,3.529,2.215,4.224,2.215,4.95v8.556c0,0.725,0.289,1.42,0.801,1.934
	c0.513,0.513,1.208,0.801,1.933,0.802h8.557c0.725-0.001,1.42-0.289,1.934-0.802c0.513-0.514,0.801-1.209,0.802-1.934V4.95
	c-0.001-0.726-0.289-1.42-0.802-1.934C14.926,2.504,14.23,2.215,13.506,2.215L13.506,2.215z M15.377,13.507
	c0,0.495-0.197,0.971-0.549,1.321c-0.351,0.352-0.826,0.549-1.322,0.549H4.949c-0.496,0-0.972-0.197-1.322-0.549
	c-0.351-0.351-0.548-0.826-0.549-1.321V4.95c0.001-0.496,0.198-0.972,0.549-1.322c0.351-0.351,0.826-0.548,1.322-0.549h8.557
	c0.496,0.001,0.972,0.198,1.322,0.549c0.352,0.351,0.549,0.826,0.549,1.322V13.507z"/>
</svg>
