<svg width="21" height="21" viewBox="0 0 21 21" fill="none" xmlns="http://www.w3.org/2000/svg">
<path d="M15.7013 8.18464C15.7026 7.79347 15.5471 7.41809 15.2695 7.14241L13.4513 5.32419H13.4514C13.1703 5.05639 12.797 4.90688 12.4088 4.90688C12.0205 4.90688 11.6472 5.05639 11.3662 5.32419L5.09399 11.5964C4.9757 11.7147 4.90931 11.8751 4.90912 12.0425L4.90536 15.0559V15.0557C4.90536 15.4047 5.18821 15.6876 5.53726 15.6876L8.55061 15.6834H8.55042C8.71855 15.6842 8.8801 15.618 8.99914 15.4993L15.2694 9.22709C15.5468 8.95119 15.7024 8.57565 15.7012 8.18447L15.7013 8.18464ZM14.376 8.33378L8.28816 14.4211L6.16962 14.4241L6.17207 12.3056L12.2594 6.21921C12.2989 6.17952 12.3525 6.15733 12.4086 6.15733C12.4644 6.15733 12.518 6.17952 12.5577 6.21921L14.3763 8.03776C14.4156 8.07707 14.4376 8.13048 14.4372 8.18614C14.437 8.24143 14.415 8.29465 14.3757 8.33396L14.376 8.33378ZM16.463 15.0566C16.463 15.4057 16.1801 15.6885 15.8311 15.6885H11.2933C10.9442 15.6885 10.6614 15.4057 10.6614 15.0566C10.6614 14.7076 10.9442 14.4247 11.2933 14.4247H15.8311C16.1801 14.4247 16.463 14.7076 16.463 15.0566ZM16.9454 0H4.42304C3.36199 0.00112836 2.34475 0.423145 1.59438 1.17332C0.844191 1.9237 0.422158 2.94094 0.421051 4.00199V16.5243C0.422179 17.5854 0.844196 18.6026 1.59438 19.353C2.34475 20.1032 3.36199 20.5252 4.42304 20.5263H16.9454C18.0064 20.5252 19.0237 20.1032 19.774 19.353C20.5242 18.6026 20.9463 17.5854 20.9474 16.5243V4.00199C20.9462 2.94094 20.5242 1.9237 19.774 1.17332C19.0237 0.42314 18.0064 0.00110732 16.9454 0ZM19.6836 16.5246C19.6826 17.2505 19.394 17.9465 18.8805 18.4597C18.3673 18.9731 17.6713 19.2618 16.9454 19.2628H4.42304C3.69712 19.2618 3.0011 18.9732 2.48788 18.4597C1.97447 17.9465 1.6858 17.2505 1.68484 16.5246V4.00223C1.68578 3.27631 1.97445 2.58029 2.48788 2.06708C3.0011 1.55366 3.69712 1.26499 4.42304 1.26403H16.9454C17.6713 1.26497 18.3673 1.55365 18.8805 2.06708C19.3939 2.58029 19.6826 3.27631 19.6836 4.00223V16.5246Z" fill="white"/>
</svg>
