<?xml version="1.0" encoding="utf-8"?>
<!-- Generator: Adobe Illustrator 16.0.0, SVG Export Plug-In . SVG Version: 6.00 Build 0)  -->
<!DOCTYPE svg PUBLIC "-//W3C//DTD SVG 1.1//EN" "http://www.w3.org/Graphics/SVG/1.1/DTD/svg11.dtd">
<svg version="1.1" id="Layer_1" xmlns="http://www.w3.org/2000/svg" xmlns:xlink="http://www.w3.org/1999/xlink" x="0px" y="0px"
	 width="42px" height="42px" viewBox="0 0 42 42" enable-background="new 0 0 42 42" xml:space="preserve">
<g>
	<circle fill="#FBFBFB" cx="21" cy="21" r="21"/>
</g>
<path fill="#4CBBEC" d="M27.1,17.766c0.002-0.514-0.203-1.008-0.568-1.371l-2.392-2.392h0.001c-0.371-0.352-0.861-0.549-1.372-0.549
	s-1.002,0.197-1.372,0.549l-8.25,8.25c-0.155,0.155-0.243,0.367-0.243,0.586l-0.005,3.964l0,0c0,0.459,0.372,0.83,0.832,0.83
	l3.963-0.005l0,0c0.221,0.001,0.434-0.086,0.59-0.242l8.248-8.25C26.896,18.774,27.101,18.28,27.1,17.766L27.1,17.766z
	 M25.355,17.962l-8.007,8.007l-2.787,0.004l0.003-2.786l8.007-8.006c0.052-0.052,0.122-0.082,0.195-0.082
	c0.074,0,0.145,0.029,0.197,0.082l2.392,2.392c0.052,0.052,0.081,0.122,0.08,0.195C25.437,17.841,25.407,17.911,25.355,17.962
	L25.355,17.962z M28.102,26.805c0,0.46-0.373,0.832-0.832,0.832h-5.968c-0.459,0-0.831-0.372-0.831-0.832
	c0-0.459,0.372-0.83,0.831-0.83h5.968C27.729,25.975,28.102,26.346,28.102,26.805z M28.736,7H12.264
	C10.869,7.001,9.53,7.557,8.543,8.543S7.001,10.869,7,12.264v16.472c0.001,1.395,0.557,2.733,1.543,3.721
	c0.987,0.986,2.325,1.541,3.721,1.543h16.472c1.395-0.002,2.733-0.557,3.721-1.543c0.986-0.987,1.541-2.326,1.543-3.721V12.264
	c-0.002-1.396-0.557-2.734-1.543-3.721C31.47,7.557,30.131,7.001,28.736,7z M32.338,28.736c-0.002,0.955-0.381,1.87-1.057,2.545
	c-0.676,0.676-1.59,1.056-2.545,1.057H12.264c-0.955-0.001-1.87-0.381-2.545-1.057c-0.675-0.675-1.055-1.59-1.056-2.545V12.265
	c0.001-0.955,0.381-1.871,1.056-2.546c0.675-0.675,1.59-1.055,2.545-1.056h16.472c0.955,0.001,1.869,0.381,2.545,1.056
	s1.055,1.591,1.057,2.546V28.736z"/>
</svg>
