<?xml version="1.0" encoding="utf-8"?>
<!-- Generator: Adobe Illustrator 16.0.0, SVG Export Plug-In . SVG Version: 6.00 Build 0)  -->
<!DOCTYPE svg PUBLIC "-//W3C//DTD SVG 1.1//EN" "http://www.w3.org/Graphics/SVG/1.1/DTD/svg11.dtd">
<svg version="1.1" id="Layer_1" xmlns="http://www.w3.org/2000/svg" xmlns:xlink="http://www.w3.org/1999/xlink" x="0px" y="0px"
	 width="14.027px" height="14.027px" viewBox="2.215 2.215 14.027 14.027" enable-background="new 2.215 2.215 14.027 14.027"
	 xml:space="preserve">
<path fill="#4CBBEC" d="M12.656,7.808c0-0.268-0.105-0.524-0.295-0.712l-1.242-1.243l0,0c-0.193-0.183-0.448-0.285-0.713-0.285
	c-0.266,0-0.521,0.102-0.713,0.285l-4.285,4.286c-0.082,0.081-0.127,0.19-0.127,0.305l-0.002,2.061v-0.001
	c0,0.239,0.193,0.433,0.432,0.433l2.059-0.002l0,0c0.115,0,0.225-0.045,0.307-0.127l4.284-4.286
	C12.551,8.331,12.656,8.074,12.656,7.808L12.656,7.808z M11.751,7.909l-4.16,4.159L6.143,12.07l0.001-1.447l4.159-4.159
	c0.027-0.027,0.064-0.042,0.104-0.042s0.074,0.016,0.102,0.042l1.243,1.242c0.026,0.027,0.042,0.063,0.042,0.103
	C11.792,7.847,11.777,7.882,11.751,7.909L11.751,7.909z M13.177,12.504c0,0.237-0.192,0.432-0.433,0.432h-3.1
	c-0.239,0-0.433-0.193-0.433-0.432s0.193-0.434,0.433-0.434h3.1C12.982,12.07,13.177,12.266,13.177,12.504z M13.506,2.215H4.949
	c-0.725,0-1.42,0.289-1.933,0.801C2.504,3.529,2.215,4.224,2.215,4.95v8.556c0,0.725,0.289,1.42,0.801,1.934
	c0.513,0.514,1.208,0.802,1.933,0.803h8.557c0.725-0.001,1.42-0.289,1.934-0.803s0.802-1.209,0.803-1.934V4.95
	c-0.001-0.726-0.289-1.42-0.803-1.934C14.926,2.504,14.23,2.215,13.506,2.215L13.506,2.215z M15.377,13.507
	c0,0.495-0.197,0.972-0.549,1.321c-0.352,0.352-0.826,0.549-1.322,0.549H4.949c-0.496,0-0.972-0.197-1.322-0.549
	c-0.351-0.352-0.548-0.826-0.549-1.321V4.95c0.001-0.496,0.198-0.972,0.549-1.322C3.978,3.277,4.453,3.08,4.949,3.079h8.557
	c0.496,0.001,0.973,0.198,1.322,0.549c0.352,0.351,0.549,0.826,0.549,1.322V13.507z"/>
</svg>
