<svg width="30" height="30" viewBox="0 0 30 30" fill="none" xmlns="http://www.w3.org/2000/svg">
<path d="M25.7053 0.00304176C25.1411 0.00931979 24.5797 0.207602 24.1387 0.659359L11.5031 13.6072L11.4689 13.6422C11.1174 13.9854 11.0514 14.2347 10.9084 14.5798C10.7599 14.9387 10.6229 15.3721 10.5083 15.8571C10.2791 16.827 10.1431 18.0164 10.3483 19.2318C10.4256 19.6838 10.799 20.0665 11.2402 20.1457C12.4261 20.3558 13.587 20.2166 14.5332 19.9817C15.0064 19.8643 15.418 19.7241 15.7681 19.5716C16.1045 19.4253 16.3482 19.3453 16.683 18.9856C16.6968 18.9707 16.7032 18.9665 16.7172 18.9503L24.1956 11.2867C24.6433 10.8802 24.6655 10.0782 24.2408 9.64635C23.8162 9.21449 23.034 9.24299 22.6405 9.70495L15.1849 17.3451C15.2081 17.309 15.0739 17.4264 14.9106 17.4973C14.6926 17.592 14.3823 17.7 14.0187 17.7903C13.546 17.9075 13.001 17.9614 12.4635 17.9661C12.4688 17.418 12.5211 16.8658 12.635 16.3843C12.723 16.0115 12.8399 15.6819 12.9323 15.4585C12.9848 15.3319 13.031 15.2548 13.0351 15.2359L23.4182 4.58503L25.522 6.75278L24.836 7.45592C24.429 7.87315 24.429 8.63224 24.836 9.0495C25.2431 9.46673 25.9839 9.46673 26.3912 9.0495L29.3528 6.00283C30.3618 4.97062 30.1092 3.33311 29.1583 2.35869C28.6704 1.8588 28.1824 1.35889 27.6948 0.85879C27.2194 0.37146 26.589 0.0612284 25.9454 0.00343694C25.8651 -0.00388777 25.7859 0.00265217 25.7053 0.00343694L25.7053 0.00304176ZM25.6938 2.25296C25.6862 2.2608 25.873 2.17866 26.1397 2.45229C26.6271 2.95662 27.1211 3.45416 27.6147 3.95218C27.8817 4.2258 27.8005 4.4178 27.8092 4.40917L27.0773 5.15912L24.9734 2.99137L25.6938 2.25296ZM3.65905 5.25255C1.65091 5.25255 0 6.94451 0 9.0021V26.2505C0 28.3083 1.65091 30 3.65905 30H20.4909C22.499 30 24.1499 28.308 24.1499 26.2505V15.3766C24.1581 14.7822 23.6321 14.2358 23.0523 14.2358C22.4723 14.2358 21.9463 14.7823 21.9547 15.3766V26.2505C21.9547 27.1009 21.3208 27.7504 20.4912 27.7504H3.65931C2.82941 27.7504 2.19577 27.1008 2.19577 26.2505V9.0021C2.19577 8.1517 2.82968 7.5022 3.65931 7.5022H15.3686C15.9486 7.51057 16.482 6.9717 16.482 6.37737C16.482 5.78305 15.9486 5.24418 15.3686 5.25255H3.65905Z" fill="#4CBBEC"/>
</svg>
