<svg width="20" height="20" viewBox="0 0 20 20" fill="none" xmlns="http://www.w3.org/2000/svg">
<path d="M10 0C4.48615 0 0 4.48577 0 10C0 15.5142 4.48577 20 10 20C15.5142 20 20 15.5142 20 10C20 4.48577 15.5142 0 10 0ZM10 18.9951C5.04023 18.9951 1.00455 14.9598 1.00455 9.99962C1.00455 5.03947 5.04023 1.00417 10 1.00417C14.9602 1.00417 18.9954 5.03947 18.9954 9.99962C18.9954 14.9598 14.9602 18.9951 10 18.9951Z" fill="#FF9800"/>
<path d="M14.5033 8.26562H5.49877C4.80678 8.26562 4.24609 9.04137 4.24609 9.9983C4.24609 10.9554 4.80674 11.731 5.49877 11.731H14.5033C15.1953 11.731 15.7562 10.9552 15.7562 9.9983C15.7562 9.04122 15.1954 8.26562 14.5035 8.26562H14.5033Z" fill="#FF9800"/>
</svg>
