<svg width="60" height="51" viewBox="0 0 60 51" fill="none" xmlns="http://www.w3.org/2000/svg">
<path d="M21.3371 0C15.108 0 10.041 5.25303 10.041 11.7117C10.041 18.1698 15.108 23.4235 21.3371 23.4235C27.5662 23.4235 32.6332 18.1688 32.6332 11.7117C32.6332 5.25483 27.5662 0 21.3371 0Z" fill="#4CBBEC"/>
<path d="M42.6741 47.3136C42.6741 35.8477 33.1026 26.5195 21.337 26.5195C9.57147 26.5195 0 35.8485 0 47.3136C0 47.3517 0.0100857 47.3869 0.0112064 47.4239C0.0100857 47.4626 0 47.4978 0 47.5359C0 48.9869 1.12456 50.1645 2.51024 50.1645H40.1638C41.5495 50.1645 42.6741 48.9869 42.6741 47.5359C42.6741 47.4978 42.664 47.4626 42.6629 47.4245C42.664 47.3875 42.6741 47.3505 42.6741 47.3136ZM19.7262 38.5619C16.2157 39.6367 13.3688 42.284 12.1087 45.6408C11.9154 46.1588 11.4408 46.4751 10.9404 46.4751C10.7874 46.4751 10.6328 46.4463 10.4821 46.383C9.83546 46.1178 9.51831 45.355 9.77271 44.6797C11.3141 40.5725 14.7708 37.342 19.0203 36.0396C19.6882 35.836 20.3835 36.2356 20.5779 36.932C20.7729 37.629 20.3902 38.3583 19.7262 38.562L19.7262 38.5619Z" fill="#4CBBEC"/>
<path d="M56.3123 23.5017L36.9914 42.8682L29.1428 35.0002C28.476 34.3319 27.3944 34.3319 26.7276 35.0002C26.0608 35.6686 26.0608 36.7528 26.7276 37.4211L35.7838 46.4987C36.4506 47.1671 37.5323 47.1671 38.199 46.4987L58.7275 25.9219C59.3942 25.2535 59.3942 24.1699 58.7275 23.5016C58.0604 22.8329 56.9799 22.8329 56.3126 23.501L56.3123 23.5017Z" fill="black"/>
</svg>
