<svg width="25" height="25" viewBox="0 0 25 25" fill="none" xmlns="http://www.w3.org/2000/svg">
<path d="M23.5945 7.53822V2.42764L12.6067 13.4155L11.5845 12.3933L22.5723 1.40543H17.4618V0H25V7.53829L23.5945 7.53822ZM24.9997 19.889V12.9472H23.5943V19.8465C23.5943 21.8907 21.9333 23.5944 19.8464 23.5944H5.15336C3.10919 23.5944 1.4055 21.9335 1.4055 19.8465V5.1534C1.4055 3.10921 3.06645 1.40551 5.15336 1.40551H12.0101V7.60096e-05H5.15336C2.29993 7.60096e-05 0 2.29972 0 5.15347V19.8466C0 22.7001 2.29963 25 5.15336 25H19.8464C22.7001 24.9997 24.9998 22.7001 24.9998 19.8891L24.9997 19.889Z" fill="#4CBBEC"/>
</svg>
