<svg width="22" height="30" viewBox="0 0 22 30" fill="none" xmlns="http://www.w3.org/2000/svg">
<path d="M10.9996 6.03543C8.19655 6.03543 5.91617 8.36163 5.91617 11.221C5.91617 14.0804 8.19655 16.4067 10.9996 16.4067C13.8027 16.4067 16.0831 14.0804 16.0831 11.221C16.0831 8.36163 13.8027 6.03543 10.9996 6.03543ZM10.9996 14.5314C9.21322 14.5314 7.75426 13.049 7.75426 11.2208C7.75426 9.39268 9.21322 7.91023 10.9996 7.91023C12.786 7.91023 14.245 9.39268 14.245 11.2208C14.245 13.049 12.786 14.5314 10.9996 14.5314ZM10.9996 0C4.93395 0 0 5.03325 0 11.2207C0 13.2363 0.930544 15.7793 2.83753 18.9961C4.42291 21.668 6.38735 24.3224 8.11652 26.6601C8.91493 27.7383 9.66739 28.7578 10.2475 29.6016C10.4199 29.8535 10.7013 30 11 30C11.2987 30 11.5802 29.8535 11.7525 29.6016C12.3326 28.7578 13.0851 27.7383 13.8835 26.6601C15.6124 24.3222 17.5712 21.6679 19.1625 18.9961C21.0695 15.7793 22 13.236 22 11.2207C22 5.03309 17.0659 0 11.0004 0L10.9996 0ZM12.4184 25.5298C11.9187 26.2036 11.4362 26.854 10.9996 27.4575C10.5631 26.854 10.0806 26.2036 9.58084 25.5298C6.31251 21.1117 1.83777 15.0591 1.83777 11.2212C1.83777 6.07073 5.95046 1.87556 10.9993 1.87556C16.0482 1.87556 20.1609 6.06505 20.1609 11.2212C20.1609 15.0592 15.6863 21.1117 12.4178 25.5298H12.4184Z" fill="#B3B3B3"/>
</svg>
