<svg width="28" height="30" viewBox="0 0 28 30" fill="none" xmlns="http://www.w3.org/2000/svg">
<path d="M14.5 0C10.3642 0 7 3.13969 7 7C7 10.86 10.3642 14 14.5 14C18.6358 14 22 10.8593 22 7C22 3.14077 18.6358 0 14.5 0Z" fill="#B3B3B3"/>
<path d="M28 28.312C28 21.5231 21.7198 16 14 16C6.28019 16 0 21.5236 0 28.312C0 28.3346 0.0066176 28.3554 0.00735294 28.3773C0.0066176 28.4002 0 28.4211 0 28.4437C0 29.3028 0.737864 30 1.64706 30H26.3529C27.2621 30 28 29.3028 28 28.4437C28 28.4211 27.9934 28.4002 27.9926 28.3777C27.9934 28.3558 28 28.3339 28 28.312ZM12.9431 23.1302C10.6397 23.7666 8.77177 25.334 7.94494 27.3215C7.8181 27.6283 7.50671 27.8155 7.1784 27.8155C7.07803 27.8155 6.97656 27.7985 6.87767 27.761C6.4534 27.604 6.24531 27.1524 6.41223 26.7525C7.42362 24.3207 9.69166 22.4079 12.4799 21.6368C12.9181 21.5162 13.3744 21.7528 13.5019 22.1651C13.6299 22.5778 13.3788 23.0097 12.9431 23.1303L12.9431 23.1302Z" fill="#B3B3B3"/>
</svg>
