<svg width="28" height="30" viewBox="0 0 28 30" fill="none" xmlns="http://www.w3.org/2000/svg">
<path d="M13.9997 0C9.91252 0 6.58789 3.14147 6.58789 7.00397C6.58789 10.8661 9.91252 14.0079 13.9997 14.0079C18.0869 14.0079 21.4115 10.8655 21.4115 7.00397C21.4115 3.14255 18.0869 0 13.9997 0Z" fill="#4CBBEC"/>
<path d="M28 28.2948C28 21.4379 21.7198 15.8594 14 15.8594C6.28019 15.8594 0 21.4384 0 28.2948C0 28.3176 0.0066176 28.3387 0.00735294 28.3608C0.0066176 28.384 0 28.405 0 28.4278C0 29.2955 0.737864 29.9998 1.64706 29.9998H26.3529C27.2621 29.9998 28 29.2955 28 28.4278C28 28.405 27.9934 28.384 27.9926 28.3611C27.9934 28.339 28 28.3169 28 28.2948ZM12.9431 23.0611C10.6397 23.7039 8.77177 25.287 7.94494 27.2944C7.8181 27.6043 7.50671 27.7934 7.1784 27.7934C7.07803 27.7934 6.97656 27.7762 6.87767 27.7383C6.4534 27.5797 6.24531 27.1236 6.41223 26.7197C7.42362 24.2635 9.69166 22.3315 12.4799 21.5527C12.9181 21.4309 13.3744 21.6698 13.5019 22.0863C13.6299 22.5032 13.3788 22.9393 12.9431 23.0611L12.9431 23.0611Z" fill="#4CBBEC"/>
</svg>
