<svg width="135" height="135" viewBox="0 0 135 135" fill="none" xmlns="http://www.w3.org/2000/svg">
<circle cx="67.5" cy="67.5" r="67.5" fill="#4CBBEC"/>
<path d="M34 65.4062V96.8125C34 99.125 35.8746 101 38.1875 101H96.8125C99.1254 101 101 99.125 101 96.8125V57.0312H34V65.4062ZM89.6507 59.125H98.9066V65.4062H87.2929L89.6507 59.125ZM68.6175 59.125H78.0165L75.6587 65.4062H66.2593L68.6175 59.125ZM47.5831 59.125H56.9821L54.6243 65.4062H45.2253L47.5831 59.125ZM36.0946 67.5H98.9071V96.8125C98.9071 97.9673 97.9677 98.9062 96.8133 98.9062H38.1883C37.034 98.9062 36.0946 97.9673 36.0946 96.8125V67.5Z" fill="white"/>
<path d="M95.8093 34C95.5714 34 95.3308 34.0201 95.0887 34.0617L37.4615 44.0248C35.1878 44.4173 33.6661 46.5635 34.0629 48.8161L35.1392 54.9375L101 43.5523L99.923 37.4323C99.5687 35.4185 97.8035 34 95.8098 34L95.8093 34ZM55.0075 49.3777L45.774 50.9743L46.9746 44.5042L56.2077 42.9082L55.0075 49.3777ZM75.6746 45.8053L66.4416 47.4014L67.6412 40.9323L76.8748 39.3358L75.6746 45.8053ZM87.1089 43.8288L88.309 37.3588L95.4442 36.1254C95.5657 36.1044 95.6886 36.0936 95.8101 36.0936C96.8252 36.0936 97.6874 36.8091 97.8614 37.7948L98.5746 41.8467L87.1089 43.8288Z" fill="white"/>
<path d="M69.5938 88.9609C69.5938 90.1172 68.6562 91.0547 67.5 91.0547C66.3438 91.0547 65.4062 90.1172 65.4062 88.9609C65.4062 87.8047 66.3438 86.8672 67.5 86.8672C68.6562 86.8672 69.5938 87.8047 69.5938 88.9609Z" fill="white"/>
<path d="M69.5938 77.4453C69.5938 78.6016 68.6562 79.5391 67.5 79.5391C66.3438 79.5391 65.4062 78.6016 65.4062 77.4453C65.4062 76.2891 66.3438 75.3516 67.5 75.3516C68.6562 75.3516 69.5938 76.2891 69.5938 77.4453Z" fill="white"/>
<path d="M63.8359 83.2031C63.8359 84.3594 62.8984 85.2969 61.7422 85.2969C60.5859 85.2969 59.6484 84.3594 59.6484 83.2031C59.6484 82.0469 60.5859 81.1094 61.7422 81.1094C62.8984 81.1094 63.8359 82.0469 63.8359 83.2031Z" fill="white"/>
<path d="M66.9018 96.7971C66.927 96.8013 66.9499 96.8125 66.9766 96.8125H80.5859C80.8748 96.8125 81.1094 96.5784 81.1094 96.2891C81.1094 95.9998 80.8748 95.7656 80.5859 95.7656H72.74C77.6547 93.7135 81.1094 88.8624 81.1094 83.2031C81.1094 75.6862 75.016 69.5938 67.5 69.5938C59.984 69.5938 53.8906 75.6867 53.8906 83.2031C53.8906 90.5182 59.6634 96.4835 66.9018 96.7969V96.7971ZM67.5 92.1016C65.7652 92.1016 64.3594 90.6953 64.3594 88.9609C64.3594 87.2266 65.7652 85.8203 67.5 85.8203C69.2348 85.8203 70.6406 87.2266 70.6406 88.9609C70.6406 90.6953 69.2348 92.1016 67.5 92.1016ZM73.2578 80.0631C74.9922 80.0631 76.3984 81.4689 76.3984 83.2037C76.3984 84.9386 74.9922 86.3444 73.2578 86.3444C71.5235 86.3444 70.1172 84.9386 70.1172 83.2037C70.1172 81.4689 71.5235 80.0631 73.2578 80.0631ZM67.5 74.3053C69.2348 74.3053 70.6406 75.7116 70.6406 77.4459C70.6406 79.1803 69.2348 80.5865 67.5 80.5865C65.7652 80.5865 64.3594 79.1803 64.3594 77.4459C64.3594 75.7116 65.7652 74.3053 67.5 74.3053ZM61.7422 80.0631C63.4765 80.0631 64.8828 81.4689 64.8828 83.2037C64.8828 84.9386 63.4765 86.3444 61.7422 86.3444C60.0078 86.3444 58.6016 84.9381 58.6016 83.2037C58.6016 81.4689 60.0078 80.0631 61.7422 80.0631Z" fill="white"/>
<path d="M75.3516 83.2031C75.3516 84.3594 74.4141 85.2969 73.2578 85.2969C72.1016 85.2969 71.1641 84.3594 71.1641 83.2031C71.1641 82.0469 72.1016 81.1094 73.2578 81.1094C74.4141 81.1094 75.3516 82.0469 75.3516 83.2031Z" fill="white"/>
</svg>
