<svg width="28" height="20" viewBox="0 0 28 20" fill="none" xmlns="http://www.w3.org/2000/svg">
<path d="M28 17.3333C28 18.806 26.806 20 25.3333 20H2.66667C1.194 20 0 18.806 0 17.3333V2.66667C0 1.194 1.194 0 2.66667 0H25.3333C26.806 0 28 1.194 28 2.66667V17.3333Z" fill="#1565C0"/>
<path d="M7.61783 7.00064L5.90021 11.9842C5.90021 11.9842 5.46393 9.8761 5.42076 9.6114C4.44291 7.44096 3 7.56186 3 7.56186L4.70062 14V13.9987H6.76817L9.62717 7.00064H7.61783ZM9.255 14H11.1329L12.2684 7.00064H10.3669L9.255 14ZM22.5453 7.00064H20.5693L17.4886 14H19.354L19.7386 13.0004H22.0907L22.2909 14H24L22.5453 7.00064ZM20.2593 11.6635L21.2816 9.01836L21.8167 11.6635H20.2593ZM14.9324 9.04063C14.9324 8.65503 15.2582 8.36806 16.1922 8.36806C16.7992 8.36806 17.4945 8.79693 17.4945 8.79693L17.7993 7.3277C17.7993 7.3277 16.911 7 16.0392 7C14.0645 7 13.0461 7.91883 13.0461 9.08199C13.0461 11.1856 15.6487 10.8974 15.6487 11.9778C15.6487 12.163 15.4976 12.5912 14.4138 12.5912C13.3267 12.5912 12.6091 12.2037 12.6091 12.2037L12.2854 13.6138C12.2854 13.6138 12.9807 13.9994 14.3241 13.9994C15.6709 13.9994 17.539 13.0195 17.539 11.6119C17.539 9.91873 14.9324 9.79656 14.9324 9.04063Z" fill="white"/>
<path d="M6 11L5.30792 7.71248C5.30792 7.71248 4.99484 7 4.18097 7C3.3671 7 1 7 1 7C1 7 5.05574 8.15769 6 11Z" fill="#FFC107"/>
</svg>
