<?xml version="1.0" encoding="utf-8"?>
<!-- Generator: Adobe Illustrator 16.0.0, SVG Export Plug-In . SVG Version: 6.00 Build 0)  -->
<!DOCTYPE svg PUBLIC "-//W3C//DTD SVG 1.1//EN" "http://www.w3.org/Graphics/SVG/1.1/DTD/svg11.dtd">
<svg version="1.1" id="Layer_1" xmlns="http://www.w3.org/2000/svg" xmlns:xlink="http://www.w3.org/1999/xlink" x="0px" y="0px"
	 width="64.211px" height="60px" viewBox="35 32 64.211 60" enable-background="new 35 32 64.211 60" xml:space="preserve">
<g>
	<path fill="#F9F9F9" d="M50,32h34.211c8.283,0,15,6.716,15,15v30c0,8.284-6.717,15-15,15H50c-8.284,0-15-6.716-15-15V47
		C35,38.716,41.716,32,50,32z"/>
	<path fill="none" stroke="#4CBBEC" d="M50,32.5h34.211c8.008,0,14.5,6.492,14.5,14.5v30c0,8.008-6.492,14.5-14.5,14.5H50
		c-8.008,0-14.5-6.492-14.5-14.5V47C35.5,38.992,41.992,32.5,50,32.5z"/>
</g>
<path fill="#4CBBEC" d="M67,42c-5.304,0-10.391,2.107-14.142,5.858C49.107,51.609,47,56.696,47,62s2.107,10.391,5.858,14.143
	C56.609,79.893,61.696,82,67,82s10.391-2.107,14.143-5.857C84.893,72.391,87,67.304,87,62c0-3.511-0.924-6.959-2.68-10
	s-4.279-5.565-7.32-7.32C73.959,42.924,70.511,42,67,42L67,42z M82.579,54.857h-6.808c-0.995-3.519-2.724-6.788-5.071-9.593
	c2.585,0.577,5.001,1.743,7.062,3.407S81.471,52.452,82.579,54.857L82.579,54.857z M66.921,78.471
	c-2.619-2.609-4.576-5.808-5.707-9.328h11.571c-1.133,3.521-3.092,6.721-5.714,9.328C67.026,78.504,66.966,78.504,66.921,78.471
	L66.921,78.471z M60.493,66.286c-0.524-2.833-0.524-5.738,0-8.572h13.014c0.524,2.833,0.524,5.738,0,8.572H60.493z M49.857,62
	c-0.002-1.446,0.18-2.886,0.543-4.286h7.193c-0.466,2.838-0.466,5.733,0,8.572H50.4C50.037,64.886,49.855,63.446,49.857,62z
	 M67,45.5c0.025-0.01,0.053-0.01,0.079,0c2.623,2.618,4.581,5.827,5.707,9.357H61.214c1.133-3.521,3.092-6.72,5.714-9.328
	C66.948,45.511,66.974,45.501,67,45.5L67,45.5z M76.407,57.714h7.193c0.724,2.812,0.724,5.76,0,8.572h-7.193
	C76.873,63.448,76.873,60.553,76.407,57.714z M63.3,45.265c-2.345,2.806-4.073,6.075-5.071,9.593h-6.807
	c1.108-2.405,2.757-4.522,4.817-6.187C58.299,47.007,60.715,45.841,63.3,45.265L63.3,45.265z M51.422,69.143h6.807
	c0.996,3.52,2.724,6.789,5.071,9.594c-2.584-0.577-5.001-1.744-7.062-3.407C54.179,73.666,52.53,71.549,51.422,69.143L51.422,69.143
	z M70.708,78.736c2.342-2.807,4.067-6.076,5.063-9.594h6.808c-1.108,2.406-2.757,4.523-4.817,6.188
	c-2.061,1.663-4.477,2.829-7.062,3.406H70.708z"/>
</svg>
