<svg width="40" height="40" viewBox="0 0 40 40" fill="none" xmlns="http://www.w3.org/2000/svg">
<path d="M20 0C8.955 0 0 8.955 0 20C0 28.4733 5.27167 35.71 12.7117 38.6233C12.5367 37.0417 12.3783 34.6133 12.7817 32.8867C13.145 31.3267 15.1267 22.945 15.1267 22.945C15.1267 22.945 14.5283 21.7467 14.5283 19.9767C14.5283 17.195 16.14 15.12 18.1467 15.12C19.8533 15.12 20.6767 16.4017 20.6767 17.9367C20.6767 19.6533 19.585 22.2183 19.02 24.595C18.5483 26.5867 20.0183 28.21 21.9817 28.21C25.5367 28.21 28.2683 24.4617 28.2683 19.0517C28.2683 14.2633 24.8283 10.915 19.915 10.915C14.225 10.915 10.885 15.1833 10.885 19.595C10.885 21.3133 11.5467 23.1567 12.3733 24.16C12.5367 24.3583 12.56 24.5317 12.5117 24.7333C12.36 25.365 12.0233 26.7233 11.9567 27.0017C11.87 27.3683 11.6667 27.445 11.2883 27.2683C8.79 26.105 7.22833 22.4533 7.22833 19.52C7.22833 13.2117 11.8117 7.41667 20.4433 7.41667C27.3817 7.41667 32.7733 12.36 32.7733 18.9683C32.7733 25.8617 28.4267 31.4083 22.395 31.4083C20.3683 31.4083 18.4633 30.355 17.8117 29.1117C17.8117 29.1117 16.8083 32.93 16.565 33.8667C16.1133 35.6033 14.895 37.7817 14.0783 39.11C15.95 39.6867 17.9383 40 20 40C31.045 40 40 31.045 40 20C40 8.955 31.045 0 20 0Z" fill="#4CBBEC"/>
</svg>
