<svg width="43" height="40" viewBox="0 0 43 40" fill="none" xmlns="http://www.w3.org/2000/svg">
<path d="M21.8596 3.33333C23.3383 3.33333 28.3448 3.735 30.7034 8.89333C31.4906 10.615 31.2955 13.63 31.1383 16.0533L31.1317 16.16C31.1102 16.4983 31.0887 16.825 31.0705 17.1383C31.1086 17.1767 31.4096 17.4583 32.091 17.485H32.0927C32.6104 17.465 33.2058 17.305 33.8575 17.0067C34.0493 16.9183 34.261 16.9 34.4066 16.9C34.6282 16.9 34.8515 16.9417 35.0367 17.0183L35.0483 17.0233C35.5759 17.205 35.9216 17.5667 35.9299 17.945C35.9365 18.3 35.6586 18.835 34.2957 19.36C34.1552 19.415 33.9749 19.47 33.7814 19.53C33.0024 19.7717 31.8264 20.1367 31.4658 20.965C31.269 21.4183 31.3319 21.97 31.6544 22.6067C31.6577 22.6133 31.661 22.6183 31.6626 22.625C31.7602 22.8483 34.1155 28.0883 39.3734 28.9333C39.5669 28.965 39.7059 29.1333 39.6943 29.325C39.6893 29.3967 39.6711 29.4683 39.6413 29.54C39.4247 30.035 38.4472 30.7367 35.0268 31.2517C34.7473 31.2933 34.6381 31.6483 34.4727 32.3933C34.4115 32.665 34.3503 32.9317 34.266 33.2117C34.1932 33.4533 34.0377 33.5683 33.7764 33.5683H33.7351C33.5548 33.5683 33.2951 33.5367 32.9693 33.475C32.3904 33.365 31.742 33.2633 30.9151 33.2633C30.4338 33.2633 29.9343 33.305 29.4331 33.385C28.406 33.5517 27.536 34.1533 26.6148 34.7883C25.2684 35.7117 23.8857 36.6667 21.729 36.6667C21.6347 36.6667 21.5421 36.6633 21.4511 36.6583C21.3932 36.6633 21.332 36.6667 21.2708 36.6667C19.1157 36.6667 17.7313 35.7117 16.3933 34.79C15.4704 34.1533 14.5988 33.55 13.57 33.385C13.0688 33.305 12.571 33.2633 12.088 33.2633C11.2197 33.2633 10.5333 33.3933 10.0338 33.4883C9.72949 33.5467 9.46651 33.5967 9.26804 33.5967C9.05964 33.5967 8.8347 33.5533 8.73546 33.225C8.65111 32.9417 8.58826 32.6667 8.52872 32.4017C8.3749 31.7183 8.26739 31.2983 7.97464 31.255C4.55591 30.74 3.57676 30.0367 3.3601 29.5383C3.33032 29.4667 3.31213 29.3967 3.30717 29.325C3.29724 29.1333 3.43618 28.965 3.62804 28.9333C8.88267 28.0883 11.2396 22.845 11.3388 22.6233C11.3421 22.6167 11.3454 22.6117 11.3471 22.605C11.6679 21.9683 11.7324 21.415 11.5356 20.9633C11.1751 20.1333 9.99909 19.77 9.22007 19.5283C9.02987 19.47 8.84793 19.4133 8.70569 19.3583C7.15097 18.7583 7.02362 18.1433 7.08316 17.83C7.18736 17.295 7.91841 16.9217 8.51053 16.9217C8.67261 16.9217 8.81485 16.95 8.93559 17.005C9.63522 17.325 10.2654 17.4867 10.8079 17.4867C11.5588 17.4867 11.8879 17.1783 11.926 17.1383C11.9061 16.7917 11.8829 16.43 11.8598 16.055C11.7043 13.6317 11.5108 10.62 12.2948 8.89833C14.65 3.74167 19.6483 3.34167 21.122 3.34167C21.1633 3.34 21.772 3.33333 21.772 3.33333H21.8596ZM21.8596 0H21.772C21.7505 0 21.3833 0.00666662 21.1236 0.0116666V0.00833352C19.1504 0.00833352 12.4685 0.548334 9.29119 7.50333C8.49068 9.25667 8.36167 11.43 8.42121 13.59C6.5175 13.6283 4.28962 14.8867 3.83974 17.185C3.676 18.0333 3.46099 20.9017 7.52311 22.4717C7.54461 22.48 7.56777 22.4883 7.59092 22.4967C6.77883 23.665 5.2853 25.2917 3.10869 25.6417C1.23807 25.9367 -0.0999876 27.6 0.0058658 29.51C0.0356371 29.9867 0.14149 30.43 0.321772 30.8517C1.17025 32.8017 3.22613 33.6883 5.5764 34.205C6.08417 35.8617 7.52973 36.9267 9.26969 36.9267C9.77415 36.9267 10.2306 36.84 10.6342 36.7633C11.0824 36.6783 11.529 36.5933 12.0897 36.5933C12.3973 36.5933 12.7199 36.62 13.0523 36.6733C13.3401 36.72 13.9917 37.1683 14.5144 37.53C16.0294 38.575 18.0886 39.9967 21.2708 39.9967C21.3403 39.9967 21.4098 39.995 21.4776 39.9933C21.5603 39.9983 21.6446 40 21.729 40C24.8963 40 26.9571 38.585 28.4622 37.5517C29.0428 37.1517 29.6663 36.7217 29.9591 36.675C30.2832 36.6233 30.6074 36.5967 30.9151 36.5967C31.4427 36.5967 31.8562 36.655 32.3523 36.75C32.8982 36.8533 33.3365 36.9017 33.7334 36.9017C35.4899 36.9017 36.9189 35.8433 37.4234 34.205C39.7704 33.6917 41.8246 32.81 42.6664 30.885C42.86 30.4333 42.9658 29.99 42.9939 29.5383C43.1014 27.6117 41.7716 25.9483 39.9027 25.6417C37.7178 25.29 36.221 23.6633 35.4105 22.4967C35.4353 22.4883 35.4585 22.4783 35.48 22.47C38.7945 21.1917 39.256 19.0483 39.2361 17.885C39.1997 16.1033 38.0072 14.5483 36.1895 13.8917C35.7297 13.705 35.1575 13.5867 34.5769 13.5667C34.6315 11.4467 34.4992 9.23167 33.7069 7.495C30.528 0.541667 23.8361 0 21.8596 0Z" fill="#4CBBEC"/>
</svg>
