<svg width="23" height="23" viewBox="0 0 23 23" fill="none" xmlns="http://www.w3.org/2000/svg">
<path d="M20.9091 0H2.09091C0.935682 0 0 0.935682 0 2.09091V20.9091C0 22.0643 0.935682 23 2.09091 23H20.9091C22.0643 23 23 22.0643 23 20.9091V2.09091C23 0.935682 22.0633 0 20.9091 0ZM19.5385 9.90464C19.4026 9.91718 19.2656 9.92555 19.1276 9.92555C17.5647 9.92555 16.191 9.12264 15.3912 7.90677C15.3912 11.0944 15.3912 14.7221 15.3912 14.7827C15.3912 17.5898 13.1152 19.8647 10.3092 19.8647C7.50323 19.8636 5.22727 17.5877 5.22727 14.7817C5.22727 11.9746 7.50323 9.69973 10.3092 9.69973C10.4159 9.69973 10.5194 9.70914 10.6229 9.71541V12.2203C10.5183 12.2078 10.4169 12.189 10.3092 12.189C8.87695 12.189 7.71545 13.3505 7.71545 14.7827C7.71545 16.215 8.87591 17.3765 10.3092 17.3765C11.7425 17.3765 13.0075 16.2474 13.0075 14.8151C13.0075 14.7576 13.0326 3.13741 13.0326 3.13741H15.4257C15.6505 5.27745 17.3786 6.96691 19.5385 7.12164V9.90464Z" fill="#4CBBEC"/>
</svg>
