<svg width="27" height="22" viewBox="0 0 27 22" fill="none" xmlns="http://www.w3.org/2000/svg">
<path d="M27 2.6041C26.0062 3.04662 24.9387 3.34441 23.8183 3.47873C24.9626 2.79152 25.8401 1.70344 26.2534 0.406077C25.1838 1.04226 23.9979 1.50457 22.7352 1.75446C21.7248 0.674712 20.2856 0 18.6926 0C15.6334 0 13.1537 2.48748 13.1537 5.55388C13.1537 5.98911 13.2035 6.41393 13.297 6.81897C8.69367 6.58782 4.61267 4.37626 1.87954 1.01519C1.40395 1.83568 1.13084 2.78944 1.13084 3.80879C1.13084 5.73506 2.108 7.43537 3.59398 8.43078C2.6864 8.40163 1.83178 8.15173 1.08515 7.73629C1.08515 7.76023 1.08515 7.7821 1.08515 7.80605C1.08515 10.4976 2.99377 12.7425 5.52856 13.2516C5.06438 13.3787 4.57425 13.4464 4.06854 13.4464C3.71236 13.4464 3.36449 13.411 3.027 13.3474C3.73209 15.5538 5.77778 17.1604 8.20145 17.2052C6.30633 18.6952 3.91796 19.5833 1.32191 19.5833C0.87539 19.5833 0.43406 19.5573 0 19.5052C2.45171 21.0806 5.36241 22 8.49117 22C18.6802 22 24.2503 13.5369 24.2503 6.19736C24.2503 5.95684 24.2451 5.71736 24.2347 5.47892C25.3178 4.69487 26.2575 3.71717 27 2.6041Z" fill="#4CBBEC"/>
</svg>
