<svg width="42" height="40" viewBox="0 0 42 40" fill="none" xmlns="http://www.w3.org/2000/svg">
<path d="M17.5 0C7.8505 0 0 6.74821 0 15.0432C0 17.8554 0.894906 20.5701 2.59766 22.9416L1.5791 30.999L8.6167 28.009C10.8776 29.1545 13.4078 29.8124 16.0508 30C17.3456 35.2107 22.723 38.9354 28.875 38.9354C31.4168 38.9354 33.7264 38.2073 35.752 37.1103L40.8413 40L40.0654 33.3322C41.2192 31.6511 42 29.707 42 27.5769C42 23.0392 38.9901 19.2695 34.7437 17.4317C34.8965 16.633 35 15.8348 35 15.0432C35 6.74821 27.1495 0 17.5 0ZM11.4844 9.15313C12.8459 9.15313 13.9453 10.2651 13.9453 11.6384C13.9453 13.0118 12.8441 14.1307 11.4844 14.1307C10.1246 14.1307 9.02344 13.0153 9.02344 11.6384C9.02344 10.2651 10.1246 9.15313 11.4844 9.15313ZM24.9102 9.15313C26.2699 9.15313 27.3711 10.2651 27.3711 11.6384C27.3711 13.0153 26.2699 14.1307 24.9102 14.1307C23.5469 14.1307 22.4492 13.0153 22.4492 11.6384C22.4492 10.2633 23.5504 9.15313 24.9102 9.15313ZM28.875 19.7615C34.3694 19.7615 38.5 23.4292 38.5 27.5769C38.5 29.149 37.936 30.6049 36.9106 31.8666L36.439 32.4473L36.5244 33.1939L36.562 33.5119L35.7861 33.0729L34.8975 33.6536C33.2629 34.7271 31.1734 35.3958 28.875 35.3958C23.3806 35.3958 19.25 31.7246 19.25 27.5769C19.25 23.4314 23.3809 19.7615 28.875 19.7615ZM24.4761 23.7677C23.4436 23.7677 22.6133 24.6109 22.6133 25.6516C22.6133 26.6922 23.4453 27.5389 24.4761 27.5389C25.5033 27.5389 26.3405 26.6922 26.3423 25.6516C26.3423 24.6109 25.5051 23.7677 24.4761 23.7677ZM33.3081 23.7677C32.2809 23.7677 31.4453 24.6109 31.4453 25.6516C31.4453 26.6922 32.2791 27.5389 33.3081 27.5389C34.3389 27.5389 35.1777 26.6922 35.1777 25.6516C35.1777 24.6109 34.3389 23.7677 33.3081 23.7677Z" fill="#4CBBEC"/>
</svg>
