<svg width="52" height="40" viewBox="0 0 52 40" fill="none" xmlns="http://www.w3.org/2000/svg">
<path d="M50.5485 6.875C50.0678 4.12598 47.7774 2.12402 45.1194 1.49902C41.1419 0.625 33.7807 0 25.8162 0C17.8564 0 10.3774 0.625 6.39514 1.49902C3.74189 2.12402 1.4468 3.99902 0.966104 6.875C0.480697 10 0 14.375 0 20C0 25.625 0.480697 30 1.08392 33.125C1.56933 35.874 3.85971 37.876 6.51296 38.501C10.7355 39.375 17.9743 40 25.9387 40C33.9032 40 41.1419 39.375 45.3645 38.501C48.0178 37.876 50.3081 36.001 50.7935 33.125C51.2742 30 51.8775 25.498 52 20C51.7549 14.375 51.1517 10 50.5485 6.875ZM19.3032 28.75V11.25L34.021 20L19.3032 28.75Z" fill="#4CBBEC"/>
</svg>
