<?xml version="1.0" encoding="utf-8"?>
<!-- Generator: Adobe Illustrator 16.0.0, SVG Export Plug-In . SVG Version: 6.00 Build 0)  -->
<!DOCTYPE svg PUBLIC "-//W3C//DTD SVG 1.1//EN" "http://www.w3.org/Graphics/SVG/1.1/DTD/svg11.dtd">
<svg version="1.1" id="Layer_1" xmlns="http://www.w3.org/2000/svg" xmlns:xlink="http://www.w3.org/1999/xlink" x="0px" y="0px"
	 width="52.561px" height="52.776px" viewBox="35.65 32.222 52.561 52.776" enable-background="new 35.65 32.222 52.561 52.776"
	 xml:space="preserve">
<g>
	<ellipse fill="#4CBBEC" cx="61.931" cy="58.61" rx="26.28" ry="26.388"/>
</g>
<path fill="#FFFFFF" d="M78.637,49.585h-9.699v-6.567c0-0.475-0.205-0.931-0.568-1.267s-0.857-0.524-1.372-0.524H45.01
	c-0.515,0-1.008,0.188-1.372,0.524c-0.364,0.336-0.568,0.792-0.568,1.267v13.134c0,0.475,0.205,0.931,0.568,1.267
	c0.364,0.335,0.857,0.524,1.372,0.524h1.293v5.374c0.001,0.24,0.159,0.457,0.401,0.549c0.077,0.033,0.161,0.05,0.246,0.048
	c0.172,0.001,0.337-0.062,0.459-0.173l6.253-5.797h1.048v6.567c0,0.475,0.205,0.932,0.568,1.267
	c0.364,0.336,0.858,0.524,1.372,0.524h12.682l6.26,5.797l0,0c0.121,0.112,0.287,0.174,0.459,0.174
	c0.085,0.002,0.169-0.015,0.246-0.048c0.241-0.092,0.398-0.309,0.4-0.55v-5.373h1.94c0.515,0,1.008-0.188,1.372-0.524
	c0.363-0.336,0.568-0.792,0.568-1.267V51.376c0-0.475-0.205-0.931-0.568-1.267C79.646,49.773,79.152,49.585,78.637,49.585
	L78.637,49.585z M53.501,56.749c-0.197-0.024-0.396,0.032-0.543,0.155h-0.039l-5.322,4.967v-4.525c0-0.158-0.068-0.31-0.189-0.422
	c-0.121-0.112-0.286-0.175-0.457-0.175h-1.94c-0.357,0-0.647-0.268-0.647-0.597V43.018c0-0.33,0.29-0.597,0.647-0.597h21.986
	c0.172,0,0.337,0.063,0.458,0.175c0.121,0.112,0.189,0.264,0.189,0.422v13.134c0,0.158-0.068,0.311-0.189,0.422
	s-0.286,0.175-0.458,0.175H53.501z M79.283,64.51c0,0.158-0.067,0.311-0.188,0.422c-0.122,0.112-0.286,0.176-0.458,0.176h-2.586
	c-0.357,0-0.646,0.268-0.646,0.597v4.525l-5.367-4.968l-0.039-0.035c-0.166-0.131-0.393-0.176-0.602-0.119H56.65
	c-0.357,0-0.646-0.268-0.646-0.598v-6.567h10.993c0.515,0,1.009-0.188,1.372-0.524s0.568-0.792,0.568-1.267v-5.373h9.699
	c0.172,0,0.336,0.063,0.458,0.175c0.121,0.112,0.188,0.264,0.188,0.422V64.51z"/>
<path fill="#FFFFFF" d="M62.691,44.451H47.232c-0.329,0-0.595,0.246-0.595,0.549c0,0.303,0.266,0.549,0.595,0.549h15.459
	c0.328,0,0.595-0.246,0.595-0.549C63.286,44.697,63.02,44.451,62.691,44.451z"/>
<path fill="#FFFFFF" d="M60.908,47.743H47.232c-0.329,0-0.595,0.246-0.595,0.549c0,0.303,0.266,0.549,0.595,0.549h13.675
	c0.328,0,0.595-0.246,0.595-0.549C61.502,47.989,61.236,47.743,60.908,47.743z"/>
<path fill="#FFFFFF" d="M59.124,51.037H47.232c-0.329,0-0.595,0.246-0.595,0.549s0.266,0.549,0.595,0.549h11.892
	c0.328,0,0.594-0.246,0.594-0.549S59.452,51.037,59.124,51.037z"/>
</svg>
