<?xml version="1.0" encoding="utf-8"?>
<!-- Generator: Adobe Illustrator 16.0.0, SVG Export Plug-In . SVG Version: 6.00 Build 0)  -->
<!DOCTYPE svg PUBLIC "-//W3C//DTD SVG 1.1//EN" "http://www.w3.org/Graphics/SVG/1.1/DTD/svg11.dtd">
<svg version="1.1" id="Layer_1" xmlns="http://www.w3.org/2000/svg" xmlns:xlink="http://www.w3.org/1999/xlink" x="0px" y="0px"
	 width="100px" height="99.734px" viewBox="0 0 100 99.734" enable-background="new 0 0 100 99.734" xml:space="preserve">
<g>
	<ellipse fill="#B3B3B3" cx="50" cy="49.867" rx="50" ry="49.867"/>
</g>
<path fill="#FFFFFF" d="M40.211,88.734h1.688c-0.088,0.809-0.319,1.533-0.694,2.172s-0.905,1.146-1.591,1.521
	c-0.686,0.367-1.541,0.553-2.566,0.553c-0.75,0-1.433-0.141-2.048-0.422c-0.609-0.281-1.134-0.68-1.573-1.195
	c-0.439-0.521-0.779-1.145-1.02-1.873c-0.234-0.73-0.352-1.547-0.352-2.443v-1.273c0-0.896,0.117-1.708,0.352-2.435
	c0.24-0.732,0.583-1.36,1.028-1.88c0.451-0.522,0.993-0.923,1.626-1.204s1.345-0.422,2.136-0.422c0.967,0,1.784,0.182,2.452,0.545
	s1.187,0.867,1.556,1.512c0.375,0.639,0.606,1.379,0.694,2.223h-1.688c-0.082-0.596-0.234-1.109-0.457-1.537
	c-0.223-0.434-0.539-0.768-0.949-1.002s-0.946-0.352-1.608-0.352c-0.568,0-1.069,0.108-1.503,0.325
	c-0.428,0.218-0.788,0.524-1.081,0.923c-0.287,0.398-0.504,0.877-0.65,1.432c-0.146,0.557-0.22,1.175-0.22,1.855v1.291
	c0,0.629,0.064,1.217,0.193,1.768c0.135,0.551,0.337,1.035,0.606,1.451s0.612,0.744,1.028,0.982
	c0.416,0.234,0.908,0.352,1.477,0.352c0.721,0,1.295-0.113,1.723-0.342s0.75-0.557,0.967-0.984
	C39.959,89.846,40.117,89.332,40.211,88.734z M45.59,79.305v13.5h-1.626v-13.5H45.59z M45.203,87.689l-0.677-0.027
	c0.006-0.648,0.103-1.25,0.29-1.801c0.188-0.557,0.451-1.041,0.791-1.451s0.744-0.727,1.213-0.949
	c0.475-0.229,0.999-0.342,1.573-0.342c0.469,0,0.891,0.064,1.266,0.193c0.375,0.123,0.694,0.322,0.958,0.598
	c0.27,0.275,0.475,0.633,0.615,1.072c0.141,0.433,0.211,0.962,0.211,1.589v6.232h-1.635v-6.248c0-0.5-0.073-0.898-0.22-1.197
	c-0.146-0.303-0.36-0.523-0.642-0.658c-0.281-0.141-0.627-0.211-1.037-0.211c-0.404,0-0.773,0.084-1.107,0.254
	c-0.328,0.17-0.612,0.404-0.853,0.703c-0.234,0.299-0.419,0.643-0.554,1.029C45.268,86.857,45.203,87.262,45.203,87.689z
	 M59.485,91.18v-4.896c0-0.375-0.076-0.701-0.229-0.977c-0.146-0.281-0.369-0.498-0.668-0.65s-0.668-0.227-1.107-0.227
	c-0.41,0-0.771,0.068-1.081,0.211c-0.305,0.139-0.545,0.324-0.721,0.552c-0.17,0.229-0.255,0.475-0.255,0.738h-1.626
	c0-0.34,0.088-0.678,0.264-1.011c0.176-0.334,0.428-0.635,0.756-0.904c0.334-0.275,0.732-0.492,1.195-0.65
	c0.469-0.164,0.99-0.246,1.564-0.246c0.691,0,1.301,0.117,1.828,0.352c0.533,0.234,0.949,0.588,1.248,1.063
	c0.305,0.468,0.457,1.058,0.457,1.767v4.43c0,0.316,0.026,0.654,0.079,1.01c0.059,0.359,0.144,0.666,0.255,0.924v0.141h-1.696
	c-0.082-0.188-0.146-0.438-0.193-0.748C59.509,91.74,59.485,91.447,59.485,91.18z M59.767,87.039l0.018,1.143h-1.644
	c-0.463,0-0.876,0.039-1.239,0.113c-0.363,0.07-0.668,0.18-0.914,0.326s-0.434,0.33-0.563,0.555
	c-0.129,0.215-0.193,0.471-0.193,0.764c0,0.299,0.067,0.572,0.202,0.818c0.135,0.244,0.337,0.441,0.606,0.588
	c0.275,0.141,0.612,0.211,1.011,0.211c0.498,0,0.938-0.105,1.318-0.316s0.683-0.469,0.905-0.773
	c0.229-0.305,0.352-0.602,0.369-0.889l0.694,0.783c-0.041,0.246-0.152,0.518-0.334,0.818c-0.182,0.297-0.425,0.586-0.729,0.859
	c-0.299,0.27-0.656,0.496-1.072,0.678c-0.41,0.176-0.873,0.264-1.389,0.264c-0.645,0-1.21-0.127-1.696-0.379
	c-0.48-0.252-0.855-0.588-1.125-1.01c-0.264-0.428-0.396-0.906-0.396-1.434c0-0.51,0.1-0.957,0.299-1.344
	c0.199-0.393,0.486-0.717,0.861-0.977c0.375-0.264,0.826-0.463,1.354-0.598s1.116-0.201,1.767-0.201H59.767z M67.65,83.295v1.248
	h-5.142v-1.248H67.65z M64.249,80.983h1.626v9.466c0,0.322,0.05,0.566,0.148,0.73c0.101,0.164,0.229,0.271,0.388,0.324
	c0.157,0.053,0.327,0.078,0.51,0.078c0.136,0,0.274-0.012,0.422-0.035c0.152-0.029,0.267-0.053,0.343-0.07l0.008,1.328
	c-0.129,0.041-0.297,0.08-0.508,0.113c-0.207,0.041-0.455,0.063-0.748,0.063c-0.398,0-0.765-0.08-1.099-0.238
	s-0.601-0.422-0.8-0.791c-0.193-0.375-0.29-0.879-0.29-1.512V80.983z"/>
<path fill="#FFFFFF" d="M81.785,32.811H63.33V20.4c0-0.898-0.389-1.759-1.081-2.394s-1.632-0.991-2.61-0.991H17.808
	c-0.979,0-1.918,0.356-2.61,0.991s-1.081,1.496-1.081,2.394v24.82c0,0.897,0.389,1.759,1.081,2.394
	c0.692,0.634,1.631,0.991,2.61,0.991h2.46V58.76c0.003,0.455,0.303,0.864,0.763,1.037c0.146,0.063,0.306,0.095,0.467,0.091
	c0.327,0.001,0.642-0.116,0.873-0.327L34.27,48.605h1.993v12.41c0,0.897,0.389,1.759,1.081,2.394
	c0.692,0.634,1.631,0.991,2.61,0.991H64.08l11.91,10.955h0.001c0.231,0.211,0.546,0.328,0.872,0.326
	c0.162,0.004,0.322-0.026,0.468-0.09c0.46-0.173,0.76-0.582,0.763-1.037V64.4h3.691c0.979,0,1.918-0.357,2.609-0.991
	c0.692-0.635,1.082-1.496,1.082-2.394V36.195c0-0.897-0.39-1.759-1.082-2.393C83.703,33.167,82.764,32.811,81.785,32.811
	L81.785,32.811z M33.962,46.349c-0.375-0.045-0.752,0.061-1.033,0.293h-0.074l-10.126,9.387v-8.552c0-0.299-0.129-0.586-0.36-0.797
	c-0.231-0.212-0.544-0.331-0.87-0.331h-3.691c-0.68,0-1.23-0.505-1.23-1.128V20.4c0-0.623,0.551-1.128,1.23-1.128h41.83
	c0.327,0,0.641,0.119,0.871,0.331s0.359,0.499,0.359,0.798v24.82c0,0.299-0.129,0.586-0.359,0.798s-0.544,0.331-0.871,0.331H33.962z
	 M83.016,61.016c0,0.299-0.131,0.586-0.361,0.798s-0.543,0.33-0.869,0.33h-4.922c-0.68,0-1.23,0.505-1.23,1.128v8.553l-10.212-9.387
	l-0.073-0.068c-0.315-0.247-0.746-0.332-1.145-0.226H39.954c-0.68,0-1.23-0.505-1.23-1.128v-12.41h20.915
	c0.979,0,1.918-0.357,2.61-0.991c0.692-0.635,1.081-1.496,1.081-2.394V35.067h18.455c0.326,0,0.639,0.119,0.869,0.331
	c0.23,0.211,0.361,0.499,0.361,0.798V61.016z"/>
<path fill="#FFFFFF" d="M51.447,23.109H22.036c-0.625,0-1.131,0.464-1.131,1.037c0,0.573,0.506,1.038,1.131,1.038h29.412
	c0.625,0,1.131-0.464,1.131-1.038C52.578,23.574,52.072,23.109,51.447,23.109z"/>
<path fill="#FFFFFF" d="M48.054,29.332H22.036c-0.625,0-1.131,0.464-1.131,1.037c0,0.573,0.506,1.038,1.131,1.038h26.018
	c0.625,0,1.131-0.464,1.131-1.038C49.185,29.796,48.678,29.332,48.054,29.332z"/>
<path fill="#FFFFFF" d="M44.66,35.555H22.036c-0.625,0-1.131,0.464-1.131,1.037c0,0.573,0.506,1.038,1.131,1.038H44.66
	c0.625,0,1.131-0.464,1.131-1.038C45.791,36.019,45.285,35.555,44.66,35.555z"/>
</svg>
