<?xml version="1.0" encoding="utf-8"?>
<!-- Generator: Adobe Illustrator 16.0.0, SVG Export Plug-In . SVG Version: 6.00 Build 0)  -->
<!DOCTYPE svg PUBLIC "-//W3C//DTD SVG 1.1//EN" "http://www.w3.org/Graphics/SVG/1.1/DTD/svg11.dtd">
<svg version="1.1" id="Layer_1" xmlns="http://www.w3.org/2000/svg" xmlns:xlink="http://www.w3.org/1999/xlink" x="0px" y="0px"
	 width="52.561px" height="52.776px" viewBox="35.651 32.222 52.561 52.776" enable-background="new 35.651 32.222 52.561 52.776"
	 xml:space="preserve">
<g>
	<ellipse fill="#878787" cx="61.931" cy="58.61" rx="26.28" ry="26.388"/>
</g>
<g>
	<path fill="#FFFFFF" d="M78.756,50.983h-9.102V44.82c0-0.445-0.192-0.874-0.532-1.189c-0.341-0.314-0.805-0.491-1.288-0.491H47.2
		c-0.483,0-0.946,0.177-1.288,0.491c-0.342,0.315-0.533,0.744-0.533,1.189v12.324c0,0.447,0.192,0.875,0.533,1.19
		c0.342,0.313,0.805,0.491,1.288,0.491h1.213v5.043c0.001,0.226,0.149,0.429,0.377,0.516c0.071,0.03,0.151,0.047,0.23,0.045
		c0.161,0.001,0.316-0.059,0.431-0.162l5.868-5.441h0.983v6.163c0,0.445,0.192,0.875,0.532,1.189
		c0.342,0.315,0.806,0.491,1.288,0.491h11.901l5.874,5.44l0,0c0.114,0.105,0.27,0.163,0.431,0.163
		c0.08,0.002,0.159-0.014,0.231-0.045c0.227-0.086,0.373-0.29,0.375-0.516v-5.043h1.82c0.483,0,0.946-0.176,1.288-0.491
		c0.341-0.315,0.533-0.744,0.533-1.189V52.663c0-0.446-0.192-0.875-0.533-1.189C79.703,51.158,79.24,50.983,78.756,50.983
		L78.756,50.983z M55.168,57.705c-0.185-0.023-0.372,0.03-0.51,0.145h-0.036l-4.994,4.662v-4.247c0-0.148-0.064-0.29-0.178-0.396
		s-0.269-0.164-0.429-0.164h-1.82c-0.336,0-0.608-0.252-0.608-0.562V44.82c0-0.311,0.272-0.561,0.608-0.561h20.632
		c0.161,0,0.316,0.059,0.43,0.164c0.114,0.105,0.178,0.248,0.178,0.396v12.324c0,0.149-0.063,0.293-0.178,0.397
		c-0.113,0.104-0.269,0.164-0.43,0.164H55.168z M79.364,64.988c0,0.148-0.063,0.292-0.178,0.396
		c-0.114,0.105-0.269,0.165-0.43,0.165h-2.427c-0.335,0-0.606,0.252-0.606,0.561v4.246l-5.035-4.662l-0.037-0.033
		c-0.156-0.122-0.369-0.165-0.565-0.111H58.123c-0.335,0-0.606-0.251-0.606-0.562v-6.162h10.316c0.483,0,0.947-0.177,1.288-0.491
		c0.34-0.315,0.532-0.743,0.532-1.19v-5.042h9.102c0.162,0,0.315,0.06,0.431,0.165c0.113,0.104,0.177,0.248,0.177,0.396
		L79.364,64.988L79.364,64.988z"/>
	<path fill="#FFFFFF" d="M63.792,46.164H49.285c-0.31,0-0.559,0.231-0.559,0.516s0.249,0.515,0.559,0.515h14.507
		c0.308,0,0.559-0.23,0.559-0.515S64.101,46.164,63.792,46.164z"/>
	<path fill="#FFFFFF" d="M62.119,49.254H49.285c-0.31,0-0.559,0.23-0.559,0.515s0.249,0.515,0.559,0.515h12.833
		c0.308,0,0.559-0.23,0.559-0.515S62.427,49.254,62.119,49.254z"/>
	<path fill="#FFFFFF" d="M60.446,52.345h-11.16c-0.31,0-0.559,0.23-0.559,0.515s0.249,0.516,0.559,0.516h11.16
		c0.308,0,0.557-0.231,0.557-0.516S60.753,52.345,60.446,52.345z"/>
</g>
</svg>
