<?xml version="1.0" encoding="utf-8"?>
<!-- Generator: Adobe Illustrator 16.0.0, SVG Export Plug-In . SVG Version: 6.00 Build 0)  -->
<!DOCTYPE svg PUBLIC "-//W3C//DTD SVG 1.1//EN" "http://www.w3.org/Graphics/SVG/1.1/DTD/svg11.dtd">
<svg version="1.1" id="Layer_1" xmlns="http://www.w3.org/2000/svg" xmlns:xlink="http://www.w3.org/1999/xlink" x="0px" y="0px"
	 width="150px" height="150px" viewBox="20 32 150 150" enable-background="new 20 32 150 150" xml:space="preserve">
<g>
	<circle fill="#4CBBEC" cx="95" cy="107" r="75"/>
</g>
<path fill="#FFFFFF" d="M83.258,164.852h2.063c-0.107,0.987-0.39,1.871-0.849,2.652s-1.106,1.4-1.944,1.857
	c-0.838,0.451-1.883,0.678-3.137,0.678c-0.917,0-1.751-0.172-2.503-0.516c-0.745-0.344-1.386-0.83-1.923-1.461
	c-0.537-0.638-0.953-1.4-1.246-2.289c-0.287-0.895-0.43-1.89-0.43-2.985v-1.558c0-1.096,0.143-2.088,0.43-2.976
	c0.293-0.896,0.712-1.662,1.257-2.299c0.551-0.638,1.214-1.128,1.987-1.472s1.644-0.516,2.61-0.516c1.182,0,2.181,0.223,2.997,0.666
	c0.816,0.444,1.45,1.061,1.901,1.848c0.458,0.781,0.741,1.687,0.849,2.718h-2.063c-0.1-0.73-0.287-1.357-0.559-1.88
	c-0.272-0.53-0.659-0.938-1.16-1.225c-0.501-0.287-1.157-0.43-1.966-0.43c-0.695,0-1.307,0.133-1.837,0.396
	c-0.523,0.266-0.963,0.642-1.321,1.129c-0.351,0.486-0.616,1.07-0.795,1.75c-0.179,0.682-0.269,1.437-0.269,2.268v1.579
	c0,0.767,0.079,1.485,0.236,2.159c0.165,0.673,0.412,1.264,0.741,1.772s0.749,0.909,1.257,1.203c0.508,0.286,1.11,0.431,1.805,0.431
	c0.881,0,1.583-0.141,2.105-0.42s0.917-0.681,1.182-1.203C82.95,166.208,83.143,165.581,83.258,164.852z M89.832,153.324v16.5
	h-1.987v-16.5H89.832z M89.359,163.572l-0.827-0.032c0.007-0.795,0.125-1.529,0.354-2.202c0.229-0.68,0.551-1.271,0.967-1.773
	c0.416-0.5,0.91-0.888,1.482-1.159c0.58-0.279,1.221-0.419,1.923-0.419c0.573,0,1.088,0.078,1.547,0.236
	c0.458,0.15,0.849,0.395,1.171,0.73c0.33,0.337,0.58,0.773,0.752,1.311c0.172,0.53,0.258,1.178,0.258,1.944v7.616h-1.998v-7.637
	c0-0.609-0.089-1.097-0.269-1.461c-0.179-0.373-0.44-0.642-0.784-0.807c-0.344-0.172-0.766-0.258-1.268-0.258
	c-0.494,0-0.945,0.104-1.354,0.313c-0.401,0.207-0.749,0.493-1.042,0.858c-0.287,0.365-0.512,0.784-0.677,1.257
	C89.438,162.555,89.359,163.049,89.359,163.572z M106.814,167.837v-5.983c0-0.459-0.092-0.855-0.278-1.192
	c-0.179-0.345-0.451-0.609-0.815-0.795c-0.367-0.187-0.818-0.279-1.354-0.279c-0.501,0-0.942,0.086-1.321,0.258
	c-0.372,0.173-0.666,0.397-0.881,0.677c-0.208,0.279-0.311,0.58-0.311,0.902h-1.988c0-0.416,0.107-0.826,0.322-1.236
	c0.215-0.407,0.522-0.776,0.924-1.105c0.408-0.337,0.896-0.602,1.461-0.795c0.572-0.2,1.211-0.301,1.912-0.301
	c0.845,0,1.59,0.144,2.234,0.43c0.651,0.286,1.16,0.72,1.525,1.3c0.373,0.573,0.559,1.292,0.559,2.159v5.414
	c0,0.387,0.032,0.799,0.096,1.234c0.072,0.438,0.177,0.813,0.313,1.129v0.172h-2.072c-0.102-0.229-0.18-0.533-0.238-0.913
	C106.844,168.523,106.814,168.166,106.814,167.837z M107.159,162.777l0.022,1.396h-2.01c-0.566,0-1.07,0.046-1.515,0.139
	c-0.444,0.086-0.816,0.22-1.117,0.398c-0.302,0.18-0.53,0.405-0.687,0.678c-0.158,0.264-0.237,0.575-0.237,0.934
	c0,0.365,0.083,0.699,0.247,0.998c0.164,0.302,0.412,0.541,0.74,0.721c0.338,0.172,0.75,0.258,1.236,0.258
	c0.609,0,1.146-0.129,1.611-0.387c0.466-0.258,0.834-0.573,1.107-0.945c0.278-0.373,0.428-0.734,0.45-1.085l0.849,0.956
	c-0.051,0.301-0.187,0.635-0.408,0.999c-0.223,0.365-0.52,0.716-0.891,1.054c-0.367,0.328-0.803,0.604-1.312,0.826
	c-0.501,0.215-1.067,0.322-1.697,0.322c-0.788,0-1.479-0.154-2.073-0.462c-0.588-0.308-1.045-0.72-1.375-1.235
	c-0.322-0.523-0.483-1.107-0.483-1.751c0-0.623,0.122-1.171,0.365-1.644c0.243-0.48,0.595-0.877,1.053-1.192
	c0.458-0.321,1.01-0.565,1.653-0.731c0.646-0.164,1.365-0.246,2.16-0.246H107.159z M116.795,158.201v1.525h-6.283v-1.525H116.795z
	 M112.639,155.376h1.986v11.569c0,0.394,0.061,0.69,0.184,0.892c0.121,0.2,0.278,0.333,0.471,0.397
	c0.195,0.064,0.402,0.097,0.623,0.097c0.166,0,0.338-0.015,0.517-0.043c0.187-0.036,0.326-0.063,0.419-0.086l0.012,1.622
	c-0.158,0.05-0.367,0.097-0.623,0.14c-0.252,0.05-0.556,0.075-0.914,0.075c-0.486,0-0.935-0.098-1.342-0.29
	c-0.408-0.192-0.734-0.517-0.979-0.967c-0.236-0.458-0.354-1.074-0.354-1.847V155.376z"/>
<path fill="#FFFFFF" d="M142.678,81.341h-27.683V62.676c0-1.35-0.583-2.645-1.622-3.6c-1.038-0.954-2.447-1.491-3.915-1.491H46.712
	c-1.468,0-2.877,0.536-3.915,1.491c-1.038,0.955-1.622,2.25-1.622,3.6v37.331c0,1.349,0.583,2.645,1.622,3.599
	s2.447,1.491,3.915,1.491h3.691v15.271c0.004,0.685,0.455,1.301,1.144,1.562c0.219,0.094,0.459,0.141,0.701,0.135
	c0.49,0.002,0.962-0.174,1.31-0.491l17.846-16.476h2.99v18.665c0,1.35,0.583,2.646,1.621,3.6c1.038,0.955,2.447,1.49,3.915,1.49
	h36.19l17.863,16.477h0.002c0.348,0.318,0.82,0.495,1.31,0.492c0.242,0.007,0.481-0.04,0.701-0.135
	c0.69-0.261,1.14-0.877,1.144-1.562v-15.272h5.537c1.469,0,2.877-0.535,3.915-1.49c1.038-0.954,1.621-2.25,1.621-3.6v-37.33
	c0-1.35-0.583-2.645-1.621-3.6C145.555,81.878,144.146,81.341,142.678,81.341L142.678,81.341z M70.944,101.703
	c-0.562-0.068-1.129,0.093-1.55,0.441h-0.11l-15.189,14.118V103.4c0-0.45-0.195-0.881-0.541-1.2
	c-0.346-0.318-0.816-0.497-1.305-0.497h-5.537c-1.019,0-1.845-0.759-1.845-1.696V62.676c0-0.937,0.826-1.697,1.845-1.697h62.747
	c0.488,0,0.959,0.179,1.305,0.497s0.541,0.75,0.541,1.2v37.331c0,0.45-0.195,0.881-0.541,1.2c-0.346,0.318-0.816,0.496-1.305,0.496
	H70.944z M144.523,123.762c0,0.45-0.195,0.883-0.541,1.2c-0.346,0.318-0.816,0.497-1.305,0.497h-7.383
	c-1.02,0-1.845,0.76-1.845,1.697v12.861L118.132,125.9l-0.11-0.103c-0.474-0.372-1.119-0.5-1.717-0.339H79.931
	c-1.019,0-1.845-0.76-1.845-1.697v-18.665h31.374c1.469,0,2.877-0.536,3.915-1.491c1.037-0.954,1.621-2.25,1.621-3.599V84.735
	h27.683c0.489,0,0.959,0.179,1.305,0.497c0.346,0.318,0.541,0.75,0.541,1.2V123.762z"/>
<path fill="#FFFFFF" d="M97.17,66.75H53.052c-0.937,0-1.697,0.699-1.697,1.56c0,0.862,0.76,1.56,1.697,1.56H97.17
	c0.938,0,1.697-0.698,1.697-1.56C98.867,67.449,98.107,66.75,97.17,66.75z"/>
<path fill="#FFFFFF" d="M92.079,76.109H53.052c-0.937,0-1.697,0.699-1.697,1.56c0,0.862,0.76,1.56,1.697,1.56h39.027
	c0.938,0,1.697-0.698,1.697-1.56C93.776,76.808,93.017,76.109,92.079,76.109z"/>
<path fill="#FFFFFF" d="M86.989,85.469H53.052c-0.937,0-1.697,0.699-1.697,1.56c0,0.862,0.76,1.56,1.697,1.56h33.937
	c0.937,0,1.697-0.698,1.697-1.56C88.686,86.167,87.926,85.469,86.989,85.469z"/>
</svg>
