<?xml version="1.0" encoding="utf-8"?>
<!-- Generator: Adobe Illustrator 16.0.0, SVG Export Plug-In . SVG Version: 6.00 Build 0)  -->
<!DOCTYPE svg PUBLIC "-//W3C//DTD SVG 1.1//EN" "http://www.w3.org/Graphics/SVG/1.1/DTD/svg11.dtd">
<svg version="1.1" id="Layer_1" xmlns="http://www.w3.org/2000/svg" xmlns:xlink="http://www.w3.org/1999/xlink" x="0px" y="0px"
	 width="100px" height="99.734px" viewBox="0 -0.117 100 99.734" enable-background="new 0 -0.117 100 99.734" xml:space="preserve"
	>
<g>
	<ellipse fill="#B3B3B3" cx="50" cy="49.75" rx="50" ry="49.867"/>
</g>
<path fill="#FFFFFF" d="M37.615,91.309v1.379h-6.776v-1.379H37.615z M31.182,79.891v12.797h-1.696V79.891H31.182z M36.719,85.393
	v1.381h-5.88v-1.381H36.719z M37.527,79.891v1.389h-6.688v-1.389H37.527z M41.087,85.066v7.621h-1.635v-9.51h1.547L41.087,85.066z
	 M40.753,87.572l-0.756-0.026c0.006-0.649,0.091-1.251,0.255-1.802c0.164-0.557,0.407-1.04,0.729-1.45s0.724-0.728,1.204-0.949
	c0.48-0.229,1.037-0.343,1.67-0.343c0.445,0,0.855,0.064,1.23,0.193c0.375,0.123,0.7,0.32,0.976,0.589
	c0.275,0.27,0.489,0.614,0.642,1.036c0.152,0.423,0.229,0.933,0.229,1.531v6.336h-1.626V86.43c0-0.498-0.085-0.896-0.255-1.195
	c-0.164-0.299-0.398-0.516-0.703-0.65c-0.305-0.141-0.662-0.211-1.072-0.211c-0.48,0-0.882,0.085-1.204,0.255
	s-0.58,0.403-0.773,0.703c-0.193,0.299-0.334,0.642-0.422,1.028C40.794,86.74,40.753,87.145,40.753,87.572z M46.914,86.676
	l-1.09,0.334c0.006-0.521,0.091-1.023,0.255-1.503c0.17-0.481,0.413-0.907,0.729-1.282c0.322-0.375,0.718-0.672,1.187-0.889
	c0.469-0.223,1.005-0.334,1.608-0.334c0.51,0,0.961,0.066,1.354,0.202c0.398,0.135,0.732,0.343,1.002,0.624
	c0.275,0.275,0.483,0.63,0.624,1.064c0.141,0.433,0.211,0.948,0.211,1.547v6.248h-1.635v-6.267c0-0.533-0.085-0.946-0.255-1.239
	c-0.164-0.299-0.398-0.507-0.703-0.623c-0.299-0.123-0.656-0.186-1.072-0.186c-0.357,0-0.674,0.063-0.949,0.186
	c-0.275,0.122-0.507,0.293-0.694,0.508c-0.188,0.211-0.331,0.455-0.431,0.73C46.961,86.072,46.914,86.365,46.914,86.676z
	 M60.862,91.063v-4.896c0-0.375-0.076-0.7-0.229-0.977c-0.146-0.28-0.369-0.498-0.668-0.649c-0.299-0.152-0.668-0.228-1.107-0.228
	c-0.41,0-0.771,0.069-1.081,0.211c-0.305,0.14-0.545,0.324-0.721,0.553c-0.17,0.229-0.255,0.475-0.255,0.738h-1.626
	c0-0.34,0.088-0.677,0.264-1.011s0.428-0.636,0.756-0.905c0.334-0.275,0.732-0.492,1.195-0.65c0.469-0.164,0.99-0.246,1.564-0.246
	c0.691,0,1.301,0.117,1.828,0.352c0.533,0.234,0.949,0.588,1.248,1.063c0.305,0.469,0.457,1.058,0.457,1.767v4.43
	c0,0.316,0.026,0.654,0.079,1.011c0.059,0.358,0.144,0.665,0.255,0.923v0.141h-1.696c-0.082-0.188-0.146-0.437-0.193-0.748
	C60.886,91.624,60.862,91.331,60.862,91.063z M61.144,86.922l0.018,1.143h-1.644c-0.463,0-0.876,0.039-1.239,0.114
	c-0.363,0.07-0.668,0.179-0.914,0.325s-0.434,0.331-0.563,0.555c-0.129,0.215-0.193,0.471-0.193,0.764
	c0,0.299,0.067,0.572,0.202,0.818c0.135,0.245,0.337,0.441,0.606,0.588c0.275,0.141,0.612,0.211,1.011,0.211
	c0.498,0,0.938-0.105,1.318-0.316s0.683-0.469,0.905-0.773c0.229-0.305,0.352-0.601,0.369-0.888l0.694,0.782
	c-0.041,0.246-0.152,0.519-0.334,0.818c-0.182,0.297-0.425,0.586-0.729,0.86c-0.299,0.269-0.656,0.495-1.072,0.677
	c-0.41,0.176-0.873,0.264-1.389,0.264c-0.645,0-1.21-0.127-1.696-0.379c-0.48-0.252-0.855-0.588-1.125-1.01
	c-0.264-0.428-0.396-0.906-0.396-1.433c0-0.511,0.1-0.958,0.299-1.345c0.199-0.393,0.486-0.717,0.861-0.976
	c0.375-0.264,0.826-0.463,1.354-0.598c0.527-0.136,1.116-0.202,1.767-0.202H61.144z M66.813,83.178v9.51h-1.635v-9.51H66.813z
	 M65.055,80.654c0-0.262,0.079-0.485,0.237-0.668c0.164-0.181,0.403-0.271,0.722-0.271c0.309,0,0.547,0.091,0.711,0.271
	c0.17,0.183,0.254,0.406,0.254,0.668c0,0.252-0.084,0.47-0.254,0.651c-0.164,0.177-0.402,0.263-0.711,0.263
	c-0.318,0-0.558-0.086-0.722-0.263C65.134,81.124,65.055,80.906,65.055,80.654z M71.189,79.188v13.5h-1.635v-13.5H71.189z"/>
<path fill="#FFFFFF" d="M76.329,16.836H23.136c-1.924,0-3.769,0.935-5.129,2.599c-1.36,1.665-2.125,3.922-2.125,6.276v40.916
	c0,2.355,0.764,4.611,2.125,6.277c1.36,1.664,3.205,2.599,5.129,2.599h53.193c1.924,0,3.769-0.935,5.129-2.599
	c1.36-1.666,2.125-3.922,2.125-6.277V25.711c0-2.354-0.765-4.611-2.125-6.276C80.098,17.771,78.253,16.836,76.329,16.836z
	 M78.747,65.09L63.345,49.854l-3.047,4.585l15.304,15.148H24.827l14.507-15l-3.143-4.498L20.717,65.979V28.582l24.179,25.68v0.001
	c1.317,1.392,2.999,2.156,4.739,2.156s3.422-0.765,4.739-2.156l24.179-25.68L78.747,65.09z"/>
</svg>
