<?xml version="1.0" encoding="utf-8"?>
<!-- Generator: Adobe Illustrator 16.0.0, SVG Export Plug-In . SVG Version: 6.00 Build 0)  -->
<!DOCTYPE svg PUBLIC "-//W3C//DTD SVG 1.1//EN" "http://www.w3.org/Graphics/SVG/1.1/DTD/svg11.dtd">
<svg version="1.1" id="Layer_1" xmlns="http://www.w3.org/2000/svg" xmlns:xlink="http://www.w3.org/1999/xlink" x="0px" y="0px"
	 width="52.561px" height="52.561px" viewBox="35.336 32.875 52.561 52.561" enable-background="new 35.336 32.875 52.561 52.561"
	 xml:space="preserve">
<g>
	<circle fill="#4CBBEC" cx="61.617" cy="59.155" r="26.28"/>
</g>
<path fill="#FFFFFF" d="M75.633,43.725H47.674c-1.012,0-1.981,0.493-2.696,1.37c-0.715,0.877-1.116,2.066-1.116,3.308v21.563
	c0,1.241,0.401,2.431,1.116,3.309c0.715,0.877,1.685,1.369,2.696,1.369h27.959c1.011,0,1.98-0.492,2.695-1.369
	c0.715-0.878,1.117-2.067,1.117-3.309V48.402c0-1.241-0.402-2.431-1.117-3.308C77.613,44.217,76.644,43.725,75.633,43.725z
	 M76.903,69.155l-8.096-8.029l-1.602,2.417l8.044,7.982H48.563l7.625-7.904l-1.652-2.371l-8.134,8.373V49.915L59.11,63.449l0,0
	c0.692,0.732,1.577,1.137,2.491,1.137s1.799-0.404,2.49-1.137l12.709-13.534L76.903,69.155z"/>
</svg>
