<?xml version="1.0" encoding="utf-8"?>
<!-- Generator: Adobe Illustrator 16.0.0, SVG Export Plug-In . SVG Version: 6.00 Build 0)  -->
<!DOCTYPE svg PUBLIC "-//W3C//DTD SVG 1.1//EN" "http://www.w3.org/Graphics/SVG/1.1/DTD/svg11.dtd">
<svg version="1.1" id="Layer_1" xmlns="http://www.w3.org/2000/svg" xmlns:xlink="http://www.w3.org/1999/xlink" x="0px" y="0px"
	 width="40px" height="40px" viewBox="35.664 32 40 40" enable-background="new 35.664 32 40 40" xml:space="preserve">
<g>
	<path fill="#878787" d="M55.664,33L55.664,33c10.493,0,19,8.507,19,19l0,0c0,10.493-8.508,19-19,19l0,0c-10.494,0-19-8.507-19-19
		l0,0C36.664,41.507,45.17,33,55.664,33z"/>
	<path fill="none" stroke="#878787" d="M55.664,32.5L55.664,32.5c10.77,0,19.5,8.73,19.5,19.5l0,0c0,10.77-8.73,19.5-19.5,19.5l0,0
		c-10.77,0-19.5-8.73-19.5-19.5l0,0C36.164,41.23,44.895,32.5,55.664,32.5z"/>
</g>
<path fill="#FAFAFA" d="M65.555,40.828H45.916c-0.71,0-1.391,0.353-1.894,0.976c-0.501,0.626-0.783,1.475-0.783,2.357v15.362
	c0,0.885,0.282,1.73,0.783,2.356c0.503,0.625,1.184,0.976,1.894,0.976h19.639c0.711,0,1.392-0.351,1.894-0.976
	c0.504-0.626,0.785-1.472,0.785-2.356V44.16c0-0.885-0.281-1.73-0.785-2.356C66.946,41.181,66.266,40.828,65.555,40.828z
	 M66.446,58.946l-5.685-5.722l-1.126,1.723l5.65,5.687H46.542l5.356-5.632l-1.162-1.689l-5.713,5.965v-14.04l8.927,9.644l0,0
	c0.487,0.521,1.107,0.809,1.752,0.809c0.641,0,1.261-0.287,1.746-0.809l8.927-9.641L66.446,58.946z"/>
</svg>
