<?xml version="1.0" encoding="utf-8"?>
<!-- Generator: Adobe Illustrator 16.0.0, SVG Export Plug-In . SVG Version: 6.00 Build 0)  -->
<!DOCTYPE svg PUBLIC "-//W3C//DTD SVG 1.1//EN" "http://www.w3.org/Graphics/SVG/1.1/DTD/svg11.dtd">
<svg version="1.1" id="Layer_1" xmlns="http://www.w3.org/2000/svg" xmlns:xlink="http://www.w3.org/1999/xlink" x="0px" y="0px"
	 width="79.805px" height="80px" viewBox="0 0 79.805 80" enable-background="new 0 0 79.805 80" xml:space="preserve">
<g>
	<ellipse fill="#4CBBEC" cx="39.902" cy="40" rx="39.903" ry="40"/>
</g>
<path fill="#FFFFFF" d="M23.97,29.105v-0.251c0-0.512,0.201-1.003,0.559-1.365s0.843-0.566,1.348-0.566h1.354
	c0.506,0,0.991,0.204,1.349,0.566s0.558,0.853,0.558,1.365v0.251h0.718l0-5.793h-6.604v5.793H23.97z M26.551,23.551L26.551,23.551
	c0.403,0.001,0.79,0.166,1.073,0.456c0.284,0.291,0.442,0.683,0.44,1.091c-0.002,0.408-0.165,0.799-0.452,1.086
	c-0.287,0.287-0.675,0.447-1.078,0.444s-0.789-0.168-1.072-0.459c-0.283-0.291-0.44-0.684-0.437-1.092
	c0.002-0.409,0.163-0.8,0.449-1.088c0.286-0.288,0.673-0.45,1.077-0.45L26.551,23.551z"/>
<path fill="#FFFFFF" d="M23.97,42.911c0-0.516,0.201-1.011,0.559-1.376c0.358-0.365,0.843-0.57,1.348-0.57h1.354
	c0.506,0,0.991,0.205,1.349,0.57c0.357,0.365,0.558,0.86,0.558,1.376v0.253h0.718l0-5.793h-6.604v5.793h0.718V42.911z
	 M26.551,37.604L26.551,37.604c0.403,0,0.79,0.164,1.074,0.454c0.285,0.291,0.445,0.686,0.445,1.097s-0.16,0.805-0.445,1.096
	c-0.285,0.291-0.671,0.454-1.074,0.454c-0.403,0-0.79-0.164-1.075-0.454c-0.285-0.291-0.445-0.685-0.445-1.096
	c0.002-0.411,0.163-0.804,0.447-1.095C25.763,37.77,26.149,37.606,26.551,37.604L26.551,37.604z"/>
<path fill="#FFFFFF" d="M26.832,39.307c0,0.368-0.55,0.368-0.55,0S26.832,38.939,26.832,39.307z"/>
<path fill="#FFFFFF" d="M26.832,24.959c0,0.368-0.55,0.368-0.55,0S26.832,24.592,26.832,24.959z"/>
<path fill="#FFFFFF" d="M27.261,27.996h-1.419c-0.368,0-0.667,0.263-0.667,0.587v0.241h2.752v-0.229
	c0.003-0.158-0.065-0.31-0.19-0.423C27.612,28.06,27.44,27.996,27.261,27.996L27.261,27.996z"/>
<path fill="#FFFFFF" d="M27.261,42.348h-1.419c-0.368,0-0.667,0.267-0.667,0.595v0.232h2.752v-0.232c0-0.158-0.07-0.309-0.195-0.421
	S27.438,42.348,27.261,42.348z"/>
<path fill="#FFFFFF" d="M26.832,32.135c0,0.368-0.55,0.368-0.55,0S26.832,31.768,26.832,32.135z"/>
<path fill="#FFFFFF" d="M27.261,35.168h-1.419c-0.368,0-0.667,0.271-0.667,0.604v0.224h2.752V35.76
	C27.92,35.431,27.624,35.168,27.261,35.168z"/>
<path fill="#FFFFFF" d="M23.97,35.996v-0.251c0-0.512,0.201-1.003,0.559-1.365c0.358-0.362,0.843-0.566,1.348-0.566h1.354
	c0.506,0,0.991,0.204,1.349,0.566c0.357,0.362,0.558,0.853,0.558,1.365v0.251h0.718l0-5.793h-6.604v5.793H23.97z M26.551,30.474
	L26.551,30.474c0.403,0,0.79,0.162,1.074,0.45c0.285,0.289,0.445,0.68,0.445,1.088c0,0.408-0.16,0.799-0.445,1.088
	c-0.285,0.289-0.671,0.451-1.074,0.451c-0.403,0-0.79-0.162-1.075-0.451c-0.285-0.289-0.445-0.68-0.445-1.088
	c0.005-0.405,0.167-0.792,0.451-1.078c0.284-0.285,0.668-0.446,1.068-0.448L26.551,30.474z"/>
<path fill="#FFFFFF" d="M31.23,29.809V43.45h25.592V23.313H31.23V29.809z M44.064,24.216c1.105,0,2.166,0.441,2.947,1.227
	c0.781,0.786,1.22,1.852,1.22,2.963s-0.438,2.177-1.22,2.963c-0.781,0.786-1.842,1.228-2.947,1.228
	c-1.104,0-2.164-0.442-2.945-1.228c-0.781-0.786-1.22-1.852-1.22-2.963c0.001-1.11,0.441-2.175,1.222-2.961
	C41.902,24.659,42.961,24.217,44.064,24.216L44.064,24.216z M41.546,33.167h5.038c1.426,0,2.793,0.569,3.803,1.583
	c1.009,1.013,1.576,2.388,1.578,3.822v3.319c0,0.172-0.068,0.337-0.189,0.459c-0.121,0.122-0.285,0.19-0.457,0.19h-14.52
	c-0.357,0-0.646-0.291-0.646-0.649v-3.313c0-1.438,0.568-2.816,1.581-3.831C38.745,33.732,40.117,33.163,41.546,33.167
	L41.546,33.167z"/>
<path fill="#FFFFFF" d="M56.633,19.996H23.167c-0.853,0-1.672,0.34-2.275,0.946c-0.604,0.606-0.942,1.427-0.942,2.284v20.023
	c0,0.856,0.339,1.679,0.942,2.284s1.422,0.945,2.275,0.945h33.466c0.854,0,1.672-0.34,2.275-0.945s0.943-1.428,0.943-2.284V23.226
	c0-0.856-0.34-1.678-0.943-2.284C58.305,20.336,57.486,19.996,56.633,19.996z M57.92,43.249c0,0.343-0.135,0.671-0.377,0.913
	c-0.24,0.243-0.568,0.379-0.91,0.379H30.665c-0.113,0.048-0.241,0.048-0.354,0h-7.144c-0.341,0-0.669-0.136-0.91-0.379
	c-0.242-0.242-0.377-0.57-0.377-0.913V23.226c0-0.342,0.136-0.671,0.377-0.914c0.241-0.242,0.569-0.378,0.91-0.378h33.466
	c0.341,0,0.669,0.136,0.91,0.378s0.377,0.571,0.377,0.914L57.92,43.249z"/>
<path fill="#FFFFFF" d="M50.494,38.352c-0.001-1.038-0.41-2.035-1.141-2.782c-0.73-0.748-1.727-1.188-2.781-1.229
	c-0.195,0.793-0.743,1.458-1.492,1.809c-0.749,0.351-1.619,0.351-2.368,0c-0.749-0.351-1.298-1.016-1.492-1.809
	c-1.056,0.038-2.056,0.477-2.79,1.225c-0.733,0.748-1.144,1.747-1.145,2.787v2.609h13.209V38.352z"/>
<path fill="#FFFFFF" d="M43.76,35.167c0.256-0.005,0.508-0.084,0.725-0.23s0.391-0.353,0.504-0.597h-2.477
	c0.114,0.248,0.292,0.456,0.513,0.603C43.244,35.088,43.499,35.167,43.76,35.167L43.76,35.167z"/>
<path fill="#FFFFFF" d="M46.918,28.412c0,1.6-1.294,2.896-2.89,2.896s-2.89-1.297-2.89-2.896c0-1.6,1.294-2.896,2.89-2.896
	S46.918,26.812,46.918,28.412z"/>
<path fill="#FFFFFF" d="M38.387,54.882c0.444,0.313,0.979,0.457,1.514,0.409c0.535,0.048,1.068-0.097,1.514-0.409v-8.409h-3.027
	V54.882z"/>
<path fill="#FFFFFF" d="M48.279,56.609c0.005-0.191-0.027-0.381-0.096-0.559c-0.042-0.103-0.109-0.192-0.197-0.26
	c-2.723-2.139-2.793-2.139-3.062-2.139H42.58v1.27c0,0.938-1.188,1.623-2.825,1.623c-1.636,0-2.825-0.685-2.825-1.623v-1.27h-2.345
	c-0.269,0-0.339,0-3.061,2.139l0,0c-0.088,0.067-0.156,0.157-0.198,0.26c-0.068,0.178-0.101,0.367-0.096,0.559v0.057v1.986
	c0,0.354,0.141,0.694,0.392,0.946c0.251,0.252,0.593,0.396,0.95,0.398h14.365c0.359,0,0.704-0.142,0.958-0.394
	s0.396-0.595,0.396-0.951v-1.986C48.292,56.666,48.279,56.628,48.279,56.609L48.279,56.609z M46.938,58.729H32.573
	c-0.042,0-0.076-0.034-0.076-0.076v-0.559c0.076,0.006,0.153,0.006,0.23,0h14.059c0.074,0.006,0.148,0.006,0.223,0v0.59
	C46.996,58.711,46.968,58.729,46.938,58.729L46.938,58.729z"/>
</svg>
