<?xml version="1.0" encoding="utf-8"?>
<!-- Generator: Adobe Illustrator 16.0.0, SVG Export Plug-In . SVG Version: 6.00 Build 0)  -->
<!DOCTYPE svg PUBLIC "-//W3C//DTD SVG 1.1//EN" "http://www.w3.org/Graphics/SVG/1.1/DTD/svg11.dtd">
<svg version="1.1" id="Layer_1" xmlns="http://www.w3.org/2000/svg" xmlns:xlink="http://www.w3.org/1999/xlink" x="0px" y="0px"
	 width="79.805px" height="80px" viewBox="0 0 79.805 80" enable-background="new 0 0 79.805 80" xml:space="preserve">
<g>
	<ellipse fill="#4CBBEC" cx="39.902" cy="40" rx="39.903" ry="40"/>
</g>
<path fill="#FFFFFF" d="M29.344,20H50.54v6.724l-2.521-2.867c-0.429-0.489-0.502-0.495-1.012-0.495H29.344L29.344,20z"/>
<path fill="#FFFFFF" d="M51.881,21.078l1.034,1.09l4.644,4.846l0.762,0.788h-6.439V21.078z"/>
<path fill="#FFFFFF" d="M25.317,24.301h21.196v8.069l-3.726-3.797c-0.267-0.234-0.452-0.475-0.732-0.475
	c0.084,0.008-16.149,0-16.149,0h-0.589L25.317,24.301z"/>
<path fill="#FFFFFF" d="M47.586,25.113l1.08,1.229l4.171,4.74l0.651,0.755h-5.902v-5.214V25.113z"/>
<path fill="#FFFFFF" d="M52.416,28.605h6.439v21.518h-3.513V32.431c0-0.456-0.286-0.721-0.494-1.008L52.416,28.605z"/>
<path fill="#FFFFFF" d="M19.951,29.149v29.855h29.514V37.679h-7.674c-0.27,0-0.609-0.27-0.608-0.474l0.019-7.583v-0.474
	L19.951,29.149L19.951,29.149z M24.673,34.362h11.806c0.262-0.005,0.608,0.264,0.608,0.474c0,0.21-0.347,0.477-0.608,0.474H24.673
	c-0.262,0.005-0.608-0.264-0.608-0.474C24.065,34.625,24.412,34.359,24.673,34.362z M24.673,37.205h11.806
	c0.262-0.004,0.608,0.264,0.608,0.474s-0.347,0.477-0.608,0.474H24.673c-0.262,0.004-0.608-0.264-0.608-0.474
	S24.412,37.202,24.673,37.205z M24.673,40.049h11.806c0.262-0.005,0.608,0.264,0.608,0.474c0,0.21-0.347,0.477-0.608,0.474H24.673
	c-0.262,0.005-0.608-0.264-0.608-0.474C24.065,40.313,24.412,40.046,24.673,40.049z M24.673,42.892h11.806
	c0.262-0.004,0.608,0.264,0.608,0.474c0,0.21-0.347,0.478-0.608,0.474H24.673c-0.262,0.005-0.608-0.264-0.608-0.474
	C24.065,43.156,24.412,42.889,24.673,42.892z M24.673,45.735h11.806c0.262-0.005,0.608,0.265,0.608,0.474
	c0,0.211-0.347,0.478-0.608,0.475H24.673c-0.262,0.005-0.608-0.264-0.608-0.475C24.065,46,24.412,45.732,24.673,45.735z
	 M24.673,49.053h11.806c0.262-0.005,0.608,0.264,0.608,0.475c0,0.209-0.347,0.477-0.608,0.474H24.673
	c-0.262,0.005-0.608-0.265-0.608-0.474C24.065,49.316,24.412,49.05,24.673,49.053z M24.655,51.896h11.842
	c0.262-0.005,0.591,0.264,0.591,0.474c0,0.211-0.328,0.478-0.591,0.474H24.655c-0.262,0.005-0.59-0.263-0.59-0.474
	C24.064,52.16,24.393,51.893,24.655,51.896z M24.673,54.74h11.806c0.262-0.006,0.608,0.264,0.608,0.474s-0.347,0.477-0.608,0.474
	H24.673c-0.262,0.005-0.608-0.264-0.608-0.474S24.412,54.736,24.673,54.74z"/>
<path fill="#FFFFFF" d="M42.221,29.949l6.439,6.724h-6.439V29.949z"/>
<path fill="#FFFFFF" d="M47.051,32.914h7.244v21.518h-3.594V36.739c0,0.015,0.032-0.124-0.15-0.269L47.051,32.914z"/>
</svg>
