<svg width="145" height="145" viewBox="0 0 145 145" fill="none" xmlns="http://www.w3.org/2000/svg">
<path fill-rule="evenodd" clip-rule="evenodd" d="M35.0008 0H114V25L104.604 14.3415C103.008 12.5229 102.735 12.5005 100.833 12.5005H35L35.0008 0Z" fill="#4CBBEC"/>
<path fill-rule="evenodd" clip-rule="evenodd" d="M119 4L122.854 8.05451L140.16 26.0717L143 29H119L119 4Z" fill="#4CBBEC"/>
<path fill-rule="evenodd" clip-rule="evenodd" d="M20.0025 16H99V46L85.1151 31.8825C84.1217 31.0135 83.4298 30.1173 82.3875 30.1173C82.6967 30.1456 22.195 30.1173 22.195 30.1173H20L20.0025 16Z" fill="#4CBBEC"/>
<path fill-rule="evenodd" clip-rule="evenodd" d="M103.002 19L107.026 23.5699L122.571 41.1913L125 44H103V24.6158L103.002 19Z" fill="#4CBBEC"/>
<path fill-rule="evenodd" clip-rule="evenodd" d="M121 32H145V112H131.909V46.2222C131.909 44.5283 130.843 43.5424 130.067 42.4724L121 32Z" fill="#4CBBEC"/>
<path fill-rule="evenodd" clip-rule="evenodd" d="M0 34.0016V145H110V65.7155H81.3996C80.3944 65.7155 79.1269 64.7126 79.1315 63.9531L79.2005 35.7624V34H0.000545502L0 34.0016ZM17.6004 53.3829H61.6004C62.5764 53.3657 63.8685 54.3637 63.8685 55.1453C63.8685 55.927 62.5748 56.9187 61.6004 56.9077H17.6004C16.6244 56.9249 15.3323 55.927 15.3323 55.1453C15.3323 54.3637 16.626 53.3719 17.6004 53.3829ZM17.6004 63.9548H61.6004C62.5764 63.9376 63.8685 64.9356 63.8685 65.7172C63.8685 66.4989 62.5748 67.4906 61.6004 67.4796H17.6004C16.6244 67.4968 15.3323 66.4989 15.3323 65.7172C15.3323 64.9356 16.626 63.9438 17.6004 63.9548V63.9548ZM17.6004 74.5267H61.6004C62.5764 74.5095 63.8685 75.5075 63.8685 76.2891C63.8685 77.0708 62.5748 78.0625 61.6004 78.0515H17.6004C16.6244 78.0687 15.3323 77.0708 15.3323 76.2891C15.3323 75.5075 16.626 74.5157 17.6004 74.5267ZM17.6004 85.0986H61.6004C62.5764 85.0814 63.8685 86.0794 63.8685 86.861C63.8685 87.6427 62.5748 88.6344 61.6004 88.6234H17.6004C16.6244 88.6406 15.3323 87.6427 15.3323 86.861C15.3323 86.0794 16.626 85.0876 17.6004 85.0986ZM17.6004 95.6705H61.6004C62.5764 95.6533 63.8685 96.6513 63.8685 97.4329C63.8685 98.2146 62.5748 99.2063 61.6004 99.1953H17.6004C16.6244 99.2125 15.3323 98.2146 15.3323 97.4329C15.3323 96.6513 16.626 95.6595 17.6004 95.6705ZM17.6004 108.003H61.6004C62.5764 107.986 63.8685 108.984 63.8685 109.766C63.8685 110.547 62.5748 111.539 61.6004 111.528H17.6004C16.6244 111.545 15.3323 110.547 15.3323 109.766C15.3323 108.984 16.626 107.992 17.6004 108.003ZM17.5313 118.575H61.6688C62.6449 118.558 63.8695 119.555 63.8695 120.338C63.8695 121.121 62.6464 122.112 61.6688 122.1H17.5313C16.5553 122.117 15.3307 121.121 15.3307 120.338C15.3307 119.555 16.5538 118.563 17.5313 118.575ZM17.6004 129.147H61.6004C62.5764 129.13 63.8685 130.128 63.8685 130.91C63.8685 131.691 62.5748 132.683 61.6004 132.672H17.6004C16.6244 132.689 15.3323 131.691 15.3323 130.91C15.3323 130.128 16.626 129.136 17.6004 129.147Z" fill="#4CBBEC"/>
<path fill-rule="evenodd" clip-rule="evenodd" d="M83 37L107 62H83V37Z" fill="#4CBBEC"/>
<path fill-rule="evenodd" clip-rule="evenodd" d="M101 48H128V128H114.604V62.2222C114.604 62.2755 114.726 61.7634 114.047 61.2227L101 48Z" fill="#4CBBEC"/>
</svg>
