<?xml version="1.0" encoding="utf-8"?>
<!-- Generator: Adobe Illustrator 16.0.0, SVG Export Plug-In . SVG Version: 6.00 Build 0)  -->
<!DOCTYPE svg PUBLIC "-//W3C//DTD SVG 1.1//EN" "http://www.w3.org/Graphics/SVG/1.1/DTD/svg11.dtd">
<svg version="1.1" id="Layer_1" xmlns="http://www.w3.org/2000/svg" xmlns:xlink="http://www.w3.org/1999/xlink" x="0px" y="0px"
	 width="79.805px" height="80px" viewBox="0 0 79.805 80" enable-background="new 0 0 79.805 80" xml:space="preserve">
<g>
	<ellipse fill="#4CBBEC" cx="39.902" cy="40" rx="39.903" ry="40"/>
</g>
<path fill="#FFFFFF" d="M56.561,28.57h-5.256l-0.932-5.922c-0.17-0.995-0.636-1.895-1.398-2.464
	c-0.764-0.568-1.653-0.805-2.543-0.616l-23.906,4.69c-1.865,0.379-3.094,2.321-2.755,4.406l3.688,23.263
	c0.169,0.995,0.678,1.848,1.399,2.463c0.593,0.475,1.229,0.711,1.95,0.711c0.212,0,0.424,0,0.593-0.047l1.483-0.284v1.279
	c0,2.085,1.526,3.79,3.391,3.79h24.287c1.864,0,3.391-1.705,3.391-3.79l-0.001-23.642C59.951,30.276,58.426,28.57,56.561,28.57
	L56.561,28.57z M54.611,36.719c0,1.327-0.933,2.369-2.119,2.369c-1.188,0-2.119-1.042-2.119-2.369s0.932-2.369,2.119-2.369
	C53.637,34.351,54.611,35.44,54.611,36.719z M26.85,51.928c-0.212,0.047-0.382-0.047-0.424-0.095
	c-0.085-0.048-0.212-0.189-0.254-0.427l-3.645-23.263c-0.042-0.379,0.169-0.71,0.466-0.758l23.905-4.738h0.085
	c0.169,0,0.297,0.095,0.339,0.142c0.085,0.047,0.212,0.189,0.255,0.426l0.848,5.401H32.274c-1.865,0-3.391,1.706-3.391,3.791v19.141
	L26.85,51.928z M56.561,56.666H32.274c-0.339,0-0.593-0.285-0.593-0.664v-6.443l7.926-10.186c0.212-0.284,0.593-0.284,0.805,0
	l4.917,6.254c0.085,0.094,0.128,0.236,0.085,0.379l-0.636,3.221c-0.042,0.237,0.212,0.379,0.339,0.189l4.917-6.017
	c0.169-0.189,0.425-0.189,0.552,0l6.526,8.007v4.596C57.112,56.381,56.857,56.666,56.561,56.666L56.561,56.666z"/>
</svg>
