<svg width="115" height="115" viewBox="0 0 115 115" fill="none" xmlns="http://www.w3.org/2000/svg">
<g filter="url(#filter0_d_628_12334)">
<circle cx="57.5" cy="54.5" r="22.5" fill="#4CBBEC"/>
</g>
<path d="M64.9002 64.7459C65.2344 64.368 65.4199 63.8731 65.4195 63.3593V55.0408L63.5056 54.4976L63.4949 54.4968M64.9002 64.7459L63.777 63.7517M64.9002 64.7459C64.5657 65.1237 64.107 65.3566 63.615 65.3983C59.5393 65.7469 55.4432 65.7469 51.3675 65.3983M64.9002 64.7459L63.7767 63.752C63.7768 63.7519 63.7769 63.7518 63.777 63.7517M63.777 63.7517C63.8635 63.6537 63.9197 63.5147 63.9195 63.3603L63.9195 63.3593V55.0408V55.0393C63.9197 54.8853 63.8637 54.7465 63.7774 54.6487L63.7771 54.6484C63.6936 54.5538 63.5912 54.5065 63.4949 54.4968M63.777 63.7517C63.6918 63.8479 63.5869 63.8953 63.4885 63.9036L63.4871 63.9037C61.999 64.031 60.5081 64.1109 59.0165 64.1432M63.4949 54.4968L63.2301 54.4765L62.183 54.3964L61.74 54.3703C61.2138 54.3394 60.687 54.3145 60.1594 54.2956L59.465 54.2708L58.6705 54.2569C57.8892 54.2433 57.1056 54.2433 56.3191 54.2569L55.5413 54.2704L55.3176 54.2792M63.4949 54.4968L55.3176 54.2792M51.4081 56.3798V61.2913C51.4081 61.5734 51.5525 61.834 51.7871 61.9749M51.4081 56.3798L51.3697 54.5365C51.3145 54.5614 51.2608 54.5999 51.2133 54.6536C51.1267 54.7515 51.0704 54.8904 51.0706 55.045L51.0706 55.0461L51.0706 56.3783V56.3798V61.2913V63.1678L51.7871 61.9749M51.4081 56.3798C51.4102 55.8777 51.593 55.3945 51.9205 55.0259L51.4081 56.3798ZM51.7871 61.9749C52.0217 62.1159 52.3107 62.1159 52.5453 61.9749C52.7798 61.834 52.9244 61.5734 52.9244 61.2913V57.5031L51.0706 63.1679L51.7871 61.9749ZM51.3675 65.3983L60.0319 63.4208M51.3675 65.3983L51.4953 63.9037C51.4964 63.9038 51.4974 63.9039 51.4984 63.904M51.3675 65.3983L51.4999 63.9041C51.4994 63.9041 51.4989 63.904 51.4984 63.904M59.0165 64.1432C59.4279 64.0239 59.7854 63.7673 60.0319 63.4208M59.0165 64.1432C58.8483 64.1469 58.6801 64.1499 58.5119 64.1524C58.5069 64.1524 58.5019 64.1525 58.4969 64.1526C57.8289 64.1621 57.1609 64.1622 56.4929 64.1527C56.4879 64.1526 56.4829 64.1525 56.4779 64.1525C56.3099 64.1501 56.1419 64.147 55.9739 64.1434M59.0165 64.1432C58.8556 64.1899 58.6865 64.2156 58.5126 64.2174L58.5047 64.2175H58.4969H56.4929H56.4851L56.4773 64.2174C56.3037 64.2156 56.1347 64.19 55.9739 64.1434M60.0319 63.4208L58.8097 62.5512L60.0326 63.4198M60.0319 63.4208L60.0326 63.4198M55.9739 64.1434C54.4807 64.1112 52.9882 64.0314 51.4984 63.904M55.9739 64.1434C55.5629 64.0244 55.2049 63.7682 54.9579 63.4208L51.4984 63.904M51.4984 63.904C51.4012 63.895 51.2971 63.8475 51.2126 63.7516L51.2124 63.7513C51.1264 63.6538 51.0704 63.5151 51.0706 63.3609V63.3593V63.2932C51.7706 63.6869 52.6262 63.6761 53.3177 63.2608L53.3181 63.2605C54.0204 62.8384 54.4244 62.0803 54.4244 61.2913V57.1284C54.8004 56.893 55.1024 56.5494 55.289 56.1408L51.4984 63.904ZM60.0326 63.4198C60.3731 62.9406 60.4705 62.3374 60.3149 61.7847L60.3077 61.7592L60.2996 61.7339L59.9478 60.6353M60.0326 63.4198L59.9478 60.6353M59.9478 60.6353C60.2178 60.262 60.404 59.8299 60.4899 59.3708C60.6567 58.4798 60.4352 57.5494 59.8673 56.8321L59.8673 56.832C59.2971 56.1118 58.4309 55.6768 57.4974 55.6768C56.5639 55.6768 55.6977 56.1118 55.1275 56.8321L55.1272 56.8324C54.56 57.5494 54.3379 58.4797 54.505 59.3712L59.9478 60.6353ZM55.0455 60.6331C54.7764 60.2604 54.5909 59.8292 54.5051 59.3714L55.0455 60.6331ZM55.0455 60.6331L54.6913 61.7306L54.6829 61.7566L54.6755 61.7828C54.5182 62.3384 54.6177 62.9424 54.9577 63.4205L55.0455 60.6331ZM55.3176 54.2792C55.5665 54.8714 55.5595 55.5482 55.2893 56.14L55.3176 54.2792ZM53.2454 44.6352L53.214 44.6051L53.2454 44.6352ZM60.7059 45.719L60.7384 45.6877L60.7059 45.719ZM51.3697 54.5365C51.41 54.5183 51.451 54.5073 51.4912 54.5027L51.3697 54.5365Z" stroke="white" stroke-width="3"/>
<defs>
<filter id="filter0_d_628_12334" x="0" y="0" width="115" height="115" filterUnits="userSpaceOnUse" color-interpolation-filters="sRGB">
<feFlood flood-opacity="0" result="BackgroundImageFix"/>
<feColorMatrix in="SourceAlpha" type="matrix" values="0 0 0 0 0 0 0 0 0 0 0 0 0 0 0 0 0 0 127 0" result="hardAlpha"/>
<feOffset dy="3"/>
<feGaussianBlur stdDeviation="17.5"/>
<feComposite in2="hardAlpha" operator="out"/>
<feColorMatrix type="matrix" values="0 0 0 0 0 0 0 0 0 0 0 0 0 0 0 0 0 0 0.08 0"/>
<feBlend mode="normal" in2="BackgroundImageFix" result="effect1_dropShadow_628_12334"/>
<feBlend mode="normal" in="SourceGraphic" in2="effect1_dropShadow_628_12334" result="shape"/>
</filter>
</defs>
</svg>
