<?xml version="1.0" encoding="utf-8"?>
<!-- Generator: Adobe Illustrator 16.0.0, SVG Export Plug-In . SVG Version: 6.00 Build 0)  -->
<!DOCTYPE svg PUBLIC "-//W3C//DTD SVG 1.1//EN" "http://www.w3.org/Graphics/SVG/1.1/DTD/svg11.dtd">
<svg version="1.1" id="Layer_1" xmlns="http://www.w3.org/2000/svg" xmlns:xlink="http://www.w3.org/1999/xlink" x="0px" y="0px"
	 width="100px" height="99.734px" viewBox="0 0 100 99.734" enable-background="new 0 0 100 99.734" xml:space="preserve">
<g>
	<ellipse fill="#4CBBEC" cx="50" cy="49.867" rx="50" ry="49.867"/>
</g>
<path fill="#FFFFFF" d="M39.306,89.57c0-0.299-0.047-0.563-0.141-0.791c-0.088-0.234-0.246-0.445-0.475-0.633
	c-0.223-0.188-0.533-0.366-0.932-0.536c-0.393-0.171-0.891-0.343-1.494-0.519c-0.633-0.188-1.204-0.396-1.714-0.623
	c-0.51-0.235-0.946-0.502-1.31-0.801s-0.642-0.642-0.835-1.027c-0.193-0.388-0.29-0.83-0.29-1.328s0.103-0.959,0.308-1.381
	c0.205-0.42,0.498-0.787,0.879-1.098c0.387-0.316,0.847-0.563,1.38-0.738s1.128-0.264,1.784-0.264c0.961,0,1.775,0.184,2.443,0.555
	c0.674,0.362,1.187,0.84,1.538,1.432c0.352,0.586,0.527,1.213,0.527,1.881h-1.688c0-0.48-0.103-0.905-0.308-1.273
	c-0.205-0.375-0.516-0.668-0.932-0.88c-0.416-0.217-0.943-0.325-1.582-0.325c-0.604,0-1.102,0.09-1.494,0.272
	s-0.686,0.428-0.879,0.737c-0.188,0.312-0.281,0.666-0.281,1.064c0,0.27,0.056,0.516,0.167,0.738
	c0.117,0.217,0.296,0.419,0.536,0.607c0.246,0.187,0.557,0.359,0.932,0.518c0.381,0.158,0.835,0.311,1.362,0.457
	c0.727,0.205,1.354,0.434,1.881,0.686s0.961,0.536,1.301,0.853c0.346,0.311,0.601,0.665,0.765,1.063
	c0.17,0.393,0.255,0.838,0.255,1.336c0,0.521-0.105,0.993-0.316,1.416c-0.211,0.422-0.513,0.781-0.905,1.08s-0.864,0.53-1.415,0.694
	c-0.545,0.158-1.154,0.237-1.828,0.237c-0.592,0-1.175-0.082-1.749-0.246c-0.568-0.164-1.087-0.41-1.556-0.738
	c-0.463-0.328-0.835-0.732-1.116-1.213c-0.275-0.486-0.413-1.049-0.413-1.688h1.688c0,0.439,0.085,0.817,0.255,1.133
	c0.17,0.312,0.401,0.569,0.694,0.774c0.299,0.205,0.636,0.357,1.011,0.457c0.381,0.095,0.776,0.14,1.187,0.14
	c0.592,0,1.093-0.082,1.503-0.246s0.721-0.397,0.932-0.702C39.197,90.348,39.306,89.986,39.306,89.57z M43.709,80.008h1.644
	l4.192,10.432l4.184-10.432h1.652l-5.203,12.797h-1.283L43.709,80.008z M43.173,80.008h1.45l0.237,7.805v4.992h-1.688V80.008z
	 M54.458,80.008h1.45v12.797h-1.688v-4.992L54.458,80.008z M65.708,89.57c0-0.299-0.047-0.563-0.142-0.791
	c-0.088-0.234-0.246-0.445-0.474-0.633c-0.223-0.188-0.533-0.366-0.932-0.536c-0.393-0.171-0.891-0.343-1.494-0.519
	c-0.633-0.188-1.204-0.396-1.714-0.623c-0.51-0.235-0.946-0.502-1.31-0.801s-0.642-0.642-0.835-1.027
	c-0.193-0.388-0.29-0.83-0.29-1.328s0.103-0.959,0.308-1.381c0.205-0.42,0.498-0.787,0.879-1.098
	c0.387-0.316,0.847-0.563,1.38-0.738s1.128-0.264,1.784-0.264c0.961,0,1.775,0.184,2.443,0.555c0.674,0.362,1.187,0.84,1.539,1.432
	c0.351,0.586,0.526,1.213,0.526,1.881h-1.688c0-0.48-0.102-0.905-0.307-1.273c-0.205-0.375-0.516-0.668-0.932-0.88
	c-0.416-0.217-0.943-0.325-1.582-0.325c-0.604,0-1.102,0.09-1.494,0.272s-0.686,0.428-0.879,0.737
	c-0.188,0.312-0.281,0.666-0.281,1.064c0,0.27,0.056,0.516,0.167,0.738c0.117,0.217,0.296,0.419,0.536,0.607
	c0.246,0.187,0.557,0.359,0.932,0.518c0.381,0.158,0.835,0.311,1.362,0.457c0.727,0.205,1.354,0.434,1.881,0.686
	s0.962,0.536,1.302,0.853c0.344,0.311,0.6,0.665,0.764,1.063c0.17,0.393,0.255,0.838,0.255,1.336c0,0.521-0.104,0.993-0.315,1.416
	c-0.211,0.422-0.514,0.781-0.906,1.08s-0.864,0.53-1.415,0.694c-0.545,0.158-1.154,0.237-1.828,0.237
	c-0.592,0-1.175-0.082-1.749-0.246c-0.568-0.164-1.087-0.41-1.556-0.738c-0.463-0.328-0.835-0.732-1.116-1.213
	c-0.275-0.486-0.413-1.049-0.413-1.688h1.688c0,0.439,0.085,0.817,0.255,1.133c0.17,0.312,0.401,0.569,0.694,0.774
	c0.299,0.205,0.636,0.357,1.011,0.457c0.381,0.095,0.776,0.14,1.187,0.14c0.592,0,1.093-0.082,1.503-0.246s0.721-0.397,0.932-0.702
	C65.6,90.348,65.708,89.986,65.708,89.57z"/>
<path fill="#FFFFFF" d="M22.2,14.962c-0.683,0.075-1.203,0.745-1.2,1.544v44.221c0,0.853,0.592,1.544,1.324,1.544h8.234
	l-1.531,9.506c-0.109,0.628,0.125,1.268,0.589,1.611c0.464,0.342,1.061,0.315,1.501-0.067l12.767-11.05h34.056l0,0
	c0.73,0,1.324-0.691,1.324-1.544V16.506c0-0.853-0.594-1.544-1.324-1.544H22.324C22.283,14.96,22.242,14.96,22.2,14.962L22.2,14.962
	z M30.207,26.904c0.041-0.002,0.083-0.002,0.124,0h39.726c0.352-0.001,0.688,0.162,0.938,0.451s0.389,0.683,0.389,1.093
	s-0.14,0.803-0.389,1.093c-0.249,0.29-0.586,0.452-0.938,0.45H30.331c-0.731,0.04-1.351-0.619-1.386-1.472
	C28.911,27.668,29.476,26.944,30.207,26.904L30.207,26.904z M30.207,33.95L30.207,33.95c0.041-0.003,0.083-0.003,0.124-0.001h33.167
	c0.352,0,0.688,0.162,0.938,0.452c0.249,0.29,0.389,0.683,0.389,1.093s-0.14,0.803-0.389,1.093c-0.249,0.29-0.586,0.453-0.938,0.451
	H30.331c-0.731,0.04-1.351-0.619-1.386-1.472C28.911,34.713,29.476,33.989,30.207,33.95L30.207,33.95z M30.207,41.284
	c0.041-0.003,0.083-0.003,0.124,0h26.607c0.732,0,1.324,0.691,1.324,1.543s-0.592,1.544-1.324,1.544H30.331
	c-0.731,0.04-1.352-0.619-1.386-1.472C28.911,42.047,29.476,41.323,30.207,41.284L30.207,41.284z M30.187,48.932L30.187,48.932
	c0.048-0.003,0.096-0.003,0.145,0h33.413c0.73,0.002,1.32,0.693,1.32,1.544c0,0.851-0.59,1.542-1.32,1.544H30.331
	c-0.73,0.043-1.353-0.609-1.392-1.46C28.899,49.708,29.457,48.98,30.187,48.932L30.187,48.932z"/>
</svg>
