<?xml version="1.0" encoding="utf-8"?>
<!-- Generator: Adobe Illustrator 16.0.0, SVG Export Plug-In . SVG Version: 6.00 Build 0)  -->
<!DOCTYPE svg PUBLIC "-//W3C//DTD SVG 1.1//EN" "http://www.w3.org/Graphics/SVG/1.1/DTD/svg11.dtd">
<svg version="1.1" id="Layer_1" xmlns="http://www.w3.org/2000/svg" xmlns:xlink="http://www.w3.org/1999/xlink" x="0px" y="0px"
	 width="52.561px" height="52.561px" viewBox="35.766 32.875 52.561 52.561" enable-background="new 35.766 32.875 52.561 52.561"
	 xml:space="preserve">
<g>
	<circle fill="#878787" cx="62.046" cy="59.155" r="26.28"/>
</g>
<path fill="#FFFFFF" d="M48.021,43.726c-0.359,0.039-0.633,0.393-0.631,0.813v23.305c0,0.45,0.312,0.814,0.696,0.814h4.328
	l-0.805,5.01c-0.057,0.33,0.066,0.668,0.31,0.849c0.244,0.181,0.558,0.167,0.789-0.035l6.71-5.823h17.9l0,0
	c0.385,0,0.695-0.364,0.695-0.814V44.539c0-0.449-0.311-0.813-0.695-0.813H48.086C48.064,43.724,48.042,43.724,48.021,43.726
	L48.021,43.726z M52.229,50.019c0.021-0.001,0.043-0.001,0.065,0h20.879c0.186,0,0.363,0.085,0.494,0.238
	c0.131,0.152,0.204,0.36,0.204,0.576c0,0.216-0.073,0.423-0.204,0.576c-0.131,0.153-0.309,0.238-0.494,0.238H52.294
	c-0.384,0.021-0.71-0.326-0.729-0.776C51.548,50.421,51.845,50.04,52.229,50.019L52.229,50.019z M52.229,53.732L52.229,53.732
	c0.021-0.001,0.043-0.001,0.065,0h17.433c0.185,0,0.362,0.085,0.493,0.238c0.131,0.153,0.204,0.36,0.204,0.576
	s-0.073,0.423-0.204,0.576c-0.131,0.152-0.309,0.238-0.493,0.238H52.294c-0.384,0.021-0.71-0.327-0.729-0.776
	C51.548,54.134,51.845,53.753,52.229,53.732L52.229,53.732z M52.229,57.597c0.021-0.001,0.043-0.001,0.065,0h13.985
	c0.385,0,0.696,0.364,0.696,0.813c0,0.449-0.312,0.813-0.696,0.813H52.294c-0.384,0.021-0.71-0.326-0.729-0.775
	C51.548,58,51.845,57.618,52.229,57.597L52.229,57.597z M52.219,61.627L52.219,61.627c0.025-0.001,0.051-0.001,0.076,0h17.563
	c0.383,0.001,0.693,0.365,0.693,0.813c0,0.449-0.311,0.813-0.693,0.814H52.294c-0.383,0.022-0.71-0.321-0.731-0.77
	S51.835,61.653,52.219,61.627L52.219,61.627z"/>
</svg>
