<?xml version="1.0" encoding="utf-8"?>
<!-- Generator: Adobe Illustrator 16.0.0, SVG Export Plug-In . SVG Version: 6.00 Build 0)  -->
<!DOCTYPE svg PUBLIC "-//W3C//DTD SVG 1.1//EN" "http://www.w3.org/Graphics/SVG/1.1/DTD/svg11.dtd">
<svg version="1.1" id="Layer_1" xmlns="http://www.w3.org/2000/svg" xmlns:xlink="http://www.w3.org/1999/xlink" x="0px" y="0px"
	 width="106px" height="105.718px" viewBox="0 0 106 105.718" enable-background="new 0 0 106 105.718" xml:space="preserve">
<g>
	<ellipse fill="#4CBBEC" cx="53" cy="52.859" rx="53" ry="52.859"/>
</g>
<path fill="#FFFFFF" stroke="#4CBBEC" d="M70.117,83.444c-10.315-0.054-23.022-6.854-33.198-16.144
	c-5.098-4.652-9.534-9.906-12.693-15.201c-3.162-5.301-5.023-10.607-5.023-15.375c0-7.51,5.106-14.467,13.775-14.467
	c-0.002,0-0.003,0-0.003,0c0,0.001,0.054,0.008,0.177,0.081c0.128,0.075,0.29,0.196,0.483,0.369c0.387,0.344,0.857,0.85,1.383,1.479
	c1.049,1.257,2.281,2.959,3.459,4.721c1.178,1.761,2.295,3.57,3.117,5.038c0.411,0.734,0.744,1.377,0.973,1.881
	c0.115,0.252,0.2,0.463,0.255,0.629c0.028,0.083,0.046,0.149,0.058,0.2c0.006,0.025,0.009,0.045,0.011,0.06
	c0.002,0.015,0.002,0.021,0.002,0.021c0,0.203-0.084,0.464-0.295,0.791c-0.209,0.324-0.52,0.677-0.915,1.056
	c-0.792,0.758-1.857,1.558-2.955,2.371c-0.069,0.051-0.139,0.102-0.208,0.153c-1.017,0.752-2.045,1.514-2.834,2.231
	c-0.422,0.384-0.793,0.772-1.063,1.156c-0.265,0.377-0.466,0.801-0.466,1.248c0,0.845,0.348,1.844,0.904,2.907
	c0.562,1.076,1.364,2.272,2.335,3.527c1.942,2.511,4.59,5.3,7.428,7.9c2.839,2.6,5.882,5.024,8.622,6.802
	c1.37,0.888,2.672,1.622,3.84,2.134c1.16,0.509,2.23,0.818,3.123,0.818c0.449,0,0.891-0.171,1.303-0.412
	c0.414-0.244,0.836-0.584,1.256-0.971c0.785-0.722,1.617-1.666,2.438-2.598c0.056-0.063,0.112-0.127,0.167-0.189
	c0.887-1.005,1.759-1.98,2.587-2.705c0.827-0.725,1.506-1.104,2.032-1.125c0.031,0.01,0.076,0.025,0.137,0.049
	c0.132,0.05,0.314,0.126,0.547,0.227c0.463,0.201,1.098,0.491,1.852,0.846c1.504,0.707,3.465,1.664,5.422,2.66
	c1.961,0.998,3.912,2.032,5.399,2.893c0.745,0.431,1.365,0.813,1.81,1.123c0.223,0.156,0.392,0.286,0.507,0.391
	c0.095,0.085,0.124,0.126,0.126,0.127l0.009,0.018c0.729,1.555,0.606,3.128-0.13,4.65c-0.743,1.537-2.109,3.014-3.834,4.307
	c-3.459,2.59-8.215,4.325-11.795,4.325H70.117z"/>
<path fill="#FFFFFF" d="M47.214,85.992v12.797h-1.67V85.992H47.214z M51.327,85.992v1.389h-9.888v-1.389H51.327z M56.047,98.965
	c-0.662,0-1.263-0.111-1.802-0.334c-0.533-0.229-0.993-0.547-1.38-0.957c-0.381-0.412-0.674-0.897-0.879-1.459
	c-0.205-0.563-0.308-1.179-0.308-1.847V94c0-0.774,0.114-1.463,0.343-2.066c0.229-0.609,0.539-1.125,0.932-1.547
	s0.838-0.741,1.336-0.959c0.498-0.215,1.014-0.324,1.547-0.324c0.68,0,1.266,0.117,1.758,0.352c0.498,0.234,0.905,0.563,1.222,0.984
	c0.316,0.416,0.551,0.908,0.703,1.477c0.152,0.563,0.229,1.178,0.229,1.846v0.729h-7.102v-1.327h5.476v-0.123
	c-0.023-0.422-0.111-0.832-0.264-1.23c-0.146-0.398-0.381-0.727-0.703-0.984s-0.762-0.387-1.318-0.387
	c-0.369,0-0.709,0.079-1.02,0.236c-0.311,0.153-0.577,0.381-0.8,0.687s-0.396,0.677-0.519,1.116S53.313,93.424,53.313,94v0.368
	c0,0.451,0.062,0.876,0.185,1.274c0.129,0.393,0.313,0.738,0.554,1.037c0.246,0.299,0.542,0.533,0.888,0.703
	c0.352,0.17,0.75,0.254,1.195,0.254c0.574,0,1.061-0.116,1.459-0.351c0.398-0.235,0.747-0.548,1.046-0.94l0.984,0.783
	c-0.205,0.31-0.466,0.605-0.782,0.887s-0.706,0.51-1.169,0.686C57.216,98.877,56.674,98.965,56.047,98.965z M63.412,85.289v13.5
	h-1.635v-13.5H63.412z"/>
</svg>
