<?xml version="1.0" encoding="utf-8"?>
<!-- Generator: Adobe Illustrator 16.0.0, SVG Export Plug-In . SVG Version: 6.00 Build 0)  -->
<!DOCTYPE svg PUBLIC "-//W3C//DTD SVG 1.1//EN" "http://www.w3.org/Graphics/SVG/1.1/DTD/svg11.dtd">
<svg version="1.1" id="Layer_1" xmlns="http://www.w3.org/2000/svg" xmlns:xlink="http://www.w3.org/1999/xlink" x="0px" y="0px"
	 width="55.714px" height="55.715px" viewBox="27.325 32.325 55.714 55.715" enable-background="new 27.325 32.325 55.714 55.715"
	 xml:space="preserve">
<g>
	<circle fill="#4CBBEC" cx="55.182" cy="60.183" r="27.857"/>
</g>
<path fill="#FFFFFF" stroke="#4CBBEC" d="M64.424,76.223c-5.335-0.028-11.959-3.566-17.29-8.445
	c-2.666-2.439-4.981-5.191-6.628-7.958c-1.649-2.773-2.607-5.527-2.607-7.982c0-3.844,2.588-7.363,6.957-7.388
	c0.005,0.002,0.01,0.006,0.017,0.009c0.049,0.029,0.122,0.083,0.217,0.167c0.191,0.17,0.429,0.426,0.702,0.755
	c0.544,0.653,1.187,1.542,1.804,2.468c0.616,0.924,1.2,1.872,1.628,2.639c0.214,0.384,0.386,0.716,0.502,0.974
	c0.059,0.129,0.1,0.231,0.125,0.309c0.017,0.051,0.022,0.077,0.024,0.085c-0.003,0.048-0.027,0.138-0.117,0.277
	c-0.096,0.149-0.245,0.321-0.446,0.514c-0.403,0.388-0.951,0.8-1.53,1.23c-0.038,0.027-0.075,0.055-0.112,0.083
	c-0.531,0.394-1.082,0.802-1.505,1.189c-0.228,0.208-0.437,0.425-0.593,0.648c-0.151,0.216-0.288,0.487-0.288,0.792
	c0,0.503,0.204,1.07,0.502,1.641c0.304,0.583,0.735,1.226,1.25,1.894c1.031,1.337,2.433,2.816,3.932,4.193
	c1.5,1.377,3.109,2.663,4.563,3.608c0.727,0.473,1.422,0.867,2.053,1.144c0.621,0.272,1.219,0.451,1.737,0.451
	c0.295,0,0.57-0.112,0.805-0.251c0.238-0.141,0.474-0.331,0.7-0.541c0.422-0.389,0.867-0.896,1.297-1.384
	c0.03-0.034,0.061-0.068,0.09-0.103c0.469-0.531,0.917-1.033,1.338-1.404c0.404-0.354,0.693-0.505,0.881-0.53
	c0.006,0.002,0.012,0.004,0.018,0.007c0.064,0.024,0.158,0.063,0.278,0.115c0.239,0.105,0.571,0.256,0.966,0.442
	c0.789,0.372,1.816,0.876,2.844,1.399c1.029,0.525,2.051,1.067,2.826,1.518c0.391,0.227,0.709,0.424,0.935,0.582
	c0.113,0.079,0.193,0.142,0.243,0.188c0.012,0.01,0.02,0.018,0.025,0.023c0.338,0.737,0.281,1.483-0.076,2.226
	c-0.369,0.765-1.057,1.516-1.945,2.183c-1.785,1.34-4.236,2.232-6.057,2.232H64.424z M72.581,69.598c0,0-0.001-0.001-0.001-0.002
	C72.58,69.597,72.581,69.598,72.581,69.598z M64.389,65.292C64.389,65.292,64.389,65.292,64.389,65.292
	C64.376,65.289,64.374,65.287,64.389,65.292z M44.837,44.44c0,0,0,0,0.002,0.001C44.837,44.44,44.837,44.44,44.837,44.44z"/>
</svg>
