<?xml version="1.0" encoding="utf-8"?>
<!-- Generator: Adobe Illustrator 16.0.0, SVG Export Plug-In . SVG Version: 6.00 Build 0)  -->
<!DOCTYPE svg PUBLIC "-//W3C//DTD SVG 1.1//EN" "http://www.w3.org/Graphics/SVG/1.1/DTD/svg11.dtd">
<svg version="1.1" id="Layer_1" xmlns="http://www.w3.org/2000/svg" xmlns:xlink="http://www.w3.org/1999/xlink" x="0px" y="0px"
	 width="150px" height="150px" viewBox="20 20 150 150" enable-background="new 20 20 150 150" xml:space="preserve">
<g>
	<circle fill="#B3B3B3" cx="95" cy="95" r="75"/>
</g>
<path fill="#FFFFFF" d="M119.402,139.118c-29.774,0-72.932-39.243-72.932-66.999c0-10.96,7.46-21.236,20.201-21.236
	c2.674,0,14.738,18.917,14.738,21.251c0,3.82-12.362,9.398-12.362,12.778c0,8.216,27.496,33.47,36.442,33.47
	c3.681,0,9.754-11.354,13.912-11.354c0.775,0,22.281,10.445,22.94,12.233C146.898,128.992,129.9,139.118,119.402,139.118
	L119.402,139.118z"/>
<path fill="#FFFFFF" d="M87.595,142.184v15.641h-2.041v-15.641H87.595z M92.622,142.184v1.697H80.537v-1.697H92.622z
	 M98.391,158.039c-0.809,0-1.543-0.137-2.202-0.408c-0.651-0.279-1.214-0.67-1.687-1.171c-0.465-0.501-0.824-1.096-1.074-1.783
	s-0.376-1.44-0.376-2.256v-0.451c0-0.946,0.14-1.786,0.419-2.524c0.279-0.744,0.659-1.375,1.139-1.891s1.023-0.906,1.633-1.171
	s1.238-0.397,1.891-0.397c0.83,0,1.547,0.144,2.148,0.43c0.609,0.286,1.107,0.688,1.492,1.203c0.388,0.509,0.674,1.109,0.86,1.805
	c0.187,0.688,0.279,1.439,0.279,2.256v0.891h-8.68v-1.621h6.692v-0.15c-0.029-0.516-0.136-1.017-0.322-1.504
	c-0.18-0.486-0.465-0.888-0.859-1.203c-0.395-0.314-0.932-0.473-1.611-0.473c-0.451,0-0.867,0.097-1.246,0.29
	c-0.379,0.186-0.705,0.466-0.978,0.838s-0.483,0.827-0.634,1.364s-0.226,1.156-0.226,1.858v0.451c0,0.552,0.075,1.071,0.226,1.558
	c0.158,0.479,0.383,0.902,0.677,1.268c0.301,0.365,0.663,0.652,1.085,0.859c0.43,0.207,0.916,0.312,1.461,0.312
	c0.701,0,1.297-0.144,1.783-0.431c0.486-0.285,0.912-0.668,1.279-1.148l1.203,0.956c-0.252,0.38-0.57,0.741-0.957,1.085
	s-0.863,0.623-1.429,0.838C99.819,157.932,99.156,158.039,98.391,158.039z M107.393,141.324v16.5h-1.998v-16.5H107.393z"/>
</svg>
