<svg width="50" height="49" viewBox="0 0 50 49" fill="none" xmlns="http://www.w3.org/2000/svg">
<path d="M19.9232 42.2857L20.3006 43.761H29.3554L29.7328 42.2857C29.8665 41.7584 30.3533 41.3911 30.9132 41.3911H45.5177V15.3239C45.5177 14.6722 44.9702 14.1391 44.3008 14.1391H38.2156C38.2156 16.0999 36.5789 17.6939 34.5642 17.6939L15.0915 17.6935C13.0774 17.6935 11.4402 16.1001 11.4402 14.1387L5.35536 14.1391C4.68597 14.1391 4.13843 14.6722 4.13843 15.3239V41.3911H18.743C19.3028 41.3911 19.7897 41.7584 19.9234 42.2857H19.9232ZM6.57269 36.6519C6.57269 35.9944 7.12026 35.4671 7.78963 35.4671H16.948C17.1365 33.0678 18.451 30.9705 20.3863 29.6906C19.7411 28.8137 19.3518 27.7413 19.3518 26.5801C19.3518 23.6416 21.8104 21.2484 24.8283 21.2484C27.8467 21.2484 30.3048 23.642 30.3048 26.5801C30.3048 27.7414 29.9151 28.8137 29.2704 29.6902C31.2056 30.9701 32.5196 33.0673 32.7086 35.4667H41.867C42.5364 35.4667 43.0839 35.994 43.0839 36.6515C43.0839 37.3032 42.5364 37.8362 41.867 37.8362L7.78973 37.8366C7.12034 37.8366 6.5728 37.3035 6.5728 36.6519L6.57269 36.6519Z" fill="#4CBBEC"/>
<path d="M32.0492 44.0977L31.6711 45.5584C31.5371 46.0828 31.0493 46.4538 30.4883 46.4538H19.5127C18.9517 46.4538 18.4639 46.0828 18.3299 45.5584L17.9518 44.0977H0C0 46.6953 2.18912 48.8103 4.87814 48.8103H45.1219C47.8108 48.8103 50 46.6954 50 44.0977H32.0492Z" fill="#4CBBEC"/>
<path d="M27.7084 31.6426C26.9495 32.0061 26.0855 32.2198 25.172 32.2198C24.2586 32.2198 23.4011 32.0065 22.6357 31.6426C21.0188 32.4215 19.8587 33.916 19.655 35.682H30.6895C30.4855 33.9165 29.3253 32.4218 27.7084 31.6426Z" fill="#4CBBEC"/>
<path d="M28.2762 26.928C28.2762 28.6013 26.8869 29.9576 25.1728 29.9576C23.4587 29.9576 22.0693 28.6013 22.0693 26.928C22.0693 25.2551 23.4587 23.8984 25.1728 23.8984C26.8869 23.8984 28.2762 25.2551 28.2762 26.928Z" fill="#4CBBEC"/>
<path d="M15.3627 15.4844H34.9798C35.6541 15.4844 36.2057 14.9485 36.2057 14.2934L36.2062 1.1914C36.2062 0.536279 35.6545 0.00041542 34.9802 0.00041542L15.3632 0C14.6888 0 14.1372 0.535896 14.1372 1.19099V14.293C14.1372 14.9485 14.6888 15.4844 15.3632 15.4844L15.3627 15.4844ZM20.8802 3.57348C20.8802 3.15639 21.1009 2.77546 21.4627 2.5611C21.8244 2.34093 22.2717 2.32307 22.6518 2.50751L31.2341 6.67623C31.651 6.87853 31.9149 7.2898 31.9149 7.74215C31.9149 8.19496 31.6514 8.60581 31.2345 8.80807L22.6523 12.9768C22.4799 13.0603 22.2961 13.1022 22.1062 13.1022C21.8796 13.1022 21.6585 13.0428 21.4626 12.9236C21.1009 12.7088 20.8802 12.3221 20.8802 11.9108L20.8802 3.57348Z" fill="#4CBBEC"/>
<path d="M23.1045 5.38477V9.76079L27.5873 7.57537L23.1045 5.38477Z" fill="#4CBBEC"/>
</svg>
