<?xml version="1.0" encoding="utf-8"?>
<!-- Generator: Adobe Illustrator 16.0.0, SVG Export Plug-In . SVG Version: 6.00 Build 0)  -->
<!DOCTYPE svg PUBLIC "-//W3C//DTD SVG 1.1//EN" "http://www.w3.org/Graphics/SVG/1.1/DTD/svg11.dtd">
<svg version="1.1" id="Layer_1" xmlns="http://www.w3.org/2000/svg" xmlns:xlink="http://www.w3.org/1999/xlink" x="0px" y="0px"
	 width="79.805px" height="80px" viewBox="0 0 79.805 80" enable-background="new 0 0 79.805 80" xml:space="preserve">
<g>
	<ellipse fill="#4CBBEC" cx="39.902" cy="40" rx="39.903" ry="40"/>
</g>
<path fill="#FFFFFF" d="M20.119,38.783v18.611c0,1.37,1.108,2.481,2.476,2.481H57.25c1.367,0,2.476-1.111,2.476-2.481V33.82H20.119
	V38.783z M53.017,35.061h5.472v3.722h-6.865L53.017,35.061z M40.583,35.061h5.556l-1.394,3.722h-5.556L40.583,35.061z
	 M28.149,35.061h5.556l-1.394,3.722h-5.556L28.149,35.061z M21.357,40.024h37.131v17.371c0,0.684-0.555,1.24-1.238,1.24H22.595
	c-0.683,0-1.238-0.557-1.238-1.24V40.024z"/>
<path fill="#FFFFFF" d="M56.657,20.172c-0.141,0-0.282,0.012-0.427,0.037l-34.065,5.904c-1.344,0.233-2.244,1.504-2.009,2.839
	l0.636,3.627l38.933-6.747l-0.637-3.626C58.879,21.013,57.836,20.172,56.657,20.172L56.657,20.172z M32.538,29.285l-5.458,0.946
	l0.71-3.834l5.458-0.946L32.538,29.285z M44.755,27.167l-5.458,0.946l0.709-3.833l5.459-0.946L44.755,27.167z M51.514,25.997
	l0.71-3.834l4.218-0.73c0.072-0.013,0.145-0.019,0.217-0.019c0.6,0,1.109,0.424,1.212,1.008l0.422,2.401L51.514,25.997z"/>
</svg>
