<svg width="150" height="150" viewBox="0 0 150 150" fill="none" xmlns="http://www.w3.org/2000/svg">
<g filter="url(#filter0_d_7949_11177)">
<ellipse cx="74.9021" cy="72" rx="39.9021" ry="40" fill="#4CBBEC"/>
</g>
<path d="M55.1191 70.7833V89.3944C55.1191 90.7647 56.2273 91.8759 57.5945 91.8759H92.2502C93.6175 91.8759 94.7256 90.7647 94.7256 89.3944V65.8203H55.1191V70.7833ZM88.0166 67.0611H93.4882V70.7833H86.6228L88.0166 67.0611ZM75.583 67.0611H81.1391L79.7453 70.7833H74.189L75.583 67.0611ZM63.1487 67.0611H68.7048L67.311 70.7833H61.7549L63.1487 67.0611ZM56.3573 72.024H93.4884V89.3944C93.4884 90.0787 92.9331 90.6351 92.2507 90.6351H57.595C56.9127 90.6351 56.3573 90.0787 56.3573 89.3944V72.024Z" fill="white"/>
<path d="M91.6572 52.1719C91.5166 52.1719 91.3743 52.1838 91.2312 52.2085L57.1654 58.1125C55.8213 58.3451 54.9217 59.6169 55.1563 60.9518L55.7926 64.5793L94.7258 57.8325L94.089 54.2058C93.8796 53.0125 92.8361 52.1719 91.6575 52.1719L91.6572 52.1719ZM67.5376 61.2846L62.0792 62.2307L62.789 58.3966L68.247 57.4508L67.5376 61.2846ZM79.7548 59.1676L74.2967 60.1134L75.0059 56.2799L80.4642 55.3338L79.7548 59.1676ZM86.514 57.9964L87.2235 54.1623L91.4414 53.4314C91.5132 53.4189 91.5859 53.4125 91.6577 53.4125C92.2578 53.4125 92.7675 53.8365 92.8703 54.4206L93.2919 56.8218L86.514 57.9964Z" fill="white"/>
<path d="M76.159 84.7368C76.159 85.422 75.6048 85.9776 74.9213 85.9776C74.2378 85.9776 73.6836 85.422 73.6836 84.7368C73.6836 84.0517 74.2378 83.4961 74.9213 83.4961C75.6048 83.4961 76.159 84.0517 76.159 84.7368Z" fill="white"/>
<path d="M76.159 77.9126C76.159 78.5978 75.6048 79.1534 74.9213 79.1534C74.2378 79.1534 73.6836 78.5978 73.6836 77.9126C73.6836 77.2274 74.2378 76.6719 74.9213 76.6719C75.6048 76.6719 76.159 77.2274 76.159 77.9126Z" fill="white"/>
<path d="M74.5684 89.3861C74.5833 89.3886 74.5969 89.3953 74.6126 89.3953H82.6577C82.8284 89.3953 82.9671 89.2565 82.9671 89.0851C82.9671 88.9136 82.8284 88.7749 82.6577 88.7749H78.0196C80.9249 87.5588 82.9671 84.6841 82.9671 81.3304C82.9671 76.876 79.365 73.2656 74.922 73.2656C70.479 73.2656 66.877 76.8763 66.877 81.3304C66.877 85.6653 70.2895 89.2003 74.5684 89.386V89.3861ZM74.922 86.6036C73.8965 86.6036 73.0655 85.7702 73.0655 84.7425C73.0655 83.7147 73.8965 82.8814 74.922 82.8814C75.9476 82.8814 76.7786 83.7147 76.7786 84.7425C76.7786 85.7702 75.9476 86.6036 74.922 86.6036ZM78.3257 79.4697C79.351 79.4697 80.1823 80.3028 80.1823 81.3308C80.1823 82.3588 79.351 83.1919 78.3257 83.1919C77.3005 83.1919 76.4692 82.3588 76.4692 81.3308C76.4692 80.3028 77.3005 79.4697 78.3257 79.4697ZM74.922 76.0577C75.9476 76.0577 76.7786 76.891 76.7786 77.9188C76.7786 78.9465 75.9476 79.7799 74.922 79.7799C73.8965 79.7799 73.0655 78.9465 73.0655 77.9188C73.0655 76.891 73.8965 76.0577 74.922 76.0577ZM71.5183 79.4697C72.5436 79.4697 73.3749 80.3028 73.3749 81.3308C73.3749 82.3588 72.5436 83.1919 71.5183 83.1919C70.4931 83.1919 69.6618 82.3586 69.6618 81.3308C69.6618 80.3028 70.4931 79.4697 71.5183 79.4697Z" fill="white"/>
<defs>
<filter id="filter0_d_7949_11177" x="0" y="0" width="149.804" height="150" filterUnits="userSpaceOnUse" color-interpolation-filters="sRGB">
<feFlood flood-opacity="0" result="BackgroundImageFix"/>
<feColorMatrix in="SourceAlpha" type="matrix" values="0 0 0 0 0 0 0 0 0 0 0 0 0 0 0 0 0 0 127 0" result="hardAlpha"/>
<feOffset dy="3"/>
<feGaussianBlur stdDeviation="17.5"/>
<feComposite in2="hardAlpha" operator="out"/>
<feColorMatrix type="matrix" values="0 0 0 0 0 0 0 0 0 0 0 0 0 0 0 0 0 0 0.08 0"/>
<feBlend mode="normal" in2="BackgroundImageFix" result="effect1_dropShadow_7949_11177"/>
<feBlend mode="normal" in="SourceGraphic" in2="effect1_dropShadow_7949_11177" result="shape"/>
</filter>
</defs>
</svg>
