<?xml version="1.0" encoding="utf-8"?>
<!-- Generator: Adobe Illustrator 16.0.0, SVG Export Plug-In . SVG Version: 6.00 Build 0)  -->
<!DOCTYPE svg PUBLIC "-//W3C//DTD SVG 1.1//EN" "http://www.w3.org/Graphics/SVG/1.1/DTD/svg11.dtd">
<svg version="1.1" id="Layer_1" xmlns="http://www.w3.org/2000/svg" xmlns:xlink="http://www.w3.org/1999/xlink" x="0px" y="0px"
	 width="45px" height="45px" viewBox="35 32 45 45" enable-background="new 35 32 45 45" xml:space="preserve">
<g>
	<circle fill="#4CBBEC" cx="57.5" cy="54.5" r="22.5"/>
</g>
<path fill="#FFFFFF" d="M46.345,53.817v10.468c0,0.771,0.625,1.396,1.396,1.396h19.542c0.771,0,1.396-0.625,1.396-1.396v-13.26
	H46.345V53.817z M64.895,51.723h3.086v2.094h-3.871L64.895,51.723z M57.884,51.723h3.133l-0.786,2.094h-3.133L57.884,51.723z
	 M50.872,51.723h3.133l-0.786,2.094h-3.133L50.872,51.723z M47.042,54.515H67.98v9.77c0,0.386-0.313,0.699-0.698,0.699H47.741
	c-0.385,0-0.698-0.313-0.698-0.699V54.515z"/>
<path fill="#FFFFFF" d="M66.947,43.346c-0.079,0-0.159,0.007-0.24,0.021l-19.208,3.321c-0.758,0.131-1.265,0.846-1.133,1.597
	l0.358,2.041l21.954-3.795l-0.359-2.04C68.201,43.818,67.612,43.346,66.947,43.346L66.947,43.346z M53.347,48.472l-3.078,0.532
	l0.4-2.157l3.078-0.532L53.347,48.472z M60.236,47.281l-3.078,0.532l0.4-2.157l3.079-0.532L60.236,47.281z M64.047,46.622l0.4-2.157
	l2.379-0.411c0.04-0.007,0.081-0.011,0.121-0.011c0.339,0,0.627,0.239,0.685,0.567l0.237,1.351L64.047,46.622z"/>
<path fill="#FFFFFF" d="M58.209,61.666c0,0.385-0.312,0.697-0.697,0.697c-0.386,0-0.698-0.313-0.698-0.697
	c0-0.386,0.313-0.698,0.698-0.698C57.897,60.968,58.209,61.28,58.209,61.666z"/>
<path fill="#FFFFFF" d="M57.312,64.279c0.009,0.002,0.016,0.006,0.025,0.006h4.536c0.097,0,0.175-0.078,0.175-0.175
	s-0.078-0.175-0.175-0.175h-2.615c1.639-0.684,2.79-2.301,2.79-4.188c0-2.505-2.03-4.536-4.536-4.536
	c-2.505,0-4.537,2.031-4.537,4.536C52.975,62.187,54.899,64.176,57.312,64.279L57.312,64.279z M57.512,62.715
	c-0.579,0-1.047-0.469-1.047-1.047s0.468-1.047,1.047-1.047c0.578,0,1.047,0.469,1.047,1.047S58.09,62.715,57.512,62.715z
	 M59.431,58.701c0.578,0,1.047,0.469,1.047,1.047c0,0.579-0.469,1.047-1.047,1.047s-1.047-0.468-1.047-1.047
	C58.384,59.17,58.853,58.701,59.431,58.701z M57.512,56.782c0.578,0,1.047,0.469,1.047,1.047s-0.469,1.047-1.047,1.047
	c-0.579,0-1.047-0.469-1.047-1.047S56.933,56.782,57.512,56.782z M55.592,58.701c0.578,0,1.047,0.469,1.047,1.047
	c0,0.579-0.469,1.047-1.047,1.047s-1.047-0.469-1.047-1.047S55.014,58.701,55.592,58.701z"/>
</svg>
