<?xml version="1.0" encoding="utf-8"?>
<!-- Generator: Adobe Illustrator 16.0.0, SVG Export Plug-In . SVG Version: 6.00 Build 0)  -->
<!DOCTYPE svg PUBLIC "-//W3C//DTD SVG 1.1//EN" "http://www.w3.org/Graphics/SVG/1.1/DTD/svg11.dtd">
<svg version="1.1" id="Layer_1" xmlns="http://www.w3.org/2000/svg" xmlns:xlink="http://www.w3.org/1999/xlink" x="0px" y="0px"
	 width="100px" height="99.734px" viewBox="0 0 100 99.734" enable-background="new 0 0 100 99.734" xml:space="preserve">
<g>
	<ellipse fill="#4CBBEC" cx="50" cy="49.867" rx="50" ry="49.867"/>
</g>
<path fill="#FFFFFF" d="M19.852,82.953l2.54-8.93h1.23l-0.712,3.472l-2.733,9.325h-1.222L19.852,82.953z M17.224,74.023l2.021,8.754
	l0.606,4.043h-1.213l-3.103-12.797H17.224z M26.909,82.768l1.978-8.744h1.696L27.489,86.82h-1.213L26.909,82.768z M23.807,74.023
	l2.47,8.93l0.896,3.867h-1.222l-2.637-9.325l-0.721-3.472H23.807z M35.883,86.996c-0.662,0-1.263-0.111-1.802-0.334
	c-0.533-0.229-0.993-0.548-1.38-0.958c-0.381-0.41-0.674-0.897-0.879-1.459c-0.205-0.563-0.308-1.178-0.308-1.847V82.03
	c0-0.772,0.114-1.462,0.343-2.065c0.229-0.609,0.539-1.125,0.932-1.547s0.838-0.74,1.336-0.958c0.498-0.217,1.014-0.325,1.547-0.325
	c0.68,0,1.266,0.117,1.758,0.352c0.498,0.234,0.905,0.563,1.222,0.984c0.316,0.416,0.551,0.908,0.703,1.477
	c0.152,0.563,0.229,1.178,0.229,1.846v0.729h-7.102v-1.326h5.476v-0.123c-0.023-0.422-0.111-0.832-0.264-1.23
	c-0.146-0.398-0.381-0.727-0.703-0.984s-0.762-0.387-1.318-0.387c-0.369,0-0.709,0.08-1.02,0.237
	c-0.311,0.152-0.577,0.381-0.8,0.685c-0.223,0.306-0.396,0.678-0.519,1.117s-0.185,0.946-0.185,1.521v0.368
	c0,0.451,0.062,0.877,0.185,1.275c0.129,0.393,0.313,0.738,0.554,1.037c0.246,0.299,0.542,0.533,0.888,0.703
	c0.352,0.17,0.75,0.255,1.195,0.255c0.574,0,1.061-0.116,1.459-0.352c0.398-0.234,0.747-0.548,1.046-0.94l0.984,0.782
	c-0.205,0.312-0.466,0.606-0.782,0.888s-0.706,0.51-1.169,0.686C37.052,86.908,36.51,86.996,35.883,86.996z M41.473,73.32h1.635
	v11.654l-0.141,1.846h-1.494V73.32z M49.532,81.986v0.185c0,0.691-0.082,1.333-0.246,1.925c-0.164,0.586-0.404,1.096-0.721,1.529
	s-0.703,0.77-1.16,1.012c-0.457,0.239-0.981,0.359-1.573,0.359c-0.604,0-1.134-0.104-1.591-0.309
	c-0.451-0.211-0.832-0.512-1.143-0.904s-0.56-0.867-0.747-1.424c-0.182-0.557-0.308-1.184-0.378-1.881V81.67
	c0.07-0.703,0.196-1.333,0.378-1.89c0.188-0.556,0.437-1.031,0.747-1.425c0.311-0.397,0.691-0.699,1.143-0.904
	c0.451-0.211,0.976-0.316,1.573-0.316s1.128,0.117,1.591,0.352c0.463,0.229,0.85,0.557,1.16,0.984
	c0.316,0.428,0.557,0.94,0.721,1.539C49.45,80.6,49.532,81.26,49.532,81.986z M47.897,82.171v-0.185c0-0.475-0.044-0.92-0.132-1.336
	c-0.088-0.422-0.229-0.791-0.422-1.107c-0.193-0.322-0.448-0.574-0.765-0.756c-0.316-0.188-0.706-0.281-1.169-0.281
	c-0.41,0-0.768,0.07-1.072,0.211c-0.299,0.141-0.554,0.331-0.765,0.571c-0.211,0.233-0.384,0.504-0.519,0.81
	c-0.129,0.297-0.226,0.608-0.29,0.931v2.118c0.094,0.41,0.246,0.806,0.457,1.187c0.217,0.375,0.504,0.683,0.861,0.923
	c0.363,0.24,0.812,0.36,1.345,0.36c0.439,0,0.814-0.088,1.125-0.265c0.316-0.181,0.571-0.43,0.765-0.746
	c0.199-0.316,0.346-0.683,0.439-1.098C47.851,83.092,47.897,82.645,47.897,82.171z M55.395,85.66c0.387,0,0.744-0.079,1.072-0.237
	c0.328-0.157,0.598-0.375,0.809-0.651c0.211-0.28,0.331-0.6,0.36-0.957h1.547c-0.029,0.563-0.22,1.087-0.571,1.574
	c-0.346,0.479-0.8,0.869-1.362,1.168c-0.563,0.293-1.181,0.439-1.854,0.439c-0.715,0-1.339-0.126-1.872-0.378
	c-0.527-0.252-0.967-0.599-1.318-1.037c-0.346-0.44-0.606-0.942-0.782-1.512c-0.17-0.574-0.255-1.181-0.255-1.819v-0.369
	c0-0.639,0.085-1.242,0.255-1.811c0.176-0.574,0.437-1.081,0.782-1.52c0.352-0.44,0.791-0.785,1.318-1.037
	c0.533-0.252,1.157-0.379,1.872-0.379c0.744,0,1.395,0.152,1.951,0.457c0.557,0.299,0.993,0.709,1.31,1.23
	c0.322,0.516,0.498,1.102,0.527,1.758h-1.547c-0.029-0.393-0.141-0.747-0.334-1.064c-0.188-0.315-0.445-0.567-0.773-0.754
	c-0.322-0.194-0.7-0.291-1.134-0.291c-0.498,0-0.917,0.1-1.257,0.299c-0.334,0.193-0.601,0.457-0.8,0.791
	c-0.193,0.328-0.334,0.694-0.422,1.099c-0.082,0.397-0.123,0.806-0.123,1.222v0.369c0,0.416,0.041,0.826,0.123,1.23
	s0.22,0.771,0.413,1.099c0.199,0.328,0.466,0.592,0.8,0.791C54.469,85.563,54.891,85.66,55.395,85.66z M66.618,85.194v-4.896
	c0-0.375-0.076-0.699-0.228-0.976c-0.147-0.281-0.369-0.498-0.668-0.65c-0.3-0.153-0.668-0.229-1.108-0.229
	c-0.41,0-0.771,0.071-1.081,0.211c-0.305,0.141-0.545,0.325-0.721,0.554c-0.17,0.229-0.255,0.475-0.255,0.738h-1.626
	c0-0.34,0.088-0.678,0.264-1.012s0.428-0.635,0.756-0.904c0.334-0.275,0.732-0.492,1.195-0.65c0.469-0.164,0.99-0.246,1.564-0.246
	c0.691,0,1.301,0.117,1.828,0.352c0.533,0.234,0.949,0.589,1.248,1.064c0.305,0.467,0.457,1.057,0.457,1.766v4.43
	c0,0.316,0.027,0.652,0.078,1.012c0.06,0.356,0.145,0.664,0.256,0.922v0.141h-1.696c-0.082-0.188-0.147-0.436-0.194-0.747
	C66.643,85.758,66.618,85.464,66.618,85.194z M66.898,81.055l0.019,1.143h-1.644c-0.463,0-0.876,0.038-1.239,0.113
	c-0.363,0.072-0.668,0.18-0.914,0.326s-0.434,0.332-0.563,0.553c-0.129,0.218-0.193,0.473-0.193,0.766
	c0,0.299,0.067,0.571,0.202,0.816c0.135,0.246,0.337,0.443,0.606,0.59c0.275,0.141,0.612,0.211,1.011,0.211
	c0.498,0,0.938-0.105,1.318-0.316s0.684-0.469,0.905-0.773c0.229-0.305,0.352-0.6,0.368-0.887l0.695,0.781
	c-0.041,0.246-0.152,0.518-0.334,0.817c-0.182,0.299-0.425,0.586-0.729,0.862c-0.3,0.269-0.656,0.494-1.072,0.676
	c-0.41,0.176-0.873,0.264-1.389,0.264c-0.645,0-1.21-0.126-1.696-0.378c-0.48-0.252-0.855-0.589-1.125-1.011
	c-0.264-0.428-0.396-0.905-0.396-1.432c0-0.511,0.1-0.959,0.299-1.346c0.199-0.393,0.486-0.718,0.861-0.977
	c0.375-0.262,0.826-0.463,1.354-0.596c0.527-0.136,1.116-0.203,1.767-0.203H66.898z M72.419,79.2v7.62h-1.635v-9.51h1.547
	L72.419,79.2z M72.085,81.705l-0.756-0.025c0.006-0.651,0.091-1.252,0.255-1.803c0.164-0.557,0.407-1.04,0.729-1.449
	c0.324-0.412,0.725-0.728,1.205-0.951c0.48-0.228,1.037-0.342,1.67-0.342c0.445,0,0.855,0.064,1.23,0.193
	c0.375,0.123,0.7,0.318,0.977,0.589c0.274,0.269,0.488,0.615,0.641,1.037s0.229,0.933,0.229,1.529v6.337h-1.625v-6.258
	c0-0.498-0.086-0.896-0.256-1.195c-0.164-0.299-0.398-0.516-0.703-0.65c-0.305-0.141-0.662-0.211-1.072-0.211
	c-0.48,0-0.881,0.086-1.205,0.256c-0.321,0.17-0.58,0.403-0.772,0.702c-0.192,0.3-0.334,0.642-0.422,1.028
	C72.126,80.873,72.085,81.277,72.085,81.705z M78.246,80.809l-1.09,0.334c0.006-0.521,0.091-1.022,0.255-1.502
	c0.17-0.481,0.413-0.91,0.729-1.285c0.322-0.375,0.717-0.67,1.187-0.887c0.469-0.223,1.005-0.334,1.608-0.334
	c0.51,0,0.961,0.067,1.354,0.202c0.398,0.136,0.732,0.343,1.002,0.624c0.275,0.275,0.482,0.631,0.624,1.063
	c0.142,0.435,0.211,0.951,0.211,1.548v6.249h-1.635v-6.266c0-0.535-0.085-0.947-0.255-1.24c-0.164-0.299-0.398-0.508-0.703-0.625
	c-0.299-0.122-0.656-0.184-1.072-0.184c-0.357,0-0.674,0.062-0.949,0.184c-0.275,0.123-0.507,0.294-0.695,0.511
	c-0.187,0.211-0.33,0.454-0.43,0.729C78.293,80.205,78.246,80.498,78.246,80.809z"/>
<path fill="#FFFFFF" stroke="#FFFFFF" stroke-width="2" d="M64.867,28.351c0,2.461-1.916,4.394-4.201,4.394
	c-2.287,0-4.201-1.933-4.201-4.394s1.914-4.394,4.201-4.394C62.951,23.957,64.867,25.89,64.867,28.351z"/>
<path fill="#FFFFFF" d="M73.408,11.969H26.601c-1.561,0-2.601,1.173-2.601,2.934v29.333c0,1.76,1.04,2.934,2.601,2.934h20.803V64.77
	h-7.801c-1.561,0-2.6,1.173-2.6,2.933s1.04,2.935,2.6,2.935h20.804c1.561,0,2.6-1.175,2.6-2.935s-1.039-2.933-2.6-2.933h-7.802
	V47.169h20.804c1.561,0,2.601-1.173,2.601-2.934V14.902C76.009,13.142,74.969,11.969,73.408,11.969z M31.801,23.702
	c-1.561,0-2.601-1.173-2.601-2.934c0-1.76,1.04-2.933,2.601-2.933s2.601,1.173,2.601,2.933
	C34.402,22.529,33.362,23.702,31.801,23.702z M60.666,41.889c-5.721,0-10.402-5.279-10.402-11.733
	c0-6.453,4.681-11.733,10.402-11.733s10.402,5.28,10.402,11.733S66.387,41.889,60.666,41.889L60.666,41.889z"/>
</svg>
