<?xml version="1.0" encoding="utf-8"?>
<!-- Generator: Adobe Illustrator 16.0.0, SVG Export Plug-In . SVG Version: 6.00 Build 0)  -->
<!DOCTYPE svg PUBLIC "-//W3C//DTD SVG 1.1//EN" "http://www.w3.org/Graphics/SVG/1.1/DTD/svg11.dtd">
<svg version="1.1" id="Layer_1" xmlns="http://www.w3.org/2000/svg" xmlns:xlink="http://www.w3.org/1999/xlink" x="0px" y="0px"
	 width="53.235px" height="52.561px" viewBox="35.766 32.875 53.235 52.561" enable-background="new 35.766 32.875 53.235 52.561"
	 xml:space="preserve">
<g>
	<ellipse fill="#4CBBEC" cx="62.383" cy="59.155" rx="26.618" ry="26.28"/>
</g>
<path fill="#FFFFFF" stroke="#FFFFFF" stroke-width="2" d="M70.229,52.359c0,1.043-0.817,1.843-1.77,1.843s-1.769-0.8-1.769-1.843
	s0.816-1.843,1.769-1.843S70.229,51.316,70.229,52.359z"/>
<path fill="#FFFFFF" d="M75.242,43.725H50.324c-0.831,0-1.384,0.618-1.384,1.546v15.459c0,0.928,0.554,1.546,1.384,1.546h11.075
	v9.275h-4.153c-0.831,0-1.384,0.619-1.384,1.547s0.554,1.545,1.384,1.545H68.32c0.831,0,1.385-0.617,1.385-1.545
	s-0.554-1.547-1.385-1.547h-4.152v-9.275h11.074c0.831,0,1.385-0.619,1.385-1.546V45.271C76.627,44.343,76.073,43.725,75.242,43.725
	z M53.093,49.908c-0.831,0-1.384-0.618-1.384-1.546s0.554-1.546,1.384-1.546c0.831,0,1.385,0.618,1.385,1.546
	S53.924,49.908,53.093,49.908z M68.459,59.493c-3.045,0-5.537-2.783-5.537-6.184c0-3.401,2.492-6.184,5.537-6.184
	c3.046,0,5.537,2.783,5.537,6.184C73.996,56.71,71.504,59.493,68.459,59.493z"/>
</svg>
