<?xml version="1.0" encoding="utf-8"?>
<!-- Generator: Adobe Illustrator 16.0.0, SVG Export Plug-In . SVG Version: 6.00 Build 0)  -->
<!DOCTYPE svg PUBLIC "-//W3C//DTD SVG 1.1//EN" "http://www.w3.org/Graphics/SVG/1.1/DTD/svg11.dtd">
<svg version="1.1" id="Layer_1" xmlns="http://www.w3.org/2000/svg" xmlns:xlink="http://www.w3.org/1999/xlink" x="0px" y="0px"
	 width="150px" height="150px" viewBox="20 32 150 150" enable-background="new 20 32 150 150" xml:space="preserve">
<g>
	<circle fill="#4CBBEC" cx="95" cy="107" r="75"/>
</g>
<path fill="#FFFFFF" d="M57.93,165.273l3.104-10.914h1.504l-0.87,4.244L58.327,170h-1.493L57.93,165.273z M54.718,154.359
	l2.471,10.699L57.93,170h-1.482l-3.792-15.641H54.718z M66.556,165.048l2.417-10.688h2.073L67.265,170h-1.482L66.556,165.048z
	 M62.764,154.359l3.019,10.914L66.878,170h-1.493l-3.223-11.396l-0.881-4.244H62.764z M77.523,170.215
	c-0.809,0-1.543-0.136-2.202-0.408c-0.652-0.279-1.214-0.67-1.687-1.171c-0.465-0.502-0.824-1.096-1.074-1.782
	c-0.25-0.688-0.376-1.44-0.376-2.256v-0.451c0-0.946,0.14-1.787,0.419-2.525c0.279-0.745,0.659-1.375,1.139-1.891
	s1.024-0.905,1.633-1.17c0.609-0.266,1.239-0.398,1.891-0.398c0.831,0,1.547,0.143,2.148,0.43c0.609,0.286,1.106,0.688,1.493,1.203
	c0.387,0.508,0.673,1.11,0.859,1.805c0.186,0.688,0.279,1.439,0.279,2.256v0.892h-8.68v-1.622h6.692v-0.15
	c-0.029-0.516-0.136-1.017-0.322-1.504c-0.179-0.486-0.465-0.888-0.859-1.203s-0.931-0.473-1.611-0.473
	c-0.451,0-0.867,0.098-1.246,0.29c-0.379,0.187-0.706,0.465-0.978,0.838c-0.272,0.372-0.483,0.827-0.634,1.364
	s-0.226,1.156-0.226,1.859v0.451c0,0.551,0.075,1.069,0.226,1.557c0.158,0.479,0.383,0.902,0.677,1.268
	c0.301,0.365,0.663,0.652,1.085,0.859c0.43,0.208,0.917,0.312,1.461,0.312c0.702,0,1.296-0.143,1.783-0.43
	c0.487-0.286,0.913-0.67,1.278-1.149l1.203,0.956c-0.25,0.38-0.569,0.741-0.956,1.085s-0.863,0.623-1.429,0.838
	C78.952,170.107,78.29,170.215,77.523,170.215z M84.355,153.5h1.998v14.244L86.182,170h-1.826V153.5z M94.206,164.092v0.225
	c0,0.846-0.1,1.631-0.301,2.354c-0.201,0.716-0.494,1.339-0.881,1.869c-0.387,0.529-0.859,0.941-1.418,1.234
	c-0.559,0.295-1.2,0.441-1.923,0.441c-0.738,0-1.386-0.125-1.944-0.376c-0.551-0.258-1.017-0.627-1.396-1.106
	s-0.684-1.06-0.913-1.74c-0.222-0.68-0.376-1.446-0.462-2.299v-0.988c0.086-0.859,0.24-1.629,0.462-2.309
	c0.229-0.682,0.534-1.262,0.913-1.741c0.379-0.487,0.845-0.856,1.396-1.106c0.551-0.258,1.192-0.387,1.923-0.387
	s1.378,0.143,1.944,0.43c0.566,0.279,1.039,0.68,1.418,1.203c0.387,0.523,0.68,1.148,0.881,1.88
	C94.106,162.398,94.206,163.204,94.206,164.092z M92.208,164.316v-0.225c0-0.58-0.054-1.125-0.161-1.633
	c-0.107-0.516-0.279-0.967-0.516-1.354c-0.236-0.394-0.548-0.701-0.935-0.924c-0.387-0.229-0.863-0.344-1.429-0.344
	c-0.501,0-0.938,0.086-1.311,0.258c-0.365,0.172-0.677,0.404-0.935,0.698c-0.258,0.286-0.469,0.616-0.634,0.988
	c-0.158,0.364-0.276,0.745-0.354,1.139v2.589c0.115,0.501,0.301,0.984,0.559,1.45c0.265,0.458,0.616,0.834,1.053,1.128
	c0.444,0.294,0.992,0.439,1.644,0.439c0.537,0,0.996-0.106,1.375-0.321c0.387-0.222,0.698-0.526,0.935-0.913
	c0.244-0.387,0.422-0.834,0.537-1.343S92.208,164.896,92.208,164.316z M101.371,168.582c0.473,0,0.91-0.098,1.311-0.29
	c0.401-0.192,0.73-0.458,0.988-0.795c0.258-0.345,0.405-0.733,0.439-1.171h1.892c-0.036,0.688-0.269,1.329-0.698,1.923
	c-0.423,0.587-0.978,1.063-1.664,1.429c-0.688,0.358-1.443,0.537-2.268,0.537c-0.874,0-1.637-0.154-2.288-0.462
	c-0.645-0.308-1.182-0.731-1.611-1.269c-0.423-0.536-0.741-1.152-0.956-1.846c-0.207-0.703-0.312-1.443-0.312-2.225v-0.451
	c0-0.781,0.104-1.518,0.312-2.213c0.215-0.702,0.533-1.32,0.956-1.857c0.43-0.539,0.967-0.961,1.611-1.269
	c0.651-0.308,1.414-0.462,2.288-0.462c0.91,0,1.705,0.186,2.385,0.559c0.68,0.365,1.215,0.866,1.6,1.504
	c0.395,0.631,0.609,1.346,0.646,2.148h-1.892c-0.034-0.48-0.172-0.913-0.407-1.3c-0.229-0.386-0.544-0.694-0.945-0.925
	c-0.394-0.235-0.856-0.354-1.386-0.354c-0.609,0-1.121,0.122-1.536,0.365c-0.408,0.236-0.733,0.559-0.978,0.967
	c-0.236,0.4-0.408,0.85-0.516,1.343c-0.1,0.487-0.15,0.984-0.15,1.493v0.451c0,0.509,0.051,1.01,0.15,1.504s0.269,0.941,0.505,1.343
	c0.243,0.401,0.569,0.724,0.978,0.968C100.24,168.464,100.755,168.582,101.371,168.582z M115.089,168.014v-5.984
	c0-0.459-0.093-0.855-0.278-1.192c-0.18-0.344-0.453-0.608-0.817-0.795c-0.365-0.187-0.815-0.278-1.353-0.278
	c-0.502,0-0.943,0.086-1.322,0.258c-0.373,0.17-0.666,0.396-0.881,0.676c-0.207,0.279-0.312,0.58-0.312,0.902h-1.987
	c0-0.416,0.107-0.828,0.322-1.235c0.215-0.408,0.523-0.777,0.924-1.106c0.408-0.337,0.895-0.602,1.461-0.795
	c0.573-0.201,1.211-0.301,1.912-0.301c0.846,0,1.59,0.143,2.234,0.43c0.652,0.286,1.16,0.721,1.525,1.301
	c0.373,0.572,0.559,1.291,0.559,2.158v5.414c0,0.387,0.031,0.799,0.097,1.235c0.071,0.437,0.175,0.813,0.312,1.128V170h-2.073
	c-0.101-0.229-0.179-0.534-0.236-0.913C115.118,168.7,115.089,168.342,115.089,168.014z M115.434,162.953l0.021,1.396h-2.009
	c-0.565,0-1.07,0.047-1.514,0.14c-0.445,0.086-0.818,0.219-1.119,0.397c-0.299,0.18-0.528,0.404-0.687,0.676
	c-0.158,0.266-0.235,0.578-0.235,0.936c0,0.365,0.082,0.697,0.246,0.999c0.164,0.301,0.412,0.541,0.741,0.72
	c0.337,0.172,0.748,0.258,1.235,0.258c0.609,0,1.146-0.129,1.611-0.387c0.465-0.258,0.834-0.572,1.106-0.945
	c0.278-0.373,0.431-0.733,0.451-1.084l0.849,0.955c-0.05,0.301-0.186,0.633-0.408,1c-0.222,0.364-0.52,0.715-0.892,1.051
	c-0.365,0.33-0.802,0.606-1.31,0.828c-0.502,0.215-1.068,0.322-1.699,0.322c-0.787,0-1.479-0.154-2.072-0.462
	c-0.587-0.308-1.046-0.72-1.375-1.235c-0.322-0.522-0.482-1.106-0.482-1.75c0-0.623,0.121-1.172,0.364-1.645
	c0.243-0.48,0.595-0.877,1.054-1.191c0.457-0.324,1.008-0.566,1.653-0.731c0.644-0.165,1.364-0.247,2.159-0.247H115.434z
	 M122.18,160.688V170h-1.998v-11.623h1.889L122.18,160.688z M121.771,163.748l-0.924-0.032c0.006-0.795,0.11-1.528,0.311-2.202
	c0.201-0.681,0.498-1.271,0.892-1.772c0.394-0.501,0.884-0.888,1.472-1.16c0.588-0.279,1.268-0.419,2.041-0.419
	c0.545,0,1.045,0.079,1.504,0.236c0.459,0.15,0.855,0.391,1.192,0.72c0.337,0.33,0.599,0.752,0.784,1.268
	c0.186,0.515,0.279,1.138,0.279,1.869V170h-1.987v-7.648c0-0.608-0.104-1.096-0.312-1.461c-0.201-0.365-0.487-0.631-0.859-0.795
	c-0.372-0.172-0.809-0.258-1.311-0.258c-0.588,0-1.078,0.104-1.472,0.311c-0.394,0.209-0.709,0.496-0.944,0.86
	c-0.237,0.365-0.41,0.784-0.517,1.257C121.82,162.73,121.771,163.225,121.771,163.748z M129.301,162.652l-1.332,0.408
	c0.008-0.638,0.111-1.25,0.311-1.836c0.209-0.589,0.506-1.11,0.893-1.569c0.395-0.458,0.877-0.82,1.45-1.085
	c0.573-0.272,1.228-0.408,1.966-0.408c0.623,0,1.174,0.082,1.654,0.247c0.486,0.165,0.895,0.419,1.225,0.763
	c0.336,0.336,0.592,0.77,0.762,1.301c0.172,0.529,0.258,1.159,0.258,1.889V170h-1.998v-7.659c0-0.651-0.104-1.157-0.311-1.515
	c-0.201-0.365-0.486-0.619-0.859-0.764c-0.365-0.149-0.803-0.225-1.311-0.225c-0.438,0-0.824,0.075-1.16,0.225
	c-0.336,0.151-0.619,0.359-0.849,0.625c-0.229,0.256-0.405,0.555-0.526,0.891C129.357,161.915,129.301,162.273,129.301,162.652z"/>
<path fill="#FFFFFF" stroke="#FFFFFF" stroke-width="2" d="M117.979,87.523c0,3.965-3.082,7.113-6.803,7.113
	c-3.72,0-6.801-3.147-6.801-7.113c0-3.966,3.081-7.113,6.801-7.113C114.896,80.41,117.979,83.557,117.979,87.523z"/>
<path fill="#FFFFFF" d="M130.288,62.883H60.076c-2.34,0-3.9,1.765-3.9,4.412v44.118c0,2.646,1.56,4.412,3.9,4.412h31.206v26.471
	H79.58c-2.34,0-3.9,1.764-3.9,4.411s1.56,4.412,3.9,4.412h31.206c2.34,0,3.9-1.765,3.9-4.412s-1.561-4.411-3.9-4.411H99.083v-26.471
	h31.205c2.341,0,3.901-1.766,3.901-4.412V67.294C134.189,64.647,132.629,62.883,130.288,62.883z M67.878,80.53
	c-2.341,0-3.901-1.765-3.901-4.412c0-2.647,1.56-4.412,3.901-4.412c2.34,0,3.9,1.765,3.9,4.412
	C71.778,78.765,70.218,80.53,67.878,80.53z M111.175,107.883c-8.582,0-15.603-7.941-15.603-17.647s7.021-17.647,15.603-17.647
	s15.603,7.941,15.603,17.647C126.777,99.941,119.756,107.883,111.175,107.883z"/>
</svg>
